<svg width="61" height="61" viewBox="0 0 61 61" fill="none" xmlns="http://www.w3.org/2000/svg">
<g clip-path="url(#clip0_46_22)">
<path opacity="0.18" d="M37.5756 3.21363C35.0079 3.69099 32.515 4.62803 29.9337 5.01971C23.2888 6.03019 16.1787 3.42987 10.0192 6.48715C3.921 9.51859 0.617557 17.2271 -1.25652 24.6295C-2.39892 29.1774 -3.21492 33.9075 -2.94972 38.6389C-2.68316 43.3703 -1.23884 48.1249 1.62124 51.51C4.16988 54.5373 7.68684 56.2781 11.2759 56.9948C14.8649 57.7115 18.5478 57.4436 22.1586 56.9105C25.2091 56.4576 28.2487 55.8103 31.1754 54.71C34.8705 53.3242 38.3657 51.2257 42.1343 50.1445C45.6553 49.13 49.3328 49.0225 52.8606 48.0379C56.3884 47.0532 59.9476 44.9466 61.6217 41.1998C62.9722 38.1779 62.8824 34.5045 62.0202 31.25C61.158 27.9955 59.5912 25.0647 58.0395 22.1775C56.2035 18.7543 54.3675 15.3312 52.5288 11.9081C49.2131 5.76635 43.9064 2.04267 37.5769 3.21499L37.5756 3.21363Z" fill="#D2E197"/>
<path opacity="0.18" d="M30.6297 47.9402C43.1619 47.9402 53.3213 46.603 53.3213 44.9536C53.3213 43.3042 43.1619 41.967 30.6297 41.967C18.0975 41.967 7.93811 43.3042 7.93811 44.9536C7.93811 46.603 18.0975 47.9402 30.6297 47.9402Z" fill="#88AF46"/>
<path d="M54.4447 32.0527C54.4447 41.9236 43.9822 49.9299 31.0785 49.9299H30.7467C17.9912 49.7939 7.70963 41.8447 7.70963 32.0568C7.70963 31.8406 7.70963 31.623 7.72731 31.4067C7.75995 30.671 7.85379 29.9407 8.00475 29.2199C9.78635 23.9104 19.4383 19.8535 31.0785 19.8535C32.7622 19.8522 34.4459 19.9392 36.1214 20.1133C45.4156 21.0884 52.6345 24.6992 54.1509 29.2144C54.3019 29.9311 54.393 30.6601 54.4256 31.3918C54.4406 31.6107 54.4447 31.8297 54.4447 32.05V32.0527Z" fill="#D7F16E"/>
<path d="M54.4446 30.9797C54.4446 31.1212 54.4446 31.2544 54.427 31.3931C53.9741 37.354 43.6939 42.1195 31.0771 42.1195C18.4604 42.1195 8.17881 37.3527 7.72593 31.3931C7.71233 31.2544 7.70825 31.1198 7.70825 30.9797C7.70825 30.3772 7.80889 29.7775 8.00337 29.2076C9.78497 23.8982 19.4369 19.8413 31.0771 19.8413C42.7174 19.8413 52.3679 23.8982 54.1495 29.2076C54.344 29.7788 54.4433 30.3772 54.4446 30.9797Z" fill="white"/>
<path opacity="0.18" d="M52.7678 30.9798C52.7678 31.1076 52.7623 31.2355 52.7501 31.3633C52.3299 36.8958 42.7813 41.3185 31.0799 41.3185C19.3784 41.3185 9.82305 36.8958 9.40961 31.3633C9.40961 31.2355 9.39465 31.1104 9.39465 30.9798C9.39465 30.4208 9.48849 29.8646 9.66801 29.3356C11.3218 24.4083 20.2869 20.6438 31.0867 20.6438C41.8864 20.6438 50.8475 24.4083 52.5012 29.3356C52.6794 29.866 52.7705 30.4208 52.7678 30.9798Z" fill="#EBFF9A"/>
<path d="M40.793 26.3475C40.5767 27.3294 40.2626 28.3304 39.5799 29.0675C39.0848 29.5503 38.5095 29.9447 37.8812 30.233C37.0679 30.6492 36.2084 31.0368 35.2931 31.0544C35.0987 31.0694 34.9028 31.03 34.7301 30.9402C34.5683 30.8219 34.439 30.6655 34.3506 30.4846L33.6639 29.3191C33.4558 29.0131 33.313 28.6676 33.2477 28.3032C33.196 27.7877 33.4531 27.2913 33.7373 26.8575C35.2537 24.5278 37.6622 22.9284 39.4588 20.8055C40.0314 20.1309 40.5645 19.3693 41.2853 18.8416C41.5913 18.6254 42.0918 18.2351 42.3542 18.7247C42.5433 19.0783 42.1203 19.7392 42.0115 20.0806C41.3587 22.1152 41.2513 24.2694 40.7943 26.3475H40.793Z" fill="#9ECE4F"/>
<path d="M40.793 26.3475C40.5767 27.3294 40.2626 28.3304 39.5799 29.0675C39.0848 29.5503 38.5095 29.9447 37.8812 30.233C37.0679 30.6492 36.2084 31.0368 35.2931 31.0544C35.0987 31.0694 34.9028 31.03 34.7301 30.9402C34.5683 30.8219 34.439 30.6655 34.3506 30.4846L33.6639 29.3191C33.4558 29.0131 33.313 28.6676 33.2477 28.3032C33.196 27.7877 33.4531 27.2913 33.7373 26.8575C35.2537 24.5278 37.6622 22.9284 39.4588 20.8055C40.0314 20.1309 40.5645 19.3693 41.2853 18.8416C41.5913 18.6254 42.0918 18.2351 42.3542 18.7247C42.5433 19.0783 42.1203 19.7392 42.0115 20.0806C41.3587 22.1152 41.2513 24.2694 40.7943 26.3475H40.793Z" fill="url(#paint0_linear_46_22)"/>
<path d="M26.9808 21.2977C27.7043 20.2138 28.9175 19.5379 30.1469 19.0877C31.375 18.6376 32.6697 18.3601 33.8638 17.8243C35.0579 17.2884 36.1159 16.5241 37.2937 15.9801C38.4728 15.4361 39.8505 15.1301 41.0636 15.5898C41.9136 15.9121 42.6371 16.656 42.7582 17.555C42.9744 19.187 41.3275 20.4083 40.7127 21.9342C40.3428 22.8549 40.3578 23.8844 40.0627 24.831C39.3976 26.905 37.2978 28.2283 35.1721 28.7084C33.6421 29.0824 32.0387 29.0144 30.5454 28.5139C27.8798 27.5564 25.0891 24.1456 26.9808 21.2977Z" fill="#D7F16E"/>
<path d="M27.518 21.3591C28.1926 20.3446 29.3187 19.7258 30.4611 19.3042C31.6035 18.8839 32.803 18.6282 33.9127 18.1318C35.0225 17.6354 36.0044 16.9242 37.1006 16.4182C38.1967 15.911 39.4847 15.6294 40.6053 16.0565C41.3941 16.3557 42.0659 17.0466 42.1788 17.883C42.3828 19.3994 40.8501 20.5336 40.2803 21.9507C39.9335 22.817 39.9471 23.765 39.6669 24.6449C39.0495 26.572 37.0965 27.8001 35.1163 28.2448C33.6951 28.5943 32.2046 28.5318 30.8174 28.0653C28.3558 27.1745 25.7623 24.007 27.5194 21.3605L27.518 21.3591Z" fill="url(#paint1_linear_46_22)"/>
<path d="M32.667 26.912C34.511 26.912 36.0058 25.4171 36.0058 23.5732C36.0058 21.7292 34.511 20.2344 32.667 20.2344C30.823 20.2344 29.3282 21.7292 29.3282 23.5732C29.3282 25.4171 30.823 26.912 32.667 26.912Z" fill="#9ECE4F"/>
<path d="M32.667 26.912C34.511 26.912 36.0058 25.4171 36.0058 23.5732C36.0058 21.7292 34.511 20.2344 32.667 20.2344C30.823 20.2344 29.3282 21.7292 29.3282 23.5732C29.3282 25.4171 30.823 26.912 32.667 26.912Z" fill="url(#paint2_linear_46_22)"/>
<path d="M23.8705 15.0677C24.3342 15.4009 24.5709 15.9585 24.7871 16.4889C24.9816 16.9703 25.1774 17.5184 24.9626 17.9903C25.1516 18.314 25.2495 18.6839 25.2427 19.0593C25.1992 19.4292 24.8619 19.7923 24.4947 19.7094C24.2282 20.0929 24.4403 20.6124 24.6552 21.0286C25.2876 22.2417 25.9295 23.4684 26.8434 24.4952C27.2922 24.9984 27.8471 25.5791 27.7098 26.2292C27.5425 27.0792 26.347 27.2927 25.5705 26.9078C24.7953 26.5216 24.2554 25.7858 23.5359 25.3044C23.0518 25.0161 22.5445 24.7686 22.0195 24.5632C20.5222 23.8873 19.1785 22.9108 18.0728 21.6936C17.4241 22.1288 16.5455 21.9561 16.109 21.3074C15.841 20.9089 15.7934 20.4002 15.9838 19.9596C15.5228 20.1976 14.9312 19.6794 14.9951 19.1667C15.0604 18.6526 15.6058 18.3004 16.1266 18.3004C15.9267 17.6095 15.8274 16.4821 16.8352 16.7051C16.7862 16.3882 16.7862 16.0646 16.8352 15.7477C17.4091 15.832 17.4853 16.5705 18.149 16.4304C18.5828 16.3366 18.9459 15.6416 19.2084 15.3465C19.9523 14.4924 21.874 13.335 22.3595 15.2186C22.743 14.7753 23.4054 14.7086 23.8705 15.0663V15.0677Z" fill="#A2D056"/>
<path d="M22.6818 22.7722C22.5948 22.6756 22.5309 22.56 22.4982 22.4335C22.437 22.1058 22.7621 21.8419 22.8478 21.5196C22.9715 21.049 22.5594 20.5254 22.7743 20.0875C23.0042 20.3704 23.1864 20.69 23.3115 21.0327C23.389 20.5499 23.3183 20.0549 23.1116 19.6115C23.3822 19.3898 23.574 19.0852 23.6556 18.7452C23.7032 18.3984 23.4394 17.9931 23.0939 18.0258C23.215 17.751 23.3387 17.4382 23.2286 17.1594C23.0871 16.8086 22.607 16.5869 22.6655 16.2142C23.0246 15.9844 23.4938 16.0238 23.8093 16.3094C24.0799 16.5678 24.1642 16.9595 24.2431 17.324C24.4267 16.8888 24.4267 16.3965 24.2431 15.9613C24.1003 15.6322 23.7454 15.3112 23.4135 15.4581C23.3102 15.2418 23.011 15.2854 22.792 15.3493L22.0059 15.5655C21.9746 14.9685 21.4646 14.5088 20.8676 14.5401C20.8254 14.5428 20.7833 14.5469 20.7425 14.5537L21.364 15.8144C21.4742 16.0306 21.5802 16.2673 21.704 16.489C21.995 17.0262 22.3296 17.7007 21.9814 18.2026C21.3395 17.713 20.8159 17.0846 20.4474 16.3666C20.4079 16.2714 20.3494 16.187 20.276 16.115C20.1468 16.0198 19.9809 15.9885 19.8258 16.0306C19.3403 16.1286 19.0221 16.5814 18.7419 16.9976C18.6114 17.1717 18.5202 17.373 18.4754 17.5865C18.4019 18.1332 18.9214 18.5725 19.052 19.1029C19.1826 19.6333 18.8874 20.2752 19.0819 20.8165C19.1962 21.1388 19.4695 21.3782 19.6191 21.6828C19.7687 21.9888 19.7864 22.2989 19.9047 22.5926C20.0734 22.9612 20.3331 23.2822 20.6582 23.5242C21.7543 24.4273 23.1551 24.9019 24.2526 25.8022C24.6022 26.1368 24.9816 26.4387 25.3882 26.7012C25.7854 26.9174 26.3525 27.029 26.7442 26.7515C25.138 25.9954 23.7467 24.192 22.6805 22.7708L22.6818 22.7722Z" fill="url(#paint3_linear_46_22)"/>
<path d="M19.086 16.2114C19.5947 16.4711 19.9143 16.9852 20.208 17.4775C20.4746 17.9114 20.752 18.4336 20.6133 18.9341C20.8486 19.2251 20.9995 19.5747 21.0471 19.9459C21.0621 20.3186 20.7833 20.7307 20.4107 20.7089C20.2067 21.1278 20.495 21.6106 20.7724 21.9873C21.583 23.0875 22.4058 24.2014 23.4666 25.0691C23.9888 25.5029 24.6239 25.9775 24.5981 26.6494C24.5641 27.5157 23.4149 27.9101 22.5894 27.649C21.7639 27.3865 21.1151 26.7432 20.3318 26.3787C19.8095 26.1679 19.2696 25.9993 18.7202 25.8783C17.1385 25.4403 15.6629 24.6828 14.3859 23.6506C13.8133 24.1823 12.9184 24.1497 12.3867 23.5785C12.0562 23.2235 11.9311 22.7231 12.0548 22.2539C11.6346 22.5599 10.9709 22.141 10.9559 21.6228C10.941 21.1047 11.4265 20.6667 11.9392 20.596C11.6359 19.9459 11.3653 18.8457 12.3962 18.9123C12.2996 18.6063 12.2507 18.2867 12.2507 17.9658C12.8314 17.9658 13.0218 18.6784 13.6528 18.4363C14.0649 18.2799 14.3206 17.5374 14.5327 17.1974C15.1379 16.2399 16.8556 14.8011 17.6267 16.5867C17.9409 16.0999 18.5787 15.938 19.0874 16.2168L19.086 16.2114Z" fill="#A5D15B"/>
<path d="M20.4583 25.866C20.038 25.6715 19.5919 25.4321 19.4165 24.9996C19.3771 24.8201 19.3036 24.6501 19.2003 24.4992C19.0833 24.3972 18.9378 24.3332 18.7841 24.3128L17.1548 23.9402C17.0678 23.9252 16.9835 23.8967 16.9059 23.8559C16.74 23.7376 16.6489 23.5404 16.6652 23.3377C16.6829 23.1392 16.7373 22.9447 16.823 22.7652C16.9739 22.8236 17.1426 22.7488 17.2011 22.5979C17.2487 22.4768 17.2092 22.3381 17.1059 22.2592C17.3629 22.3136 17.6267 22.3136 17.8838 22.2592C18.1449 22.1994 18.3435 21.9845 18.3815 21.7193C18.5271 21.7397 18.6617 21.6364 18.6807 21.4908C18.6848 21.465 18.6835 21.4392 18.6807 21.4133C18.7583 21.4922 18.8847 21.4922 18.9623 21.4133C18.9922 21.3848 19.0112 21.3467 19.018 21.3059L19.1935 21.3929C19.4423 21.1209 19.6599 20.8217 19.8435 20.5021C19.9945 20.6055 20.1999 20.5796 20.3209 20.4409C20.4351 20.3036 20.4909 20.1268 20.4787 19.9486C20.4759 19.746 20.4283 19.5474 20.3399 19.3652L20.5439 19.5447L20.3767 19.0551C20.3495 18.9857 20.3318 18.9123 20.3263 18.8388C20.3318 18.7477 20.3495 18.658 20.3767 18.5696C20.5127 17.948 20.0367 17.3714 19.596 16.909C19.9904 17.5713 20.1291 18.3547 19.9863 19.1122C19.917 19.0102 19.7524 19.0401 19.6654 19.1272C19.5919 19.2251 19.5239 19.3284 19.4614 19.4345C19.4002 19.5148 19.3159 19.576 19.2615 19.6508C19.1935 19.731 19.1935 19.8493 19.2615 19.9309L17.5275 19.886C17.8253 19.7908 18.0973 19.6263 18.319 19.4046C18.5461 19.1693 18.5747 18.8062 18.3883 18.5383C18.7215 18.3914 18.7215 17.8882 18.4767 17.608C18.2319 17.3279 17.8525 17.2504 17.4948 17.1742C17.673 17.0518 17.7206 16.8084 17.6009 16.6275C17.4771 16.4588 17.3085 16.3283 17.1154 16.248C17.3479 16.5608 17.5655 16.8845 17.7655 17.2191C17.843 17.3279 17.8919 17.4557 17.9042 17.589C17.9151 17.7264 17.8226 17.8515 17.6879 17.8814C17.8307 17.9616 17.9953 18.0976 17.9586 18.2472C17.9436 18.3125 17.896 18.3669 17.8783 18.4308C17.8702 18.522 17.8811 18.6144 17.9083 18.7015C17.964 19.0347 17.7029 19.3271 17.4744 19.5814C17.3602 19.6943 17.2731 19.8316 17.2187 19.9826C17.1657 20.1376 17.2119 20.309 17.3357 20.4164C16.7631 20.4273 16.1906 20.3539 15.6384 20.2002C15.8193 19.9459 15.9254 19.6453 15.9444 19.3339C15.9295 19.0238 15.6534 18.7056 15.3487 18.7681C15.312 18.9381 15.3175 19.1136 15.3637 19.2822C14.8523 19.2985 14.341 19.2387 13.8473 19.104L14.5327 20.5252C14.3233 20.5511 14.156 20.7129 14.1234 20.9224C14.0948 21.1264 14.1125 21.3344 14.1751 21.5316L12.5757 20.9142L12.7076 21.348C12.4261 21.2909 12.1895 21.0978 12.0793 20.8326C11.8699 21.042 11.7298 21.31 11.6767 21.6024C11.6523 21.7003 11.6523 21.8036 11.6767 21.9016C11.7937 22.2266 12.2534 22.2184 12.5907 22.1464C12.6219 22.4415 12.6151 22.7393 12.5716 23.0331C12.5254 23.3282 12.6043 23.6301 12.7879 23.8654C12.8531 23.9375 12.9415 23.9837 13.0367 24C13.2679 24.0286 13.4488 23.8069 13.5807 23.6124C13.7439 23.8192 13.9996 23.9307 14.2607 23.9089C14.5178 23.8872 14.7707 23.8219 15.006 23.7158C15.7363 24.7603 17.0977 25.0935 18.2891 25.545C19.0316 25.8252 19.7443 26.1747 20.4188 26.5922C20.9819 26.939 21.5286 27.3361 22.1528 27.5388C22.7771 27.7428 23.5359 27.7169 24.031 27.279C23.7195 27.1838 23.3809 27.2164 23.0776 27.1253C22.826 27.0192 22.5812 26.8982 22.3446 26.7595L20.4528 25.8619L20.4583 25.866Z" fill="url(#paint4_linear_46_22)"/>
<path d="M15.2032 19.168C15.7472 19.3435 16.1443 19.8004 16.5034 20.2384C16.8366 20.6368 17.1902 21.1047 17.1317 21.6147C17.4132 21.8636 17.6186 22.1845 17.7274 22.5449C17.8008 22.9108 17.5887 23.3596 17.2187 23.3963C17.0827 23.8424 17.435 24.2626 17.7763 24.604C18.7515 25.5641 19.7415 26.5324 20.9234 27.222C21.5068 27.562 22.2099 27.9346 22.2888 28.6051C22.3922 29.4714 21.3205 30.0372 20.4637 29.9052C19.6083 29.7733 18.8671 29.2416 18.032 29.0063C17.4826 28.8798 16.9236 28.7996 16.3606 28.7656C14.7272 28.582 13.1483 28.0665 11.723 27.2492C11.2456 27.8666 10.3575 27.9795 9.74147 27.5021C9.35387 27.2016 9.14987 26.7228 9.20155 26.2346C8.83571 26.6032 8.11763 26.2958 8.01563 25.7844C7.91363 25.2731 8.32979 24.7685 8.82619 24.6162C8.42363 24.0205 7.98299 22.9774 9.01251 22.8822C8.86835 22.5952 8.76907 22.2879 8.72011 21.9696C9.29267 21.8744 9.58643 22.5531 10.178 22.2144C10.5588 21.9982 10.6962 21.2203 10.8526 20.8517C11.2987 19.8113 12.7702 18.1195 13.8106 19.7678C14.0445 19.232 14.6538 18.9695 15.2046 19.1694L15.2032 19.168Z" fill="#A2D056"/>
<path d="M18.0701 28.4841C17.6362 28.359 17.1399 28.1999 16.9059 27.8014C16.8407 27.63 16.7414 27.4736 16.6149 27.3404C16.4843 27.2601 16.3347 27.218 16.1811 27.2207L14.4974 27.1037C14.409 27.1037 14.3206 27.0888 14.2376 27.0588C14.0554 26.9704 13.9343 26.7909 13.9194 26.5883C13.9058 26.3884 13.9275 26.1884 13.9847 25.9967C14.1424 26.032 14.2988 25.9341 14.3342 25.7764C14.3641 25.6472 14.3029 25.5152 14.1859 25.4527C14.4471 25.4704 14.7095 25.4323 14.9557 25.3425C15.2046 25.2419 15.3664 24.9998 15.3637 24.7319C15.5106 24.7292 15.6275 24.6068 15.6248 24.4599C15.6248 24.4327 15.6194 24.4068 15.6112 24.381C15.6983 24.4463 15.822 24.43 15.8873 24.3429C15.9131 24.3089 15.9281 24.2654 15.9267 24.2232L16.1131 24.2817C16.3143 23.9744 16.4816 23.6439 16.6108 23.2998C16.7754 23.3773 16.9739 23.3216 17.0719 23.1679C17.163 23.0128 17.1902 22.8292 17.1494 22.6538C17.114 22.4552 17.0365 22.2662 16.9195 22.1016L17.1494 22.2472L16.9087 21.7902C16.8692 21.7263 16.8406 21.6569 16.8243 21.5848C16.8134 21.4937 16.8134 21.4026 16.8243 21.3115C16.8583 20.675 16.2994 20.1827 15.7907 19.7951C16.2831 20.3799 16.5483 21.1238 16.5347 21.8881C16.4517 21.797 16.2926 21.8541 16.2205 21.9534C16.1634 22.0622 16.113 22.1737 16.0682 22.2866C16.0206 22.375 15.9471 22.4498 15.905 22.5423C15.8533 22.6334 15.8751 22.7476 15.9553 22.8156L14.239 23.0319C14.5205 22.8932 14.7639 22.6878 14.9475 22.4335C15.1339 22.1656 15.1053 21.8038 14.8809 21.5672C15.1842 21.3672 15.0971 20.8613 14.8224 20.6328C14.5477 20.4044 14.1465 20.3812 13.7847 20.3636C13.9411 20.2153 13.9493 19.9678 13.8024 19.8087C13.6528 19.6618 13.4665 19.5584 13.2625 19.5122C13.5399 19.7856 13.8024 20.0739 14.0513 20.3785C14.1451 20.4737 14.2118 20.592 14.2458 20.7212C14.2757 20.8545 14.2063 20.9919 14.0785 21.0436C14.2322 21.0993 14.4144 21.2 14.4035 21.3618C14.4035 21.4284 14.36 21.4896 14.3532 21.5563C14.36 21.6474 14.3845 21.7372 14.4267 21.8188C14.5327 22.1397 14.3206 22.4688 14.1383 22.7572C14.0418 22.885 13.9751 23.0332 13.9452 23.191C13.918 23.3528 13.9901 23.516 14.1288 23.6031C13.5644 23.6996 12.9878 23.7146 12.4193 23.6466C12.5594 23.3664 12.6165 23.0523 12.5839 22.7408C12.5213 22.4348 12.1976 22.1642 11.9079 22.2744C11.8971 22.4484 11.9297 22.6212 12.0031 22.7789C11.4986 22.8755 10.9831 22.8972 10.4731 22.8442L11.3748 24.1444C11.1722 24.2042 11.0335 24.3905 11.0321 24.6013C11.0362 24.8067 11.0865 25.0093 11.179 25.1929L9.50209 24.838L9.70201 25.2405C9.41505 25.2296 9.15121 25.076 9.00025 24.8312C8.82617 25.0719 8.72961 25.3588 8.72281 25.654C8.71601 25.7546 8.73505 25.8552 8.77857 25.9464C8.94585 26.2496 9.39873 26.1626 9.72105 26.0456C9.79857 26.3326 9.83801 26.6264 9.84073 26.9228C9.84481 27.2234 9.97401 27.5076 10.1957 27.7089C10.2719 27.7674 10.3657 27.8 10.4623 27.8028C10.6989 27.8028 10.8417 27.5471 10.9396 27.3349C11.1341 27.5117 11.4034 27.5824 11.6591 27.5212C11.9093 27.4573 12.1473 27.3526 12.3635 27.2112C13.2516 28.1278 14.647 28.2448 15.8954 28.5113C16.672 28.6718 17.4323 28.9057 18.1639 29.209C18.7746 29.462 19.3757 29.768 20.0299 29.8591C20.684 29.9502 21.4238 29.8183 21.8441 29.3069C21.5231 29.262 21.194 29.3464 20.8799 29.3069C20.6133 29.2416 20.3522 29.16 20.0978 29.0594L18.0674 28.4828L18.0701 28.4841Z" fill="url(#paint5_linear_46_22)"/>
<path d="M13.1904 20.5349C13.389 20.7199 13.5386 20.9511 13.6242 21.2095C13.7466 20.9905 13.8065 20.7416 13.7929 20.49C13.7725 20.3037 13.7099 20.1256 13.6106 19.9678C13.4012 19.6237 13.053 19.3857 12.6546 19.3177C12.2506 19.2511 11.8399 19.3993 11.5706 19.708C11.3544 20.0086 11.2266 20.3635 11.2048 20.7335C11.519 20.5811 11.6822 20.3785 12.0453 20.3391C12.4098 20.2996 12.8749 20.2847 13.189 20.5363L13.1904 20.5349Z" fill="url(#paint6_linear_46_22)"/>
<path d="M16.2871 24.4829L16.9617 25.1874C17.0515 25.2907 17.1562 25.3805 17.2718 25.4539C17.4078 25.5178 17.5479 25.5709 17.692 25.6144C17.9477 25.7314 18.1803 25.8946 18.3775 26.0958C19.3567 26.9989 20.2135 28.076 21.3871 28.6962C21.6034 28.809 21.8536 28.9654 21.821 29.2034C21.9543 28.877 21.9107 28.5058 21.7067 28.2202C21.4946 27.9414 21.2375 27.6993 20.9479 27.5034C20.3835 27.0696 19.834 26.6167 19.3009 26.1421C18.5855 25.5355 17.945 24.8474 17.3915 24.0898C17.3153 23.9933 17.2609 23.8804 17.2351 23.7607C17.2351 23.5866 17.2759 23.4153 17.3588 23.263C17.556 22.7339 17.522 22.145 17.265 21.6418C17.7804 22.6469 16.8162 23.7308 16.2871 24.4856V24.4829Z" fill="url(#paint7_linear_46_22)"/>
<path d="M41.7273 35.1534C41.6035 35.673 41.3832 36.1653 41.0772 36.6032C40.4271 37.411 39.3242 37.63 38.345 37.9578C37.5494 38.2216 36.7864 38.5902 35.9609 38.7602C35.1639 38.8907 34.3547 38.9288 33.5496 38.8703L29.8246 38.7425C29.4383 38.7289 29.0535 38.7166 28.6699 38.6772C28.4265 38.6541 28.1831 38.616 27.9437 38.5643C27.2759 38.397 26.6272 38.1618 26.0084 37.8598C25.2373 37.5171 24.4594 37.154 23.8419 36.5787C22.7893 35.6118 22.3255 34.1797 21.5993 32.9448C21.0621 32.0281 20.1863 31.0272 20.1849 29.9106C20.1849 29.1586 21.0975 28.5751 21.6387 28.1766C22.0726 27.8598 22.6247 27.6408 22.8995 27.158C22.9824 27.0152 23.0314 26.852 23.1157 26.7242C23.5074 26.1353 24.3791 26.2536 25.0659 26.1285C25.6875 26.0115 26.2315 25.6579 26.7999 25.405C27.3671 25.152 28.0675 24.9956 28.6264 25.2907C28.7461 25.3655 28.8726 25.4281 29.0031 25.4798C29.1459 25.507 29.2928 25.507 29.437 25.4798L30.8038 25.3125L30.9711 25.2907C31.4715 25.2254 32.0223 25.1765 32.4385 25.4621C32.6398 25.5967 32.788 25.8007 32.9975 25.9218C33.5714 26.2604 34.4363 25.9041 34.8974 26.3855C35.0171 26.5433 35.1245 26.7092 35.2183 26.8833C35.5325 27.3321 36.1132 27.4858 36.6096 27.717C38.0811 28.4038 38.9719 29.9052 39.7648 31.325C40.1592 32.0295 40.6039 32.7884 41.3492 33.1066C41.5111 33.1515 41.6593 33.2331 41.7831 33.3474C41.8429 33.429 41.8837 33.5228 41.9027 33.6221C42.0387 34.1158 41.8837 34.6489 41.73 35.1521L41.7273 35.1534Z" fill="white"/>
<path d="M19.8422 28.8689C17.7505 27.7849 16.4721 27.7849 14.1261 27.6775C13.2598 27.6326 12.3758 27.7292 11.6291 28.1549C10.1726 28.9831 9.61634 30.9225 10.0148 32.549C10.4133 34.1756 11.5788 35.5138 12.8858 36.5624C13.714 37.2261 14.6103 37.8 15.5595 38.276C18.61 39.7924 22.0603 40.2412 25.4535 40.6601C29.1378 41.1157 32.8696 41.5699 36.5511 41.0939C36.0466 40.3989 35.0347 40.3921 34.1671 40.4003C30.8106 40.4343 27.5085 39.6374 24.2445 38.8472C22.3963 38.3984 20.5385 37.9455 18.7664 37.256C25.7378 36.4563 32.3147 41.5359 39.3119 41.0286C38.2974 40.1623 36.9279 39.8699 35.6277 39.5639C32.0305 38.7139 28.5135 37.5538 25.1149 36.0973L35.931 37.5661C34.8824 36.4658 33.3062 36.0973 31.8415 35.6879C29.7919 35.114 27.7968 34.3633 25.8751 33.4466C25.221 33.1597 24.6049 32.7911 24.0419 32.3518C23.3251 31.7561 22.7975 30.9687 22.1719 30.2778C21.5463 29.5869 20.7575 28.9668 19.8299 28.8757" fill="#E8F9B7"/>
<path d="M23.438 33.4629C24.9014 35.8117 26.8163 38.1005 29.4669 38.8934C30.9357 39.3273 32.5011 39.2701 34.0351 39.2049C33.4177 40.0236 32.3011 40.2888 31.2893 40.3908C26.9278 40.8464 22.5513 39.5367 18.591 37.6545C16.4667 36.644 14.3219 35.371 13.1741 33.3201C12.8994 32.8836 12.7498 32.3817 12.7403 31.8663C12.7756 31.4909 12.8735 31.1251 13.0313 30.7824C13.2095 30.3363 13.4175 29.8657 13.8174 29.5965C14.1642 29.3965 14.5572 29.2945 14.9571 29.3C16.4367 29.2293 17.911 29.5189 19.2519 30.1473C20.1767 30.5811 21.1831 30.9401 21.9733 31.6011C22.5894 32.1193 23.0205 32.7816 23.438 33.4629Z" fill="url(#paint8_linear_46_22)"/>
<path d="M21.5204 33.2033C22.9838 35.5507 24.8986 37.8382 27.5466 38.6311C29.0181 39.0649 30.5807 39.0105 32.1162 38.9425C31.4987 39.7639 30.3822 40.0264 29.369 40.1298C25.0088 40.5854 20.6337 39.2743 16.672 37.3907C14.5477 36.3803 12.403 35.1087 11.2551 33.0564C10.9804 32.6199 10.8308 32.118 10.8213 31.6026C10.8566 31.2272 10.9546 30.8614 11.1123 30.5187C11.2905 30.0699 11.4986 29.602 11.8984 29.3314C12.2438 29.1328 12.6369 29.0335 13.0367 29.0403C14.5164 28.9683 15.9906 29.2579 17.3316 29.8849C18.2564 30.3187 19.2628 30.6778 20.053 31.3387C20.6391 31.8759 21.1342 32.5056 21.5204 33.2006V33.2033Z" fill="#9ECE4F"/>
<path d="M21.0975 33.7186C22.5581 36.066 24.473 38.3535 27.1236 39.1464C28.5924 39.5802 30.1578 39.5258 31.6919 39.4578C31.0744 40.2792 29.9579 40.5417 28.946 40.6451C24.5845 41.1007 20.208 39.7896 16.2477 37.9088C14.1234 36.8983 11.9787 35.6253 10.8308 33.5744C10.5561 33.1379 10.4051 32.6347 10.397 32.1179C10.4323 31.7425 10.5303 31.3767 10.688 31.034C10.8662 30.5852 11.0743 30.1173 11.4741 29.8467C11.8209 29.6481 12.2139 29.5461 12.6138 29.5516C14.0935 29.4795 15.5677 29.7692 16.9087 30.3961C17.8335 30.83 18.8412 31.189 19.63 31.85C20.2407 32.3722 20.6718 33.0359 21.0975 33.7159V33.7186Z" fill="url(#paint9_linear_46_22)"/>
<path opacity="0.18" d="M23.7046 30.2411C23.6896 30.0575 23.7495 29.8753 23.8719 29.7366C23.8977 29.9215 23.8365 30.1079 23.7046 30.2411Z" fill="#68E1FD"/>
<path opacity="0.18" d="M37.7398 37.5375C35.8331 37.8871 33.9005 37.5484 31.987 37.4491C31.3219 37.4124 29.7457 37.1758 29.1704 37.5688C28.8386 37.7851 28.8345 38.2543 28.6849 38.6745C28.4415 38.6514 28.198 38.6133 27.9587 38.5616C27.2909 38.3943 26.6422 38.1591 26.0234 37.8571C25.2523 37.5144 24.4743 37.1513 23.8569 36.576C22.8043 35.6091 22.3405 34.177 21.6143 32.9421C21.0771 32.0255 20.2012 31.0245 20.1999 29.9079C20.1999 29.1559 21.1124 28.5724 21.6537 28.1739C22.0875 27.8571 22.6397 27.6381 22.9144 27.1553C22.9974 27.0125 23.0463 26.8493 23.1307 26.7215C23.5223 26.1326 24.3941 26.2509 25.0809 26.1258C25.7024 26.0088 26.2464 25.6552 26.8149 25.4023C27.382 25.1493 28.0824 24.9929 28.6414 25.288C28.7611 25.3628 28.8875 25.4254 29.0181 25.4771C29.1609 25.5043 29.3078 25.5043 29.4519 25.4771L30.8187 25.3098C30.7507 25.711 30.7725 26.1217 30.8813 26.512C30.1755 26.2958 29.4098 26.391 28.7774 26.7718C28.7067 27.0628 28.8848 27.3552 29.1759 27.4259C29.2194 27.4368 29.2643 27.4423 29.3078 27.4409C29.1595 27.5687 29.0535 27.7374 29.0018 27.9264L29.9429 27.7102C29.369 28.1331 28.7271 28.4568 28.0443 28.6663C28.0294 28.8199 28.0117 28.9777 27.994 29.1341C27.4718 29.2755 26.9468 29.4197 26.4232 29.5679C26.9754 29.0987 27.5275 28.6309 28.0811 28.1658C28.2864 28.0271 28.4387 27.8244 28.5149 27.5891C28.3435 27.6775 28.1708 27.7605 27.9967 27.8475C28.2483 27.6055 28.4999 27.3035 28.4687 26.9554C28.4387 26.6059 27.9355 26.3488 27.7302 26.6276C27.4636 27.0519 26.9373 27.2315 26.4667 27.0615C26.1349 26.9336 25.663 26.6779 25.5107 27.0003C25.4671 27.0914 25.4767 27.2056 25.4114 27.2859C25.3311 27.3552 25.2264 27.3865 25.1203 27.3729L23.9045 27.3987L24.1683 27.7455C24.0527 27.7034 23.9263 27.7088 23.8147 27.7605C23.7127 27.8299 23.7127 28.023 23.8338 28.0447C23.3483 28.0502 22.9593 28.45 22.9647 28.9355C22.9647 29.0008 22.9729 29.0647 22.9892 29.1287C23.5183 28.9151 24.1167 28.9532 24.6144 29.232C24.5192 29.1001 24.5478 28.9165 24.6797 28.8199C24.6906 28.8118 24.7028 28.805 24.7151 28.7982C24.8687 28.7234 25.0428 28.6975 25.2115 28.7247C25.206 28.3385 25.4916 28.0094 25.8751 27.9604C25.7024 28.2569 25.5311 28.5493 25.3597 28.8471L25.7283 29.1096C25.5052 29.2334 25.4005 29.4945 25.4753 29.7379C24.9163 29.6074 24.337 29.5938 23.7726 29.6985C23.5727 29.7135 23.3891 29.8141 23.268 29.9732C23.1701 30.1487 23.3075 30.4302 23.4992 30.3812C23.5727 30.3513 23.6379 30.3064 23.6923 30.2493C23.6951 30.3023 23.7032 30.354 23.7182 30.4057C24.3519 30.437 24.9313 30.777 25.2659 31.3155C24.9748 31.3767 24.6158 31.5127 24.6049 31.8079C24.594 32.103 25.0129 32.2893 25.3284 32.2417C25.6439 32.1941 25.954 32.0255 26.2736 32.0703C26.2179 32.2866 26.1607 32.5164 26.1023 32.7395C26.445 32.768 26.7877 32.7898 27.1291 32.8156C27.28 33.1964 27.601 33.4834 27.9954 33.5908C28.1423 33.3895 28.4238 33.3447 28.6251 33.4915C28.64 33.5024 28.6536 33.5133 28.6672 33.5269C28.5639 33.8805 29.1337 34.1035 29.4343 33.8873C29.7348 33.6711 29.8219 33.2671 29.9456 32.919C30.0694 32.5695 30.3251 32.1887 30.6977 32.1968C30.7888 32.1968 30.8759 32.2308 30.9425 32.292C31.1329 32.4919 30.9289 32.8143 30.7263 32.9829C30.5223 33.1515 30.2475 33.3841 30.3359 33.6466L31.239 33.2073C31.3083 33.5432 30.9806 33.8125 30.7127 34.026C30.4447 34.2395 30.1795 34.6095 30.374 34.8923C30.8296 34.5591 31.5939 35.0283 31.5028 35.5832C31.8578 35.4377 32.2427 35.3819 32.6235 35.42C32.5201 35.6784 32.4072 35.9341 32.3066 36.1871C33.7319 36.3734 35.1517 36.6209 36.5566 36.9255C37.0067 37.0248 37.4977 37.1595 37.7398 37.5389V37.5375Z" fill="#E8F9B7"/>
<path d="M40.691 26.8969L41.2051 26.3461L41.6389 25.8797C42.9866 24.4353 44.3358 22.9897 45.6849 21.5453C45.9011 21.3141 46.1786 21.0598 46.4886 21.1115C46.6437 21.1577 46.7838 21.2421 46.898 21.3563C47.7711 22.088 48.7231 22.719 49.7363 23.2372C50.4476 23.6017 51.216 23.9349 51.6866 24.5741C51.9545 24.8991 52.0606 25.3289 51.9722 25.7423C51.8049 26.3271 51.1684 26.6086 50.6543 26.9364C49.6289 27.5865 48.9312 28.6309 48.1084 29.5245C46.9361 30.7988 45.489 31.7821 44.0542 32.7531L42.0319 34.1253C41.8102 34.3103 41.5369 34.4218 41.2499 34.4436C40.8378 34.4286 40.5278 34.0519 40.3836 33.6657C40.2394 33.2794 40.215 32.8578 40.0545 32.4784C39.671 31.5685 38.2022 30.9076 38.2647 29.8277C38.3409 28.82 40.0436 27.5919 40.6923 26.8956L40.691 26.8969Z" fill="#9ECE4F"/>
<path d="M40.1429 26.0224L40.657 25.4716L41.0908 25.0051C42.4386 23.5608 43.7877 22.1151 45.1368 20.6708C45.3531 20.4396 45.6305 20.1853 45.9406 20.237C46.0956 20.2832 46.2357 20.3675 46.3499 20.4818C47.2231 21.2135 48.1751 21.8445 49.1883 22.3627C49.8995 22.7271 50.6707 23.0576 51.1385 23.6995C51.4064 24.0246 51.5125 24.4543 51.4268 24.8678C51.2582 25.4526 50.6203 25.7341 50.1076 26.0619C49.0822 26.7119 48.3872 27.7564 47.5631 28.6499C46.388 29.9243 44.941 30.9075 43.5089 31.8786L41.4866 33.2481C41.2649 33.4344 40.9902 33.5459 40.7019 33.5663C40.2925 33.5527 39.9797 33.176 39.8355 32.7911C39.69 32.4049 39.6669 31.9833 39.5064 31.6039C39.1256 30.694 37.6541 30.0303 37.718 28.9532C37.7915 27.9455 39.4955 26.7174 40.1429 26.0211V26.0224Z" fill="#9ECE4F"/>
<path d="M40.1429 26.0224L40.657 25.4716L41.0908 25.0051C42.4386 23.5608 43.7877 22.1151 45.1368 20.6708C45.3531 20.4396 45.6305 20.1853 45.9406 20.237C46.0956 20.2832 46.2357 20.3675 46.3499 20.4818C47.2231 21.2135 48.1751 21.8445 49.1883 22.3627C49.8995 22.7271 50.6707 23.0576 51.1385 23.6995C51.4064 24.0246 51.5125 24.4543 51.4268 24.8678C51.2582 25.4526 50.6203 25.7341 50.1076 26.0619C49.0822 26.7119 48.3872 27.7564 47.5631 28.6499C46.388 29.9243 44.941 30.9075 43.5089 31.8786L41.4866 33.2481C41.2649 33.4344 40.9902 33.5459 40.7019 33.5663C40.2925 33.5527 39.9797 33.176 39.8355 32.7911C39.69 32.4049 39.6669 31.9833 39.5064 31.6039C39.1256 30.694 37.6541 30.0303 37.718 28.9532C37.7915 27.9455 39.4955 26.7174 40.1429 26.0211V26.0224Z" fill="url(#paint10_linear_46_22)"/>
<path d="M40.8406 26.206C41.1506 26.8928 41.4648 27.6803 41.1697 28.3725C41.4784 27.9523 41.6525 27.4504 41.6702 26.9296C41.8878 27.1308 42.1856 27.2206 42.478 27.1744L41.8891 26.7555C41.8198 26.7052 41.7477 26.5991 41.817 26.5515C41.8442 26.5379 41.8755 26.5324 41.9054 26.5379L42.5406 26.5991C42.1625 26.3135 42.0591 25.7885 42.3026 25.3819C42.565 24.9766 43.0914 24.8528 43.4898 24.5822C43.2858 24.5577 43.1403 24.3714 43.1648 24.1674C43.1689 24.1348 43.177 24.1035 43.1893 24.0722C43.294 23.8587 43.5007 23.7132 43.7374 23.686C44.008 23.6207 44.2936 23.7036 44.4867 23.9022C44.6594 24.1184 44.6105 24.4965 44.3521 24.5849C44.4704 24.4938 44.6404 24.5156 44.7315 24.6339C44.7601 24.6706 44.7778 24.7128 44.7846 24.759C44.8022 24.948 44.6091 25.0949 44.4201 25.1276C44.231 25.1602 44.0406 25.1276 43.853 25.1384C43.4586 25.1901 43.1458 25.4948 43.0859 25.8878C43.2097 25.658 43.6 25.7464 43.717 25.9816C43.8067 26.2305 43.8013 26.5025 43.7034 26.7487C43.6843 26.4508 43.7387 26.153 43.8611 25.8824C43.9971 25.6076 44.3126 25.4703 44.6064 25.56C44.5778 25.4771 44.5275 25.4023 44.4609 25.3438L45.5829 25.0528C45.7774 25.0011 46.0167 24.8365 45.9106 24.6611L45.1504 24.9684C44.8118 24.8012 45.2701 24.2123 45.0362 23.9158C44.9886 23.8546 44.9151 23.8165 44.873 23.7485C44.8213 23.6329 44.8213 23.4996 44.873 23.384C44.3371 23.4806 43.7918 23.5132 43.2478 23.4833C43.1866 23.8111 42.8819 24.0246 42.6262 24.2368C42.3706 24.4489 42.1258 24.774 42.2346 25.0908H41.745C41.9462 25.2853 41.7885 25.6607 41.5287 25.7668C41.2567 25.8416 40.9684 25.8266 40.7059 25.7232C40.7277 26.0224 40.7358 26.3597 40.5278 26.5773C40.419 26.6698 40.2938 26.7432 40.1592 26.7936C39.6546 27.0438 39.2004 27.3879 38.8223 27.8054C38.9583 27.8 39.0753 27.8992 39.0957 28.0325C39.1106 28.1644 39.093 28.2977 39.0413 28.4201L38.6795 29.5476C39.0522 29.5557 39.4207 29.6373 39.7634 29.7856L39.6288 30.1881C39.9606 30.4098 40.3265 30.5757 40.7127 30.6804C40.6814 31.1184 40.9643 31.5155 41.3873 31.6311C41.1058 31.9507 40.9439 32.3573 40.9276 32.7816L40.7753 31.9153C40.2748 31.7766 40.151 31.0245 39.6478 30.8817C39.4806 30.8368 39.2779 30.8559 39.165 30.724C39.0046 30.5308 39.165 30.1541 38.9488 30.029C38.8278 29.9624 38.6605 30.029 38.5476 29.9488C38.4347 29.8685 38.4456 29.6904 38.5068 29.5652C38.587 29.4496 38.6442 29.3191 38.6754 29.1817C38.6754 29.0947 38.6618 29.0076 38.6346 28.9233C38.5299 28.3453 38.6945 27.751 39.0834 27.3117C39.4724 26.8806 39.9566 26.546 40.4978 26.3366C40.559 26.3026 40.6298 26.289 40.6991 26.2972C40.7794 26.3148 40.8378 26.3856 40.9154 26.4223C41.1316 26.5284 41.371 26.3448 41.6022 26.3774" fill="#789840"/>
<path d="M50.7414 25.9204C50.9726 25.5627 51.0827 25.1425 51.0582 24.7181C51.061 24.6229 51.0338 24.5291 50.9807 24.4489C50.929 24.3917 50.8665 24.3455 50.7971 24.3142L49.5405 23.6492C49.0835 23.3772 48.5898 23.1745 48.073 23.0467C47.9302 23.0141 47.782 23.0141 47.6392 23.0467C47.495 23.0929 47.3618 23.1664 47.2475 23.2629C44.7342 25.1465 42.5474 27.4653 39.879 29.1273C39.5594 29.3 39.267 29.5189 39.0127 29.7773C38.757 30.0412 38.6496 30.4165 38.7285 30.7769C38.8862 31.3128 39.5309 31.5249 40.0871 31.5617C42.051 31.6977 43.8883 30.7103 45.6849 29.9079C46.3241 29.6196 46.985 29.3408 47.4814 28.8349C47.7589 28.5493 47.9642 28.1984 48.2566 27.9264C48.987 27.2545 50.1457 27.1593 50.7876 26.41" fill="url(#paint11_linear_46_22)"/>
<path d="M42.1951 29.3693L42.7867 28.9015L43.2872 28.5098C44.839 27.2872 46.3921 26.0659 47.9466 24.846C48.1955 24.6515 48.5083 24.4434 48.8129 24.5536C48.9598 24.6216 49.0863 24.7263 49.1815 24.8568C49.9322 25.7136 50.7767 26.482 51.7002 27.1498C52.3503 27.6176 53.0561 28.0637 53.4342 28.7709C53.6504 29.134 53.6885 29.5747 53.5403 29.9691C53.2846 30.5199 52.61 30.7035 52.0538 30.9469C50.9427 31.4352 50.0927 32.36 49.1434 33.1134C47.7888 34.1973 46.2071 34.944 44.6431 35.6852L42.4345 36.7296C42.1883 36.8792 41.9014 36.9486 41.6131 36.9241C41.2078 36.8466 40.963 36.4277 40.8787 36.0252C40.7943 35.6226 40.8351 35.1996 40.7359 34.8012C40.4951 33.8437 39.1433 32.9638 39.3731 31.9084C39.5785 30.9116 41.4485 29.9541 42.1965 29.3707L42.1951 29.3693Z" fill="#9ECE4F"/>
<path d="M41.7885 28.4187L42.3801 27.9523L42.8806 27.5606C44.4323 26.3379 45.9855 25.1167 47.5399 23.8967C47.7888 23.7023 48.1016 23.4942 48.4063 23.6043C48.5531 23.6723 48.6796 23.7771 48.7748 23.9076C49.5255 24.7644 50.3701 25.5328 51.2935 26.2006C51.9436 26.6684 52.6495 27.1145 53.0275 27.8217C53.2438 28.1848 53.2819 28.6255 53.1336 29.0199C52.8779 29.5707 52.2034 29.7543 51.6471 29.9977C50.536 30.4859 49.686 31.4107 48.7367 32.1642C47.3822 33.2481 45.8005 33.9947 44.2365 34.7346L42.0279 35.7818C41.7817 35.9314 41.4934 35.9994 41.2064 35.9763C40.8011 35.8987 40.5563 35.4799 40.472 35.0773C40.3877 34.6747 40.4285 34.2518 40.3292 33.8533C40.0885 32.8959 38.7367 32.0159 38.9665 30.9606C39.1719 29.9555 41.0419 29.0076 41.7899 28.4215L41.7885 28.4187Z" fill="#9FCF51"/>
<path d="M41.7885 28.4187L42.3801 27.9523L42.8806 27.5606C44.4323 26.3379 45.9855 25.1167 47.5399 23.8967C47.7888 23.7023 48.1016 23.4942 48.4063 23.6043C48.5531 23.6723 48.6796 23.7771 48.7748 23.9076C49.5255 24.7644 50.3701 25.5328 51.2935 26.2006C51.9436 26.6684 52.6495 27.1145 53.0275 27.8217C53.2438 28.1848 53.2819 28.6255 53.1336 29.0199C52.8779 29.5707 52.2034 29.7543 51.6471 29.9977C50.536 30.4859 49.686 31.4107 48.7367 32.1642C47.3822 33.2481 45.8005 33.9947 44.2365 34.7346L42.0279 35.7818C41.7817 35.9314 41.4934 35.9994 41.2064 35.9763C40.8011 35.8987 40.5563 35.4799 40.472 35.0773C40.3877 34.6747 40.4285 34.2518 40.3292 33.8533C40.0885 32.8959 38.7367 32.0159 38.9665 30.9606C39.1719 29.9555 41.0419 29.0076 41.7899 28.4215L41.7885 28.4187Z" fill="url(#paint12_linear_46_22)"/>
<path d="M42.4495 28.707C42.6507 29.4333 42.8398 30.2588 42.4495 30.9007C42.818 30.5335 43.0682 30.0643 43.1648 29.5529C43.3511 29.7828 43.6313 29.9174 43.9278 29.9174L43.4096 29.4142C43.3471 29.353 43.2927 29.2361 43.3702 29.198C43.3987 29.1885 43.43 29.1885 43.4586 29.198L44.076 29.3557C43.7455 29.0157 43.7238 28.4813 44.0257 28.1168C44.3467 27.755 44.892 27.7115 45.3259 27.5061C45.1287 27.449 45.0144 27.2423 45.0715 27.0437C45.0797 27.0138 45.0933 26.9839 45.1096 26.9567C45.247 26.7622 45.4741 26.6493 45.7121 26.6602C45.9841 26.6398 46.2479 26.7636 46.4071 26.9853C46.5485 27.2165 46.437 27.5905 46.1704 27.6353C46.3064 27.5701 46.4696 27.6258 46.5349 27.7618C46.5512 27.7958 46.5607 27.8339 46.5621 27.872C46.5485 28.0624 46.3459 28.178 46.1432 28.1793C45.9406 28.1807 45.7706 28.1127 45.5802 28.1032C45.1844 28.095 44.8322 28.3493 44.7139 28.7274C44.8716 28.5112 45.2429 28.6662 45.3231 28.9165C45.3707 29.1762 45.3258 29.4441 45.1926 29.6726C45.2184 29.3748 45.3177 29.0892 45.4809 28.8389C45.6536 28.5833 45.9882 28.4908 46.267 28.6227C46.252 28.5357 46.2139 28.4541 46.1568 28.3861L47.3115 28.2691C47.5114 28.2473 47.782 28.1127 47.695 27.9332L46.9035 28.1345C46.5934 27.9182 47.1347 27.4069 46.9511 27.0764C46.9021 27.0165 46.8559 26.954 46.8151 26.8873C46.7838 26.7636 46.8055 26.6317 46.8763 26.5256C46.3309 26.5405 45.7869 26.4902 45.2538 26.376C45.145 26.6901 44.8199 26.8547 44.5262 27.0261C44.2324 27.1974 43.9482 27.4817 44.008 27.8081L43.5252 27.7319C43.6939 27.9481 43.4817 28.3017 43.2083 28.367C42.9282 28.3997 42.6453 28.3398 42.4019 28.1984C42.3774 28.4976 42.3352 28.8335 42.0959 29.0157C41.9735 29.0946 41.8374 29.1517 41.6946 29.1844C41.1547 29.3489 40.6502 29.6141 40.2082 29.9664C40.3442 29.9827 40.4448 30.0983 40.4448 30.2357C40.4394 30.3676 40.4013 30.4954 40.3319 30.6083L39.7947 31.6881C40.1592 31.7534 40.5087 31.8894 40.8215 32.0866L40.6271 32.4661C40.9208 32.7353 41.2567 32.9543 41.6212 33.1161C41.5233 33.5432 41.7409 33.9811 42.1407 34.1606C41.8143 34.4326 41.5926 34.8093 41.5124 35.2269L41.4934 34.3469C41.0215 34.1307 41.0119 33.3718 40.54 33.1556C40.3823 33.0821 40.1755 33.0713 40.0871 32.9244C39.9566 32.7081 40.1783 32.3613 39.9838 32.2049C39.875 32.1179 39.6982 32.1601 39.5975 32.0635C39.5119 31.9465 39.52 31.7861 39.6166 31.6773C39.7104 31.5739 39.7838 31.4542 39.8328 31.3237C39.8464 31.2366 39.8464 31.1482 39.8328 31.0612C39.8178 30.4764 40.0722 29.9174 40.5223 29.5448C40.9711 29.1762 41.5002 28.9205 42.0673 28.7968C42.138 28.775 42.2128 28.775 42.2835 28.7968C42.3597 28.8267 42.4046 28.9056 42.4726 28.9545C42.6616 29.0905 42.9323 28.9545 43.1553 29.013" fill="#74933E"/>
<path d="M42.1367 35.1248C41.0527 35.099 39.8791 35.2636 39.0685 35.9912C38.8169 36.2074 38.5979 36.5868 38.7693 36.8792C38.8808 37.0288 39.0386 37.1363 39.2181 37.1866C39.9403 37.4668 40.6964 37.6504 41.4675 37.7333C41.9735 37.819 42.493 37.7673 42.9717 37.5837C43.4096 37.3784 43.7401 36.9962 43.8802 36.5324C43.9863 36.1748 44.0366 35.5383 43.6639 35.3044C43.2913 35.0704 42.5569 35.1357 42.138 35.1248H42.1367Z" fill="#76953F"/>
<path d="M42.1775 34.8897C41.0935 34.8612 39.9199 35.0284 39.1093 35.756C38.8577 35.9723 38.6387 36.3504 38.8101 36.6428C38.9203 36.7924 39.0767 36.9025 39.2562 36.9528C39.9797 37.2303 40.7359 37.4139 41.5056 37.4996C42.0115 37.5866 42.5311 37.5336 43.0098 37.3472C43.4477 37.1432 43.7782 36.7611 43.9183 36.2987C44.0243 35.941 44.0747 35.3045 43.702 35.0706C43.3294 34.8367 42.5963 34.902 42.1788 34.8911L42.1775 34.8897Z" fill="url(#paint13_linear_46_22)"/>
<path d="M40.7957 36.4536C39.7118 36.4251 38.5381 36.5924 37.7275 37.32C37.4759 37.5362 37.257 37.9143 37.4283 38.2067C37.5385 38.3563 37.6949 38.4651 37.8744 38.514C38.5979 38.7901 39.3541 38.9724 40.1239 39.054C40.6298 39.1396 41.1493 39.0866 41.628 38.9016C42.0659 38.6963 42.3964 38.3155 42.5379 37.8531C42.6439 37.4954 42.6915 36.8589 42.3216 36.6223C41.9517 36.3856 41.2078 36.4536 40.7957 36.4536Z" fill="#46522D"/>
<path d="M40.8365 36.2115C39.7526 36.1857 38.5789 36.3502 37.7683 37.0778C37.5167 37.3049 37.2978 37.6735 37.4691 37.9659C37.5807 38.1141 37.7371 38.2229 37.9152 38.2733C38.6374 38.5534 39.3935 38.737 40.1646 38.8213C40.6706 38.9057 41.1901 38.854 41.6688 38.669C42.1081 38.4637 42.4386 38.0815 42.5786 37.6177C42.6847 37.2601 42.7323 36.6236 42.3624 36.3897C41.9925 36.1557 41.2554 36.221 40.8365 36.2101V36.2115Z" fill="url(#paint14_linear_46_22)"/>
<path d="M39.112 38.0407C38.1002 37.6327 36.9455 37.3906 35.9337 37.781C35.6195 37.9047 35.2836 38.1726 35.3448 38.5072C35.3951 38.6867 35.5053 38.8445 35.6562 38.9533C36.2356 39.4687 36.8789 39.9053 37.5725 40.2534C38.0158 40.5105 38.5204 40.6424 39.0331 40.637C39.5159 40.5989 39.9593 40.3568 40.253 39.9719C40.4693 39.6727 40.7454 39.0947 40.487 38.7479C40.2286 38.4011 39.501 38.189 39.1134 38.0421L39.112 38.0407Z" fill="#9ECE4F"/>
<path d="M39.2331 37.8327C38.2226 37.4247 37.0666 37.1826 36.0547 37.573C35.7406 37.6967 35.4047 37.9646 35.4659 38.2992C35.5162 38.4787 35.6263 38.6365 35.7773 38.7453C36.3567 39.2607 36.9999 39.6973 37.6935 40.0454C38.1369 40.3038 38.6428 40.4358 39.1569 40.429C39.6383 40.3909 40.0817 40.1488 40.3741 39.7639C40.5903 39.4674 40.8664 38.8976 40.608 38.5399C40.3496 38.1822 39.622 37.9891 39.2344 37.8341L39.2331 37.8327Z" fill="url(#paint15_linear_46_22)"/>
<path d="M49.9743 32.3955C49.108 32.3738 48.1887 32.5057 47.5495 33.081C47.3496 33.2605 47.1768 33.5515 47.3128 33.7827C47.3999 33.901 47.5236 33.9867 47.6664 34.0248C48.2376 34.2451 48.8347 34.392 49.4439 34.4586C49.8438 34.5253 50.2532 34.4845 50.6312 34.339C50.978 34.1758 51.2391 33.8752 51.3507 33.5094C51.4336 33.2278 51.4717 32.7233 51.1861 32.5383C50.9005 32.3547 50.3089 32.4037 49.9743 32.3955Z" fill="#9ECE4F"/>
<path d="M50.007 32.209C49.1406 32.1872 48.2213 32.3192 47.5821 32.8944C47.3822 33.0726 47.2122 33.365 47.3454 33.5948C47.4325 33.7145 47.5562 33.8002 47.699 33.8396C48.2702 34.06 48.8673 34.2068 49.4766 34.2735C49.8764 34.3415 50.2858 34.3007 50.6638 34.1538C51.0106 33.9906 51.2718 33.69 51.3833 33.3242C51.4662 33.0427 51.5043 32.5395 51.2187 32.3532C50.9331 32.1668 50.3361 32.2185 50.007 32.2104V32.209Z" fill="url(#paint16_linear_46_22)"/>
<path d="M48.9135 33.44C48.0472 33.421 47.1306 33.5502 46.4914 34.1268C46.2914 34.305 46.1187 34.5946 46.2534 34.8272C46.3404 34.9455 46.4655 35.0312 46.6083 35.0693C47.1782 35.2896 47.7752 35.4351 48.3831 35.5031C48.783 35.5711 49.1937 35.5303 49.5731 35.3834C49.9199 35.2216 50.1797 34.9197 50.2898 34.5538C50.3742 34.2723 50.4136 33.7691 50.1253 33.5828C49.837 33.3965 49.2454 33.4482 48.9135 33.44Z" fill="#96C34B"/>
<path d="M48.9448 33.2537C48.0785 33.2319 47.1618 33.3638 46.5226 33.9391C46.3227 34.1186 46.15 34.4097 46.2846 34.6395C46.3717 34.7592 46.4968 34.8462 46.6396 34.8843C47.2108 35.106 47.8078 35.2515 48.4171 35.3182C48.817 35.3875 49.2263 35.3454 49.6044 35.1985C49.9498 35.0366 50.211 34.7361 50.3211 34.3702C50.4054 34.086 50.4449 33.5842 50.1579 33.3978C49.8723 33.2115 49.2753 33.2632 48.9448 33.255V33.2537Z" fill="url(#paint17_linear_46_22)"/>
<path d="M47.5821 34.6964C46.7851 34.3755 45.8726 34.1769 45.0729 34.4924C44.824 34.5904 44.5588 34.8025 44.6051 35.065C44.6459 35.2064 44.7329 35.3302 44.8526 35.4186C45.3109 35.8252 45.8209 36.1693 46.369 36.444C46.7198 36.648 47.1183 36.7528 47.5236 36.7473C47.9044 36.716 48.2539 36.5243 48.4851 36.221C48.6633 35.9871 48.8727 35.5274 48.6687 35.254C48.4647 34.9807 47.8881 34.8202 47.5807 34.6978L47.5821 34.6964Z" fill="#7D9F42"/>
<path d="M47.68 34.5335C46.8803 34.2125 45.9705 34.014 45.1681 34.3281C44.9192 34.426 44.6567 34.6382 44.7016 34.902C44.7411 35.0435 44.8281 35.1672 44.9464 35.2529C45.4061 35.6596 45.9161 36.005 46.4628 36.2797C46.8137 36.481 47.2122 36.5857 47.6175 36.583C47.9983 36.5517 48.3478 36.36 48.579 36.0567C48.7571 35.82 48.9693 35.3631 48.7653 35.0884C48.5613 34.8136 47.9833 34.6545 47.6773 34.5335H47.68Z" fill="url(#paint18_linear_46_22)"/>
<path d="M45.9079 33.9078C45.0416 33.886 44.125 34.0166 43.4858 34.5932C43.2859 34.7714 43.1131 35.061 43.2491 35.2936C43.3362 35.4119 43.4599 35.4976 43.6027 35.5357C44.1739 35.756 44.771 35.9029 45.3803 35.9695C45.7801 36.0375 46.1895 35.9967 46.5675 35.8498C46.9143 35.6866 47.1755 35.3861 47.287 35.0202C47.3699 34.7387 47.408 34.2355 47.1224 34.0492C46.8368 33.8629 46.2398 33.9146 45.9093 33.9078H45.9079Z" fill="#7B9E41"/>
<path d="M45.9419 33.7188C45.0756 33.697 44.1562 33.8289 43.517 34.4042C43.3171 34.5837 43.1471 34.8748 43.2804 35.106C43.3674 35.2243 43.4912 35.31 43.634 35.3481C44.2052 35.5684 44.8022 35.7153 45.4115 35.7819C45.8114 35.8485 46.2207 35.8077 46.5988 35.6622C46.9456 35.499 47.2067 35.1985 47.3182 34.8326C47.4012 34.5511 47.4393 34.0465 47.1537 33.8616C46.8681 33.678 46.271 33.7269 45.9419 33.7188Z" fill="url(#paint19_linear_46_22)"/>
<path d="M44.8471 34.9522C43.9808 34.9304 43.0642 35.0623 42.4222 35.6376C42.225 35.8158 42.0523 36.1082 42.1856 36.338C42.274 36.4563 42.3978 36.542 42.5392 36.5828C43.1104 36.8031 43.7074 36.9486 44.3167 37.0166C44.7166 37.0846 45.1273 37.0438 45.5067 36.897C45.8535 36.7351 46.1133 36.4332 46.2234 36.0674C46.3078 35.7858 46.3445 35.2826 46.0589 35.0963C45.7733 34.91 45.1762 34.9617 44.8471 34.9535V34.9522Z" fill="#6C883B"/>
<path d="M44.8907 34.7632C44.0243 34.7442 43.1077 34.8734 42.4685 35.4487C42.2686 35.6282 42.0959 35.9192 42.2305 36.1504C42.3175 36.2688 42.4427 36.3544 42.5855 36.3925C43.1553 36.6128 43.7523 36.7584 44.3603 36.8264C44.7601 36.8944 45.1708 36.8536 45.5503 36.7067C45.8971 36.5448 46.1568 36.2429 46.267 35.8771C46.3513 35.5956 46.3907 35.091 46.1024 34.906C45.8141 34.7224 45.2116 34.7714 44.8907 34.7632Z" fill="url(#paint20_linear_46_22)"/>
<path d="M41.9272 36.2225C41.4594 36.0334 40.9235 35.9165 40.453 36.1014C40.3075 36.1599 40.1538 36.2837 40.1796 36.4373C40.2014 36.5244 40.2531 36.6005 40.3251 36.6536C40.5931 36.8916 40.8909 37.0942 41.2119 37.2533C41.4172 37.373 41.6525 37.4356 41.8905 37.4315C42.1135 37.4152 42.3189 37.3023 42.4535 37.1241C42.5569 36.9854 42.6834 36.7161 42.5623 36.557C42.4413 36.3965 42.1067 36.2945 41.9272 36.2238V36.2225Z" fill="#3E462A"/>
<path d="M41.983 36.1245C41.5151 35.9382 40.9793 35.8212 40.5087 36.0048C40.3632 36.0606 40.2095 36.1871 40.2354 36.3408C40.2571 36.4278 40.3088 36.504 40.3809 36.557C40.6488 36.7964 40.9467 36.999 41.2676 37.1595C41.4743 37.2778 41.7083 37.3404 41.9463 37.3376C42.1693 37.3186 42.3733 37.2071 42.5093 37.0303C42.6127 36.8916 42.7391 36.6223 42.6181 36.4632C42.4971 36.304 42.1625 36.1993 41.983 36.1245Z" fill="url(#paint21_linear_46_22)"/>
<path d="M43.4436 37.3215C42.9758 37.1324 42.4399 37.0155 41.9694 37.2018C41.8239 37.2575 41.6702 37.384 41.696 37.5377C41.7191 37.6207 41.7708 37.6927 41.8415 37.7431C42.1095 37.9811 42.4073 38.1837 42.7282 38.3455C42.935 38.4639 43.1689 38.5264 43.4069 38.5237C43.6299 38.5047 43.8353 38.3931 43.9726 38.2163C44.076 38.0776 44.1998 37.8083 44.0815 37.6492C43.9618 37.4887 43.6245 37.3935 43.445 37.3215H43.4436Z" fill="#48542E"/>
<path d="M43.4994 37.2249C43.0315 37.0359 42.4957 36.9189 42.0251 37.1039C41.8796 37.1623 41.7259 37.2861 41.7518 37.4425C41.7749 37.5255 41.8266 37.5975 41.8973 37.6479C42.1652 37.8859 42.463 38.0871 42.784 38.2476C42.9894 38.3673 43.2246 38.4299 43.4626 38.4271C43.687 38.4081 43.8924 38.2952 44.0284 38.1171C44.1318 37.9811 44.2555 37.7118 44.1372 37.5499C44.0175 37.3867 43.6802 37.297 43.5007 37.2249H43.4994Z" fill="url(#paint22_linear_46_22)"/>
<path d="M43.9917 36.1748C43.5239 35.9858 42.988 35.8689 42.5175 36.0538C42.3719 36.1123 42.2183 36.2361 42.2441 36.3897C42.2659 36.4768 42.3175 36.5529 42.3896 36.606C42.6575 36.844 42.9554 37.0453 43.2763 37.2057C43.4831 37.3241 43.717 37.3866 43.955 37.3839C44.178 37.3662 44.3834 37.2547 44.518 37.0765C44.6214 36.9378 44.7479 36.6685 44.6282 36.5094C44.5085 36.3489 44.1712 36.2388 43.9917 36.1762V36.1748Z" fill="#5A6E35"/>
<path d="M44.0475 36.0771C43.5796 35.888 43.0438 35.7711 42.5732 35.9574C42.4277 36.0132 42.274 36.1396 42.2999 36.2933C42.3216 36.3804 42.3733 36.4565 42.4454 36.5096C42.7133 36.7489 43.0111 36.9502 43.3321 37.112C43.5388 37.2304 43.7727 37.2929 44.0107 37.2902C44.2338 37.2712 44.4391 37.1596 44.5765 36.9828C44.6785 36.8441 44.8036 36.5748 44.6853 36.4157C44.567 36.2566 44.2283 36.1492 44.0488 36.0771H44.0475Z" fill="url(#paint23_linear_46_22)"/>
<path d="M43.415 35.2148C42.9472 35.0257 42.4114 34.9088 41.9408 35.0951C41.7953 35.1508 41.6416 35.2746 41.6674 35.431C41.6906 35.514 41.7422 35.586 41.813 35.6364C42.0822 35.8744 42.3801 36.0756 42.6997 36.2388C42.9064 36.3572 43.1403 36.4197 43.3783 36.417C43.6027 36.398 43.8081 36.2851 43.9441 36.1069C44.0474 35.9709 44.1712 35.7017 44.0529 35.5412C43.9332 35.3807 43.5918 35.2855 43.4164 35.2134L43.415 35.2148Z" fill="#647C38"/>
<path d="M43.4722 35.1194C43.0043 34.9304 42.4685 34.8134 41.9979 34.9984C41.8524 35.0569 41.6987 35.1806 41.7246 35.3343C41.7463 35.4214 41.798 35.4975 41.8701 35.5505C42.1394 35.7872 42.4372 35.9885 42.7568 36.1503C42.9622 36.27 43.1975 36.3326 43.4355 36.3285C43.6599 36.3122 43.8652 36.1993 44.0012 36.0211C44.1046 35.8824 44.2283 35.6131 44.11 35.454C43.9903 35.2935 43.6531 35.1915 43.4735 35.1208L43.4722 35.1194Z" fill="url(#paint24_linear_46_22)"/>
<path d="M41.8361 36.3831C41.3682 36.1967 40.8351 36.0798 40.3646 36.2634C40.219 36.3191 40.064 36.4456 40.0912 36.5993C40.1116 36.6863 40.1619 36.7625 40.234 36.8155C40.5033 37.0549 40.8011 37.2562 41.1221 37.418C41.3274 37.5363 41.5614 37.5989 41.798 37.5962C42.021 37.5785 42.2264 37.4656 42.3638 37.2888C42.4671 37.1501 42.58 36.8808 42.4726 36.7217C42.3638 36.5612 42.0156 36.4551 41.8361 36.3831Z" fill="#7C9E42"/>
<path d="M41.8918 36.2876C41.424 36.0986 40.8909 35.9816 40.4203 36.1666C40.2748 36.2251 40.1198 36.3488 40.147 36.5052C40.1674 36.5923 40.2177 36.6684 40.2898 36.7215C40.559 36.9595 40.8569 37.1621 41.1778 37.324C41.3832 37.4423 41.6171 37.5035 41.8538 37.5021C42.0782 37.4844 42.2835 37.3716 42.4195 37.192C42.5229 37.056 42.6466 36.7868 42.5283 36.6249C42.4086 36.4617 42.0727 36.3611 41.8918 36.289V36.2876Z" fill="url(#paint25_linear_46_22)"/>
<path d="M42.2903 36.0838C42.3937 35.5901 42.4155 35.0434 42.1516 34.6123C42.0687 34.4777 41.9204 34.3485 41.7722 34.3961C41.6947 34.4341 41.6321 34.4967 41.594 34.5742C41.4091 34.8816 41.2635 35.2107 41.1602 35.5534C41.0786 35.7765 41.0595 36.0172 41.1044 36.2511C41.1615 36.4687 41.3084 36.6509 41.507 36.7543C41.6607 36.8318 41.9408 36.908 42.085 36.7543C42.2305 36.6006 42.2455 36.2729 42.289 36.0852L42.2903 36.0838Z" fill="#7C9E42"/>
<path d="M42.3923 36.1219C42.4943 35.6282 42.5161 35.0801 42.2509 34.6504C42.1679 34.5157 42.0197 34.3865 41.8714 34.4341C41.7939 34.4722 41.7314 34.5348 41.6933 34.6123C41.507 34.9183 41.3614 35.2474 41.2594 35.5915C41.1778 35.8146 41.1588 36.0553 41.2037 36.2892C41.2594 36.5068 41.405 36.689 41.6049 36.7924C41.7613 36.8699 42.0387 36.9447 42.1829 36.7924C42.3284 36.6401 42.3502 36.311 42.391 36.1233L42.3923 36.1219Z" fill="url(#paint26_linear_46_22)"/>
<path d="M46.1908 34.8067C45.3245 34.7849 44.4078 34.9155 43.7686 35.4921C43.5687 35.6703 43.396 35.96 43.532 36.1925C43.619 36.3122 43.7428 36.3979 43.8856 36.4373C44.4568 36.6576 45.0538 36.8045 45.6631 36.8712C46.063 36.9392 46.4723 36.8984 46.8504 36.7515C47.1972 36.5883 47.4583 36.2877 47.5698 35.9219C47.6528 35.6404 47.6909 35.1372 47.4053 34.9508C47.1197 34.7645 46.5281 34.8148 46.1922 34.808L46.1908 34.8067Z" fill="#9ECE4F"/>
<path d="M46.2275 34.6189C45.3612 34.5972 44.4446 34.7291 43.8054 35.3044C43.6054 35.4839 43.4327 35.7749 43.5687 36.0061C43.6558 36.1244 43.7795 36.2101 43.9223 36.2482C44.4935 36.4685 45.0906 36.6154 45.6998 36.682C46.0997 36.75 46.509 36.7092 46.8871 36.5624C47.2339 36.3992 47.495 36.0986 47.6066 35.7328C47.6895 35.4512 47.7276 34.9467 47.442 34.7617C47.1564 34.5781 46.5594 34.6271 46.2289 34.6189H46.2275Z" fill="url(#paint27_linear_46_22)"/>
<path d="M43.7469 37.0168C43.3865 37.6193 43.1118 38.3169 43.2641 39.0078C43.309 39.2241 43.4477 39.458 43.6653 39.4566C43.785 39.4417 43.8951 39.3873 43.9794 39.3029C44.363 38.9861 44.7043 38.6229 44.9954 38.219C45.2034 37.9633 45.3381 37.6546 45.3857 37.3282C45.4102 37.0181 45.3014 36.7108 45.0851 36.4877C44.9206 36.3164 44.5778 36.0893 44.3317 36.2171C44.0855 36.3449 43.8856 36.7869 43.7482 37.0168H43.7469Z" fill="#96C34B"/>
<path d="M43.6259 36.9201C43.2682 37.5199 42.9935 38.2203 43.1444 38.9111C43.1893 39.1274 43.328 39.3613 43.5456 39.3599C43.6653 39.345 43.7755 39.2906 43.8598 39.2063C44.2433 38.8894 44.5847 38.5263 44.8757 38.1223C45.0838 37.8667 45.2184 37.5579 45.266 37.2315C45.2891 36.9215 45.1803 36.6155 44.9655 36.3911C44.7982 36.2197 44.4582 35.9926 44.212 36.1204C43.9645 36.2483 43.7659 36.6903 43.6272 36.9201H43.6259Z" fill="url(#paint28_linear_46_22)"/>
<path d="M42.2318 37.8708C41.4349 37.5498 40.5223 37.3512 39.7226 37.6668C39.4738 37.7647 39.2086 37.9768 39.2548 38.2393C39.2956 38.3808 39.3826 38.5045 39.5023 38.5929C39.9606 38.9996 40.4706 39.3436 41.0187 39.6184C41.3696 39.8224 41.7681 39.9271 42.1734 39.9216C42.5542 39.8904 42.9023 39.7 43.1349 39.3967C43.313 39.16 43.5225 38.7017 43.3185 38.4284C43.1145 38.155 42.5378 37.9945 42.2305 37.8721L42.2318 37.8708Z" fill="#84A945"/>
<path d="M42.3298 37.709C41.5301 37.3881 40.6202 37.1895 39.8178 37.5037C39.569 37.6016 39.3065 37.8137 39.3514 38.0776C39.3908 38.219 39.4778 38.3428 39.5962 38.4285C40.0558 38.8351 40.5658 39.1805 41.1126 39.4553C41.4634 39.6579 41.8619 39.7626 42.2672 39.7585C42.648 39.7273 42.9975 39.5355 43.2287 39.2322C43.4069 38.9956 43.619 38.5386 43.415 38.2639C43.211 37.9892 42.633 37.8301 42.327 37.709H42.3298Z" fill="url(#paint29_linear_46_22)"/>
<path d="M39.1855 35.9968C38.3994 35.6827 37.5018 35.4855 36.7103 35.7956C36.4655 35.8935 36.2057 36.1016 36.2506 36.3613C36.29 36.5014 36.3757 36.6238 36.4927 36.7081C36.9442 37.1093 37.446 37.4493 37.9859 37.72C38.3314 37.9199 38.7244 38.0232 39.1243 38.0192C39.4996 37.9892 39.8451 37.8002 40.0735 37.501C40.249 37.2698 40.4571 36.8156 40.2558 36.5449C40.0545 36.2743 39.4887 36.1179 39.1855 35.9968Z" fill="#9ECE4F"/>
<path d="M39.2806 35.8364C38.4946 35.5195 37.5942 35.3223 36.8054 35.6324C36.5606 35.7303 36.3009 35.9397 36.3458 36.1995C36.3852 36.3396 36.4709 36.4606 36.5878 36.5463C37.0394 36.9461 37.5398 37.2848 38.0784 37.5568C38.4238 37.758 38.8182 37.8614 39.2181 37.856C39.5934 37.826 39.9389 37.637 40.1674 37.3378C40.3401 37.1066 40.5509 36.6524 40.3496 36.3844C40.1483 36.1152 39.5826 35.9574 39.2793 35.8364H39.2806Z" fill="url(#paint30_linear_46_22)"/>
<path d="M40.4054 34.5469C39.7771 34.653 39.1243 34.8801 38.7407 35.3874C38.6197 35.5451 38.5368 35.7818 38.6673 35.9314C38.7476 36.0035 38.8495 36.0483 38.9583 36.0565C39.4044 36.1367 39.8587 36.1585 40.3102 36.1191C40.6107 36.1123 40.9032 36.0252 41.1575 35.8661C41.3846 35.6988 41.5315 35.4431 41.5627 35.1616C41.5818 34.9454 41.5383 34.5727 41.3043 34.4789C41.0704 34.385 40.6461 34.5034 40.4054 34.5455V34.5469Z" fill="#9ECE4F"/>
<path d="M40.4013 34.4056C39.7757 34.5117 39.1202 34.7388 38.7366 35.2461C38.617 35.4039 38.5326 35.6405 38.6646 35.7901C38.7448 35.8635 38.8468 35.9084 38.9556 35.9152C39.4017 35.9955 39.8559 36.0172 40.3074 35.9778C40.608 35.971 40.9004 35.8839 41.1547 35.7248C41.3832 35.5575 41.5287 35.3019 41.5573 35.0203C41.579 34.8041 41.5355 34.4315 41.3016 34.3376C41.0677 34.2438 40.6434 34.3662 40.3999 34.4043L40.4013 34.4056Z" fill="url(#paint31_linear_46_22)"/>
</g>
<defs>
<linearGradient id="paint0_linear_46_22" x1="33.2409" y1="24.7726" x2="42.4018" y2="24.7726" gradientUnits="userSpaceOnUse">
<stop stop-color="#231F20"/>
<stop offset="0.13" stop-color="#231F20" stop-opacity="0.69"/>
<stop offset="1" stop-color="#231F20" stop-opacity="0"/>
</linearGradient>
<linearGradient id="paint1_linear_46_22" x1="32.9403" y1="13.0808" x2="37.2475" y2="33.4114" gradientUnits="userSpaceOnUse">
<stop stop-color="white"/>
<stop offset="0.13" stop-color="white" stop-opacity="0.69"/>
<stop offset="1" stop-color="white" stop-opacity="0"/>
</linearGradient>
<linearGradient id="paint2_linear_46_22" x1="31.3872" y1="29.7544" x2="33.5224" y2="19.4429" gradientUnits="userSpaceOnUse">
<stop stop-color="#231F20"/>
<stop offset="0.13" stop-color="#231F20" stop-opacity="0.69"/>
<stop offset="1" stop-color="#231F20" stop-opacity="0"/>
</linearGradient>
<linearGradient id="paint3_linear_46_22" x1="6.22993" y1="20.875" x2="27.5248" y2="20.6927" gradientUnits="userSpaceOnUse">
<stop stop-color="#231F20"/>
<stop offset="0.13" stop-color="#231F20" stop-opacity="0.69"/>
<stop offset="1" stop-color="#231F20" stop-opacity="0"/>
</linearGradient>
<linearGradient id="paint4_linear_46_22" x1="10.4255" y1="29.0905" x2="22.9552" y2="20.0601" gradientUnits="userSpaceOnUse">
<stop stop-color="#231F20"/>
<stop offset="0.13" stop-color="#231F20" stop-opacity="0.69"/>
<stop offset="1" stop-color="#231F20" stop-opacity="0"/>
</linearGradient>
<linearGradient id="paint5_linear_46_22" x1="8.6755" y1="33.2472" x2="19.6225" y2="22.3563" gradientUnits="userSpaceOnUse">
<stop stop-color="#231F20"/>
<stop offset="0.13" stop-color="#231F20" stop-opacity="0.69"/>
<stop offset="1" stop-color="#231F20" stop-opacity="0"/>
</linearGradient>
<linearGradient id="paint6_linear_46_22" x1="13.049" y1="18.2868" x2="12.1541" y2="22.1506" gradientUnits="userSpaceOnUse">
<stop stop-color="white"/>
<stop offset="0.13" stop-color="white" stop-opacity="0.69"/>
<stop offset="1" stop-color="white" stop-opacity="0"/>
</linearGradient>
<linearGradient id="paint7_linear_46_22" x1="21.2811" y1="23.6642" x2="15.7894" y2="29.2157" gradientUnits="userSpaceOnUse">
<stop stop-color="white"/>
<stop offset="0.13" stop-color="white" stop-opacity="0.69"/>
<stop offset="1" stop-color="white" stop-opacity="0"/>
</linearGradient>
<linearGradient id="paint8_linear_46_22" x1="12.199" y1="40.9144" x2="23.608" y2="34.691" gradientUnits="userSpaceOnUse">
<stop stop-color="#231F20"/>
<stop offset="0.13" stop-color="#231F20" stop-opacity="0.69"/>
<stop offset="1" stop-color="#231F20" stop-opacity="0"/>
</linearGradient>
<linearGradient id="paint9_linear_46_22" x1="11.4605" y1="41.2625" x2="21.5884" y2="34.7332" gradientUnits="userSpaceOnUse">
<stop stop-color="white"/>
<stop offset="0.13" stop-color="white" stop-opacity="0.69"/>
<stop offset="1" stop-color="white" stop-opacity="0"/>
</linearGradient>
<linearGradient id="paint10_linear_46_22" x1="37.7167" y1="26.8996" x2="51.4567" y2="26.8996" gradientUnits="userSpaceOnUse">
<stop stop-color="white"/>
<stop offset="0.13" stop-color="white" stop-opacity="0.69"/>
<stop offset="1" stop-color="white" stop-opacity="0"/>
</linearGradient>
<linearGradient id="paint11_linear_46_22" x1="45.999" y1="40.2806" x2="44.4514" y2="22.791" gradientUnits="userSpaceOnUse">
<stop stop-color="#231F20"/>
<stop offset="0.13" stop-color="#231F20" stop-opacity="0.69"/>
<stop offset="1" stop-color="#231F20" stop-opacity="0"/>
</linearGradient>
<linearGradient id="paint12_linear_46_22" x1="39.2763" y1="28.9291" x2="52.851" y2="31.0282" gradientUnits="userSpaceOnUse">
<stop stop-color="white"/>
<stop offset="0.13" stop-color="white" stop-opacity="0.69"/>
<stop offset="1" stop-color="white" stop-opacity="0"/>
</linearGradient>
<linearGradient id="paint13_linear_46_22" x1="41.4431" y1="38.676" x2="41.3519" y2="35.3508" gradientUnits="userSpaceOnUse">
<stop stop-color="#231F20"/>
<stop offset="0.13" stop-color="#231F20" stop-opacity="0.69"/>
<stop offset="1" stop-color="#231F20" stop-opacity="0"/>
</linearGradient>
<linearGradient id="paint14_linear_46_22" x1="40.1048" y1="39.9991" x2="40.011" y2="36.6725" gradientUnits="userSpaceOnUse">
<stop stop-color="#231F20"/>
<stop offset="0.13" stop-color="#231F20" stop-opacity="0.69"/>
<stop offset="1" stop-color="#231F20" stop-opacity="0"/>
</linearGradient>
<linearGradient id="paint15_linear_46_22" x1="37.2218" y1="41.1222" x2="38.2978" y2="37.976" gradientUnits="userSpaceOnUse">
<stop stop-color="#231F20"/>
<stop offset="0.13" stop-color="#231F20" stop-opacity="0.69"/>
<stop offset="1" stop-color="#231F20" stop-opacity="0"/>
</linearGradient>
<linearGradient id="paint16_linear_46_22" x1="49.4262" y1="35.1996" x2="49.3555" y2="32.5735" gradientUnits="userSpaceOnUse">
<stop stop-color="#231F20"/>
<stop offset="0.13" stop-color="#231F20" stop-opacity="0.69"/>
<stop offset="1" stop-color="#231F20" stop-opacity="0"/>
</linearGradient>
<linearGradient id="paint17_linear_46_22" x1="48.3654" y1="36.2457" x2="48.2947" y2="33.6182" gradientUnits="userSpaceOnUse">
<stop stop-color="#231F20"/>
<stop offset="0.13" stop-color="#231F20" stop-opacity="0.69"/>
<stop offset="1" stop-color="#231F20" stop-opacity="0"/>
</linearGradient>
<linearGradient id="paint18_linear_46_22" x1="46.0915" y1="37.1332" x2="46.9428" y2="34.6479" gradientUnits="userSpaceOnUse">
<stop stop-color="#231F20"/>
<stop offset="0.13" stop-color="#231F20" stop-opacity="0.69"/>
<stop offset="1" stop-color="#231F20" stop-opacity="0"/>
</linearGradient>
<linearGradient id="paint19_linear_46_22" x1="45.3612" y1="36.7121" x2="45.2905" y2="34.0833" gradientUnits="userSpaceOnUse">
<stop stop-color="#231F20"/>
<stop offset="0.13" stop-color="#231F20" stop-opacity="0.69"/>
<stop offset="1" stop-color="#231F20" stop-opacity="0"/>
</linearGradient>
<linearGradient id="paint20_linear_46_22" x1="44.3127" y1="37.7566" x2="44.2392" y2="35.1304" gradientUnits="userSpaceOnUse">
<stop stop-color="#231F20"/>
<stop offset="0.13" stop-color="#231F20" stop-opacity="0.69"/>
<stop offset="1" stop-color="#231F20" stop-opacity="0"/>
</linearGradient>
<linearGradient id="paint21_linear_46_22" x1="41.0509" y1="37.6498" x2="41.5511" y2="36.1918" gradientUnits="userSpaceOnUse">
<stop stop-color="#231F20"/>
<stop offset="0.13" stop-color="#231F20" stop-opacity="0.69"/>
<stop offset="1" stop-color="#231F20" stop-opacity="0"/>
</linearGradient>
<linearGradient id="paint22_linear_46_22" x1="42.567" y1="38.7495" x2="43.0672" y2="37.2914" gradientUnits="userSpaceOnUse">
<stop stop-color="#231F20"/>
<stop offset="0.13" stop-color="#231F20" stop-opacity="0.69"/>
<stop offset="1" stop-color="#231F20" stop-opacity="0"/>
</linearGradient>
<linearGradient id="paint23_linear_46_22" x1="43.1169" y1="37.6018" x2="43.6171" y2="36.1437" gradientUnits="userSpaceOnUse">
<stop stop-color="#231F20"/>
<stop offset="0.13" stop-color="#231F20" stop-opacity="0.69"/>
<stop offset="1" stop-color="#231F20" stop-opacity="0"/>
</linearGradient>
<linearGradient id="paint24_linear_46_22" x1="42.5421" y1="36.6441" x2="43.0397" y2="35.1851" gradientUnits="userSpaceOnUse">
<stop stop-color="#231F20"/>
<stop offset="0.13" stop-color="#231F20" stop-opacity="0.69"/>
<stop offset="1" stop-color="#231F20" stop-opacity="0"/>
</linearGradient>
<linearGradient id="paint25_linear_46_22" x1="40.9617" y1="37.811" x2="41.4614" y2="36.3543" gradientUnits="userSpaceOnUse">
<stop stop-color="#231F20"/>
<stop offset="0.13" stop-color="#231F20" stop-opacity="0.69"/>
<stop offset="1" stop-color="#231F20" stop-opacity="0"/>
</linearGradient>
<linearGradient id="paint26_linear_46_22" x1="40.7216" y1="35.4663" x2="42.2452" y2="35.7006" gradientUnits="userSpaceOnUse">
<stop stop-color="#231F20"/>
<stop offset="0.13" stop-color="#231F20" stop-opacity="0.69"/>
<stop offset="1" stop-color="#231F20" stop-opacity="0"/>
</linearGradient>
<linearGradient id="paint27_linear_46_22" x1="45.6495" y1="37.6109" x2="45.5774" y2="34.9848" gradientUnits="userSpaceOnUse">
<stop stop-color="#231F20"/>
<stop offset="0.13" stop-color="#231F20" stop-opacity="0.69"/>
<stop offset="1" stop-color="#231F20" stop-opacity="0"/>
</linearGradient>
<linearGradient id="paint28_linear_46_22" x1="45.5521" y1="38.5479" x2="43.6623" y2="37.5494" gradientUnits="userSpaceOnUse">
<stop stop-color="#231F20"/>
<stop offset="0.13" stop-color="#231F20" stop-opacity="0.69"/>
<stop offset="1" stop-color="#231F20" stop-opacity="0"/>
</linearGradient>
<linearGradient id="paint29_linear_46_22" x1="40.7426" y1="40.3102" x2="41.5923" y2="37.8213" gradientUnits="userSpaceOnUse">
<stop stop-color="#231F20"/>
<stop offset="0.13" stop-color="#231F20" stop-opacity="0.69"/>
<stop offset="1" stop-color="#231F20" stop-opacity="0"/>
</linearGradient>
<linearGradient id="paint30_linear_46_22" x1="37.7161" y1="38.3994" x2="38.5533" y2="35.9479" gradientUnits="userSpaceOnUse">
<stop stop-color="#231F20"/>
<stop offset="0.13" stop-color="#231F20" stop-opacity="0.69"/>
<stop offset="1" stop-color="#231F20" stop-opacity="0"/>
</linearGradient>
<linearGradient id="paint31_linear_46_22" x1="40.4066" y1="36.6753" x2="39.9815" y2="34.7753" gradientUnits="userSpaceOnUse">
<stop stop-color="#231F20"/>
<stop offset="0.13" stop-color="#231F20" stop-opacity="0.69"/>
<stop offset="1" stop-color="#231F20" stop-opacity="0"/>
</linearGradient>
<clipPath id="clip0_46_22">
<rect width="61" height="61" fill="white"/>
</clipPath>
</defs>
</svg>
