<svg transform="scale(1)" id="Fa5Eno6sT2" xmlns="http://www.w3.org/2000/svg" xmlns:xlink="http://www.w3.org/1999/xlink" viewBox="0 0 500 500" class="pbimage_pbimage__wrapper__image__0LEis false"><title>Bunny</title><defs><style> .cls-1{fill:url(#linear-gradient-Fa5Eno6sT2);} .cls-1, .cls-2, .cls-3, .cls-4, .cls-5, .cls-6, .cls-7, .cls-8, .cls-9, .cls-10, .cls-11, .cls-12, .cls-13, .cls-14, .cls-15, .cls-16, .cls-17, .cls-18, .cls-19, .cls-20, .cls-21, .cls-22, .cls-23, .cls-24, .cls-25, .cls-26{stroke-width:0px;} .cls-2{opacity:.18;} .cls-2, .cls-24{isolation:isolate;} .cls-2, .cls-26{fill:#68e1fd;} .cls-3{fill:url(#linear-gradient-11-Fa5Eno6sT2);} .cls-4{fill:url(#linear-gradient-12-Fa5Eno6sT2);} .cls-5{fill:url(#linear-gradient-13-Fa5Eno6sT2);} .cls-6{fill:url(#linear-gradient-10-Fa5Eno6sT2);} .cls-7{fill:url(#linear-gradient-17-Fa5Eno6sT2);} .cls-8{fill:url(#linear-gradient-16-Fa5Eno6sT2);} .cls-9{fill:url(#linear-gradient-19-Fa5Eno6sT2);} .cls-10{fill:url(#linear-gradient-15-Fa5Eno6sT2);} .cls-11{fill:url(#linear-gradient-21-Fa5Eno6sT2);} .cls-12{fill:url(#linear-gradient-18-Fa5Eno6sT2);} .cls-13{fill:url(#linear-gradient-14-Fa5Eno6sT2);} .cls-14{fill:url(#linear-gradient-22-Fa5Eno6sT2);} .cls-15{fill:url(#linear-gradient-20-Fa5Eno6sT2);} .cls-16{fill:url(#linear-gradient-4-Fa5Eno6sT2);} .cls-17{fill:url(#linear-gradient-2-Fa5Eno6sT2);} .cls-18{fill:url(#linear-gradient-3-Fa5Eno6sT2);} .cls-19{fill:url(#linear-gradient-8-Fa5Eno6sT2);} .cls-20{fill:url(#linear-gradient-9-Fa5Eno6sT2);} .cls-21{fill:url(#linear-gradient-7-Fa5Eno6sT2);} .cls-22{fill:url(#linear-gradient-5-Fa5Eno6sT2);} .cls-23{fill:url(#linear-gradient-6-Fa5Eno6sT2);} .cls-24{opacity:.74;} .cls-24, .cls-25{fill:#fff;}
 .cls-24, .cls-25{fill:#FFFFFF;}
 .cls-2, .cls-26{fill:#810BA3;}</style><linearGradient id="linear-gradient-Fa5Eno6sT2" x1="633.71" y1="3199.69" x2="606.53" y2="3034.09" gradientTransform="translate(-496.56 3342.39) scale(1 -1)" gradientUnits="userSpaceOnUse"><stop offset="0" stop-color="#fff" style="stop-color: rgb(255, 255, 255);"></stop><stop offset=".13" stop-color="#fff" stop-opacity=".69" style="stop-color: rgb(255, 255, 255);"></stop><stop offset="1" stop-color="#fff" stop-opacity="0" style="stop-color: rgb(255, 255, 255);"></stop></linearGradient><linearGradient id="linear-gradient-2-Fa5Eno6sT2" x1="675.62" y1="3028.39" x2="586.29" y2="2745.26" xlink:href="#linear-gradient-Fa5Eno6sT2"></linearGradient><linearGradient id="linear-gradient-3-Fa5Eno6sT2" x1="897.31" y1="3083.82" x2="869.29" y2="3020.98" xlink:href="#linear-gradient-Fa5Eno6sT2"></linearGradient><linearGradient id="linear-gradient-4-Fa5Eno6sT2" x1="754.91" y1="2988.13" x2="744.69" y2="2905.25" gradientTransform="translate(-496.56 3342.39) scale(1 -1)" gradientUnits="userSpaceOnUse"><stop offset="0" stop-color="#231f20" style="stop-color: rgb(35, 31, 32);"></stop><stop offset=".13" stop-color="#231f20" stop-opacity=".69" style="stop-color: rgb(35, 31, 32);"></stop><stop offset="1" stop-color="#231f20" stop-opacity="0" style="stop-color: rgb(35, 31, 32);"></stop></linearGradient><linearGradient id="linear-gradient-5-Fa5Eno6sT2" x1="789.93" y1="2951.47" x2="742.88" y2="2971.72" xlink:href="#linear-gradient-Fa5Eno6sT2"></linearGradient><linearGradient id="linear-gradient-6-Fa5Eno6sT2" x1="731.42" y1="2963.43" x2="775.92" y2="2930.45" xlink:href="#linear-gradient-Fa5Eno6sT2"></linearGradient><linearGradient id="linear-gradient-7-Fa5Eno6sT2" x1="766.19" y1="2974.02" x2="908.65" y2="2887.04" xlink:href="#linear-gradient-Fa5Eno6sT2"></linearGradient><linearGradient id="linear-gradient-8-Fa5Eno6sT2" x1="769.21" y1="2969.2" x2="756.28" y2="2971.16" xlink:href="#linear-gradient-4-Fa5Eno6sT2"></linearGradient><linearGradient id="linear-gradient-9-Fa5Eno6sT2" x1="755.2" y1="2950.56" x2="806.81" y2="2932.18" xlink:href="#linear-gradient-Fa5Eno6sT2"></linearGradient><linearGradient id="linear-gradient-10-Fa5Eno6sT2" x1="853.81" y1="2921.37" x2="751.47" y2="2964.11" xlink:href="#linear-gradient-4-Fa5Eno6sT2"></linearGradient><linearGradient id="linear-gradient-11-Fa5Eno6sT2" x1="772.1" y1="2981.22" x2="776.63" y2="2981.22" xlink:href="#linear-gradient-4-Fa5Eno6sT2"></linearGradient><linearGradient id="linear-gradient-12-Fa5Eno6sT2" x1="738.29" y1="3016.01" x2="739.11" y2="3002.48" gradientTransform="translate(-471 3367.76) scale(1 -1)" xlink:href="#linear-gradient-4-Fa5Eno6sT2"></linearGradient><linearGradient id="linear-gradient-13-Fa5Eno6sT2" x1="751.95" y1="3016.89" x2="752.76" y2="3003.37" gradientTransform="translate(-471 3367.76) scale(1 -1)" xlink:href="#linear-gradient-4-Fa5Eno6sT2"></linearGradient><linearGradient id="linear-gradient-14-Fa5Eno6sT2" x1="766.43" y1="2991.26" x2="760.24" y2="3016.2" xlink:href="#linear-gradient-4-Fa5Eno6sT2"></linearGradient><linearGradient id="linear-gradient-15-Fa5Eno6sT2" x1="779.46" y1="2994.5" x2="773.27" y2="3019.43" xlink:href="#linear-gradient-4-Fa5Eno6sT2"></linearGradient><linearGradient id="linear-gradient-16-Fa5Eno6sT2" x1="755.24" y1="2940.81" x2="760.99" y2="2843.08" xlink:href="#linear-gradient-Fa5Eno6sT2"></linearGradient><linearGradient id="linear-gradient-17-Fa5Eno6sT2" x1="770.68" y1="2955.84" x2="770.59" y2="2972.24" xlink:href="#linear-gradient-4-Fa5Eno6sT2"></linearGradient><linearGradient id="linear-gradient-18-Fa5Eno6sT2" x1="779.17" y1="2966.96" x2="768.58" y2="2970" xlink:href="#linear-gradient-4-Fa5Eno6sT2"></linearGradient><linearGradient id="linear-gradient-19-Fa5Eno6sT2" x1="626.01" y1="3004.17" x2="733.14" y2="3115.27" xlink:href="#linear-gradient-4-Fa5Eno6sT2"></linearGradient><linearGradient id="linear-gradient-20-Fa5Eno6sT2" x1="857.33" y1="3188.04" x2="673.47" y2="3117.94" xlink:href="#linear-gradient-Fa5Eno6sT2"></linearGradient><linearGradient id="linear-gradient-21-Fa5Eno6sT2" x1="751.36" y1="2870.96" x2="750.52" y2="2998.32" xlink:href="#linear-gradient-4-Fa5Eno6sT2"></linearGradient><linearGradient id="linear-gradient-22-Fa5Eno6sT2" x1="777.6" y1="2955.72" x2="617.26" y2="2891.73" xlink:href="#linear-gradient-4-Fa5Eno6sT2"></linearGradient></defs><g id="background"><path class="cls-2" d="M482.36,351.42c-4.5,31.03-13.59,63.98-37.94,83.64-37.32,30.23-91.65,17.3-138.99,9.18-38.99-6.68-78.6-8.97-118.1-6.84-26.92,1.47-53.9,5.01-80.75,2.68s-54.3-11.41-72.68-31.13c-2.34-2.53-4.52-5.22-6.52-8.03-18.55-25.78-21.42-60.93-19-93.19.25-3.48.56-6.99.94-10.48,8.15-77.99,43.45-155.4,107.19-200.7,44.9-31.9,95.34-37.62,148.77-34.78,56.32,3.01,114.26,3.8,156.92,45.64,66.27,64.94,72.89,156.13,60.15,244.01Z"></path><path class="cls-2" d="M365.09,386.04c-1.97,13.57-5.93,27.94-16.59,36.57-16.32,13.21-40.07,7.55-60.76,4.02-17.05-2.92-34.37-3.92-51.63-2.99-11.77.64-23.56,2.18-35.3,1.15-11.74-1.03-23.74-4.99-31.78-13.61-1.02-1.1-1.97-2.26-2.84-3.48-8.11-11.29-9.37-26.64-8.31-40.74.12-1.54.25-3.07.41-4.59,3.56-34.1,19-67.94,46.86-87.74,19.64-13.95,41.69-16.45,65.05-15.21,24.62,1.34,49.95,1.66,68.61,19.95,28.97,28.38,31.86,68.25,26.29,106.67Z"></path><path class="cls-2" d="M365.09,386.04c-1.97,13.57-5.93,27.94-16.59,36.57-16.32,13.21-40.07,7.55-60.76,4.02-17.05-2.92-34.37-3.92-51.63-2.99-11.77.64-23.56,2.18-35.3,1.15-11.74-1.03-23.74-4.99-31.78-13.61-1.02-1.1-1.97-2.26-2.84-3.48-8.11-11.29-9.37-26.64-8.31-40.74.12-1.54.25-3.07.41-4.59,3.56-34.1,19-67.94,46.86-87.74,19.64-13.95,41.69-16.45,65.05-15.21,24.62,1.34,49.95,1.66,68.61,19.95,28.97,28.38,31.86,68.25,26.29,106.67Z"></path><path class="cls-1" d="M149.49,129.71c-8.86,2.99-15.54,10.37-17.63,19.49-10.45-4.8-22.81-.23-27.61,10.22-2.67,5.81-2.52,12.52.39,18.2-9.41-2.14-19.28.35-26.56,6.69-7.78,6.89-13.39,18.55-23.82,18.66,49.09-3.57,98.22-6.47,147.41-8.72-1.83-5.77-8.63-8.74-10.83-14.39-5.09-13.05,17.4-23.45,15.06-37.28-1.03-6.17-7.18-10.55-13.39-11.29-4.52-.54-8.03,1.34-12.32,1.73-6.17.54-4.02.31-9.81-1.34-7.43-2.06-13-4.55-20.9-1.98Z"></path><path class="cls-17" d="M340.11,358.34c-64.71,11.64-130.08,19.24-195.73,22.76-7.67.41-16.06,1.03-21.67,6.2-2.53,2.32-4.31,5.35-6.96,7.51-5.1,4.12-12.32,4.19-18.85,3.61-16.14-1.42-31.96-5.39-46.86-11.75-3.48,8.85-13.04,13.91-22.68,14.26-18.55-25.78-21.42-60.93-19-93.19.25-3.48.56-6.99.94-10.48,2.28-1.67,4.52-3.37,6.69-5.19,16.4-13.72,34.03-21.42,55.89-15.53,20.66,5.58,37.48,21.19,48.68,39.45,3.4-12.18,21.85-12.48,31.58-4.42,9.73,8.06,14.46,20.66,22.87,30.09,1.37,1.81,3.27,3.13,5.44,3.79,2.58.56,5.15-.62,7.68-1.34,14.07-4.08,28.03,5.35,42.13,9.37,9.14,2.56,18.74,2.78,28.26,3.01,27.22.6,54.42,1.21,81.59,1.85Z"></path><path class="cls-18" d="M320.7,243.83c-2.68,5.92-3.8,12.72-8.03,17.67-2.76,3.24-6.59,5.35-10.31,7.39l-28.3,15.44c24.93,6.63,51.22,4.02,77,4.2,1.99-.1,3.97.16,5.86.78,6.32,2.46,7.2,10.78,10.07,16.91,3.44,7.34,10.71,12.34,18.51,14.61s16.06,2.12,24.1,1.42c3.31-.28,6.77-.63,9.81.7,2.68,1.15,4.61,3.43,6.8,5.35,6.84,5.84,16.32,7.82,25.3,7.28s17.66-3.37,26.2-6.17c2.8-.92,5.72-1.91,7.76-4.02,2.42-2.5,3.21-6.12,3.82-9.55,4.26-24.77,3.31-50.16-2.78-74.54-3.2-12.77-8.42-26.01-19.3-33.47-11.42-7.76-27.07-7.27-39.53-1.34-12.92,6.16-21.11,16.92-29.85,27.66-22.17-12.62-64-19.05-77.12,9.68Z"></path></g><g id="easter_ballon"><path class="cls-16" d="M233.23,366.61l18.41-1.03c5.32-.41,10.66-.5,16-.25,9.91.67,19.52,3.6,29.01,6.51,1.83.56,4.12,1.86,3.61,3.72-11.38,5.5-25.25,7.48-37.68,9.48-4.5.91-9.11,1.18-13.68.8-12.58-1.51-25.34-9.46-36.88-14.48-.47-1.12-.03-2.41,1.03-3.01,1.04-.54,2.2-.8,3.37-.78l16.81-.95Z"></path><path class="cls-22" d="M272.31,385.41c2.11,2.58,4.67,4.76,7.55,6.43,2.92,1.67,6.41,2.06,9.63,1.07.55-.24,1.12-.41,1.71-.5.77.03,1.54.19,2.26.47.73.29,1.55.24,2.24-.15.64-.46.72-1.61,0-1.91,1.02-.07,1.81-.92,1.81-1.94-.06-1.01-.8-1.86-1.79-2.06.16-1.1-.56-2.13-1.65-2.37-1.07-.19-2.17.11-3,.8-.23.2-.48.37-.75.5-.36.12-.74.15-1.11.11-2.11-.01-4.21-.28-6.27-.78-2.07-.5-3.9-1.68-5.21-3.36-.99-1.34-1.62-3.27-3.23-3.84-.48-.15-.99-.22-1.5-.2-1.17-.08-2.33.31-3.21,1.08-1.73,1.83,1.3,5.29,2.52,6.65Z"></path><path class="cls-26" d="M244.49,365.05c-2.66,1.45-4.7,3.84-5.72,6.69-.67-1.82-1.18-3.69-1.51-5.6-1.3,2.66-2.12,5.53-2.41,8.47-.3-1.05-.83-2.01-1.54-2.84-2.17,4.11-4.36,8.31-5.11,12.89-.75,4.58.19,9.71,3.52,12.92,1.5,1.45,3.71,2.48,5.65,1.74,1.94-.74,2.76-2.52,3.51-4.24,1.82-4.14,4.2-9.16,4.02-13.75-.09-2.58-.47-5.15-.55-7.75,0-1.03-.63-8.13.15-8.54Z"></path><path class="cls-23" d="M244.49,365.05c-2.66,1.45-4.7,3.84-5.72,6.69-.67-1.82-1.18-3.69-1.51-5.6-1.3,2.66-2.12,5.53-2.41,8.47-.3-1.05-.83-2.01-1.54-2.84-2.17,4.11-4.36,8.31-5.11,12.89-.75,4.58.19,9.71,3.52,12.92,1.5,1.45,3.71,2.48,5.65,1.74,1.94-.74,2.76-2.52,3.51-4.24,1.82-4.14,4.2-9.16,4.02-13.75-.09-2.58-.47-5.15-.55-7.75,0-1.03-.63-8.13.15-8.54Z"></path><path class="cls-26" d="M253.6,412.33c-3.44.09-7.15.13-10-1.79-1.41-1.04-2.63-2.32-3.6-3.78-2.22-2.96-4.39-6.17-4.93-9.84-.53-3.99.92-7.99,3.9-10.71,3.48-3.12,8.39-3.95,12.56-6.05,5.37-2.77,9.38-7.6,11.12-13.39-2.06-.51-3.51-2.36-3.51-4.48.04-2.06.56-4.09,1.51-5.92l3.52-8.23-3.01-11.33c-1.12-3.54-1.76-7.21-1.91-10.92-.13-3.75,1.25-7.41,3.82-10.15.67-.78,1.65-1.22,2.68-1.2,1.7.24,2.36,2.32,2.68,4.02.63,3.43,1.08,6.9,1.34,10.38.36,6.21-.48,12.54.98,18.58,1.89,0,3.2-1.83,3.82-3.61.49-1.82.6-3.73.32-5.6l-1.79-21.61c-.13-.66-.03-1.34.28-1.93.66-.91,2.08-.75,3.08-.28,2.55,1.36,4.43,3.71,5.19,6.49.73,2.76,1.05,5.62.94,8.47,0,5.14-.19,10.4-2.06,15.19-.34.7-.57,1.44-.71,2.21-.06,1.62.41,3.22,1.34,4.55,1.73,3.05,3.74,6.08,4.31,9.55.58,3.47-.78,7.58-4.02,8.88-2.54,4.16-1.71,9.18-.86,13.99l1.61,9.16c.41,2.36.79,4.95-.43,7.01-.2.33-.8.59-.88.2-2.09,1-2.89,2.93-3.84,5.05-.31.85-.67,1.68-1.08,2.49-1.34,2.33-4.22,3.31-6.85,3.95-2.76.69-5.55,1.22-8.37,1.59-2.48.37-5.34.9-7.12-.94Z"></path><path class="cls-21" d="M253.6,412.33c-3.44.09-7.15.13-10-1.79-1.41-1.04-2.63-2.32-3.6-3.78-2.22-2.96-4.39-6.17-4.93-9.84-.53-3.99.92-7.99,3.9-10.71,3.48-3.12,8.39-3.95,12.56-6.05,5.37-2.77,9.38-7.6,11.12-13.39-2.06-.51-3.51-2.36-3.51-4.48.04-2.06.56-4.09,1.51-5.92l3.52-8.23-3.01-11.33c-1.12-3.54-1.76-7.21-1.91-10.92-.13-3.75,1.25-7.41,3.82-10.15.67-.78,1.65-1.22,2.68-1.2,1.7.24,2.36,2.32,2.68,4.02.63,3.43,1.08,6.9,1.34,10.38.36,6.21-.48,12.54.98,18.58,1.89,0,3.2-1.83,3.82-3.61.49-1.82.6-3.73.32-5.6l-1.79-21.61c-.13-.66-.03-1.34.28-1.93.66-.91,2.08-.75,3.08-.28,2.55,1.36,4.43,3.71,5.19,6.49.73,2.76,1.05,5.62.94,8.47,0,5.14-.19,10.4-2.06,15.19-.34.7-.57,1.44-.71,2.21-.06,1.62.41,3.22,1.34,4.55,1.73,3.05,3.74,6.08,4.31,9.55.58,3.47-.78,7.58-4.02,8.88-2.54,4.16-1.71,9.18-.86,13.99l1.61,9.16c.41,2.36.79,4.95-.43,7.01-.2.33-.8.59-.88.2-2.09,1-2.89,2.93-3.84,5.05-.31.85-.67,1.68-1.08,2.49-1.34,2.33-4.22,3.31-6.85,3.95-2.76.69-5.55,1.22-8.37,1.59-2.48.37-5.34.9-7.12-.94Z"></path><path class="cls-26" d="M264.03,370.39l-1.53-.67c-.59-.34-1.27-.46-1.94-.33-.55.18-.94.67-.99,1.24-.02.55.21,1.08.62,1.45.4.36.85.65,1.34.86,1.02.45,2.07.83,3.15,1.12.45.14.93.2,1.41.17.48-.04.91-.33,1.14-.75.09-.24.14-.49.15-.75.08-1.23.19-1.24-.99-1.49-.81-.21-1.59-.49-2.34-.86Z"></path><path class="cls-19" d="M264.03,370.39l-1.53-.67c-.59-.34-1.27-.46-1.94-.33-.55.18-.94.67-.99,1.24-.02.55.21,1.08.62,1.45.4.36.85.65,1.34.86,1.02.45,2.07.83,3.15,1.12.45.14.93.2,1.41.17.48-.04.91-.33,1.14-.75.09-.24.14-.49.15-.75.08-1.23.19-1.24-.99-1.49-.81-.21-1.59-.49-2.34-.86Z"></path><path class="cls-26" d="M264.75,388.11c1.59-3.35,4.43-5.95,7.91-7.23,3.29-1.3,7,.31,8.3,3.6.19.47.32.96.39,1.46.42,2.33.36,4.72-.17,7.03-.61,4.49-2.24,8.79-4.77,12.56-2.68,3.63-6.95,6.33-11.46,6.17-.45-3.28-1.48-6.45-3.05-9.37-1.77-2.85-.95-3.37,0-6.12.73-2.77,1.68-5.48,2.85-8.1Z"></path><path class="cls-20" d="M264.75,388.11c1.59-3.35,4.43-5.95,7.91-7.23,3.29-1.3,7,.31,8.3,3.6.19.47.32.96.39,1.46.42,2.33.36,4.72-.17,7.03-.61,4.49-2.24,8.79-4.77,12.56-2.68,3.63-6.95,6.33-11.46,6.17-.45-3.28-1.48-6.45-3.05-9.37-1.77-2.85-.95-3.37,0-6.12.73-2.77,1.68-5.48,2.85-8.1Z"></path><path class="cls-6" d="M280.97,370c-.61-.62-1.46-.97-2.33-.95-.86.03-1.73,0-2.58-.09-.99-.19-1.91-.74-2.92-.83h-1.47c-1.34-.15-2.48-1.12-3.82-1.11l.25.88-2.57-.25c-.31.7.47,1.34.7,2.06.19,1.1-.52,2.16-1.62,2.4-1.06.19-2.15.13-3.17-.19-.17-.04-.35-.04-.52,0-.39.15-.64.53-.62.95.04.91.55,1.74,1.34,2.2.79.44,1.65.73,2.54.87-.08.95.09,1.9.5,2.76l7.18-1.16-1.16,1.9c2.37-.71,4.89-.85,7.32-.39-3.13,4.3-2.99,10.19-5.35,14.95-1.57,1.02-4.02.6-5.72-.28s-3.44-1.93-5.26-1.5c-.22,2.52,1.1,4.93,3.35,6.09,2.22,1.1,4.63,1.76,7.1,1.95.26.01.51.09.74.23.34.31.54.74.56,1.19.1,1.14.39,2.24.87,3.28.49,1.04,1.53,1.71,2.68,1.73,1.25-.25,2.22-1.24,2.44-2.5.19-1.24.19-2.5,0-3.74-.54-6.81,2.14-13.39,4.27-19.93.16-.33.19-.71.09-1.07-.15-.25-.35-.46-.59-.62-2.49-2.2-3.37-5.71-2.21-8.82Z"></path><path class="cls-3" d="M277.46,359.5c-.45-.06-.92,0-1.34.19-.45.22-.63.75-.42,1.2,0,0,0,0,0,0,.08.09.18.18.28.25l1.75,1.34c.17.16.38.28.6.35.56.13,1.08-.35,1.34-.86.26-.4.4-.86.39-1.34-.16-1.34-1.65-1.08-2.61-1.14Z"></path><circle class="cls-4" cx="267.53" cy="355.65" r="1.12"></circle><circle class="cls-5" cx="281.18" cy="354.77" r="1.12"></circle><path class="cls-26" d="M278.26,364.52c-.32.46-.79.79-1.34.94-.54.12-1.09.19-1.65.19-.09.17.15.35.35.39.94.22,1.92,0,2.68-.59.56.36,1.24.49,1.89.36.07,0,.13-.04.17-.09.09-.15-.12-.29-.29-.31-.47,0-1.04.08-1.34-.29-.15-.28-.18-.6-.07-.9,0-.19.43-1.49,0-1.26s-.19,1.2-.4,1.57Z"></path><path class="cls-26" d="M265.36,338.15c.56-2.85,1.49-5.62,1.86-8.5.51-4.04-.11-8.15-1.78-11.86-.06-.19-.19-.36-.36-.47-.23-.08-.49-.04-.7.09-1.71.92-2.63,2.83-2.3,4.74,0-.38-.22-.73-.56-.9-1.22,1.48-1.82,3.37-1.67,5.27.16,1.89.57,3.75,1.2,5.53l2.56,8.25c-.21-1.34-.13-2.71.23-4.02.13,3.04.52,6.05,1.16,9.02.29-2.44-.11-4.75.36-7.16Z"></path><path class="cls-26" d="M279.09,326.63c-.19-3.67-1.1-7.27-2.68-10.59,2.04,1.5,3.46,3.69,4.02,6.16,2.25,7.6,1.47,15.79-2.18,22.83,1.34-1.43.29-6.69.44-8.66.35-3.23.48-6.48.4-9.73Z"></path><path class="cls-13" d="M265.36,338.15c.56-2.85,1.49-5.62,1.86-8.5.51-4.04-.11-8.15-1.78-11.86-.06-.19-.19-.36-.36-.47-.23-.08-.49-.04-.7.09-1.71.92-2.63,2.83-2.3,4.74,0-.38-.22-.73-.56-.9-1.22,1.48-1.82,3.37-1.67,5.27.16,1.89.57,3.75,1.2,5.53l2.56,8.25c-.21-1.34-.13-2.71.23-4.02.13,3.04.52,6.05,1.16,9.02.29-2.44-.11-4.75.36-7.16Z"></path><path class="cls-10" d="M279.09,326.63c-.19-3.67-1.1-7.27-2.68-10.59,2.04,1.5,3.46,3.69,4.02,6.16,2.25,7.6,1.47,15.79-2.18,22.83,1.34-1.43.29-6.69.44-8.66.35-3.23.48-6.48.4-9.73Z"></path><path class="cls-25" d="M258.6,389.44c2.1,2.58,4.66,4.76,7.55,6.43,2.92,1.67,6.41,2.06,9.63,1.07.54-.24,1.11-.41,1.7-.5.78.03,1.55.19,2.28.47.73.28,1.55.23,2.24-.15.63-.46.72-1.61,0-1.91,1.02-.07,1.82-.92,1.82-1.94-.06-1.01-.8-1.86-1.79-2.06.15-1.1-.56-2.13-1.65-2.37-1.07-.19-2.17.1-3,.8-.23.2-.49.37-.76.5-.36.12-.74.15-1.11.11-2.11-.02-4.21-.28-6.25-.78-2.07-.5-3.9-1.68-5.21-3.36-.99-1.34-1.62-3.27-3.23-3.84-.48-.15-.99-.22-1.5-.2-1.17-.08-2.33.31-3.21,1.08-1.71,1.82,1.31,5.29,2.5,6.65Z"></path><path class="cls-26" d="M265.29,403.35c1.73,2.88,1.74,6.93-.6,9.37l12.65.7c.66-.02,1.3.13,1.89.43.61.31.89,1.02.66,1.66-.18.31-.46.56-.79.71-2.68,1.41-6.06.25-9.12.7l-.15.9c-7.89.78-15.86,1.55-23.71.47-.98-.04-1.91-.39-2.68-1-1.42-1.34-.72-3.75-1.27-5.64-.55-1.89-2.45-3.28-3.32-5.13-1.04-2.3-.43-5,1.5-6.63,1.93-1.57,4.63-1.65,7.12-1.65,6.36,0,14.19-1.74,17.82,5.11Z"></path><path class="cls-8" d="M265.29,403.35c1.73,2.88,1.74,6.93-.6,9.37l12.65.7c.66-.02,1.3.13,1.89.43.61.31.89,1.02.66,1.66-.18.31-.46.56-.79.71-2.68,1.41-6.06.25-9.12.7l-.15.9c-7.89.78-15.86,1.55-23.71.47-.98-.04-1.91-.39-2.68-1-1.42-1.34-.72-3.75-1.27-5.64-.55-1.89-2.45-3.28-3.32-5.13-1.04-2.3-.43-5,1.5-6.63,1.93-1.57,4.63-1.65,7.12-1.65,6.36,0,14.19-1.74,17.82,5.11Z"></path><path class="cls-26" d="M268.44,368.54c-.27-.1-.56-.12-.84-.07-.33.13-.57.43-.63.78-.05.35,0,.7.12,1.03.06.13.06.28,0,.41-.06.09-.14.16-.24.2-.59.41-1.02,1.01-1.23,1.7-.2.69-.31,1.4-.31,2.12-.03.24,0,.48.07.71.15.32.39.59.7.78.45.38.97.67,1.54.83.83.09,1.67-.11,2.37-.56,1.2-.66,2.34-1.43,3.57-2.02.27-.15.56-.23.87-.24.38.06.73.22,1.03.47,1.39.9,2.98,1.44,4.63,1.58.35.05.7.01,1.03-.12.33-.15.5-.52.41-.87-.11-.2-.27-.38-.46-.52-.2-.14-.28-.4-.2-.63.07-.1.17-.18.28-.24.91-.61,1.5-1.59,1.62-2.68.04-.18.04-.36,0-.54-.06-.12-.16-.23-.27-.31-.69-.49-1.54-.72-2.38-.66-2.06,0-4.02.66-6.12.68-.91-.08-1.79-.36-2.57-.83-.98-.4-1.98-.73-3-1Z"></path><path class="cls-7" d="M268.44,368.54c-.27-.1-.56-.12-.84-.07-.33.13-.57.43-.63.78-.05.35,0,.7.12,1.03.06.13.06.28,0,.41-.06.09-.14.16-.24.2-.59.41-1.02,1.01-1.23,1.7-.2.69-.31,1.4-.31,2.12-.03.24,0,.48.07.71.15.32.39.59.7.78.45.38.97.67,1.54.83.83.09,1.67-.11,2.37-.56,1.2-.66,2.34-1.43,3.57-2.02.27-.15.56-.23.87-.24.38.06.73.22,1.03.47,1.39.9,2.98,1.44,4.63,1.58.35.05.7.01,1.03-.12.33-.15.5-.52.41-.87-.11-.2-.27-.38-.46-.52-.2-.14-.28-.4-.2-.63.07-.1.17-.18.28-.24.91-.61,1.5-1.59,1.62-2.68.04-.18.04-.36,0-.54-.06-.12-.16-.23-.27-.31-.69-.49-1.54-.72-2.38-.66-2.06,0-4.02.66-6.12.68-.91-.08-1.79-.36-2.57-.83-.98-.4-1.98-.73-3-1Z"></path><path class="cls-26" d="M273.39,370.48c-.07-.02-.14-.02-.2,0-.05.05-.09.11-.11.17-.49,1.45-.49,3.01,0,4.46.04.16.12.3.24.41.12.08.25.13.39.15.37.05.75.05,1.12,0,.13,0,.26-.04.37-.11.11-.09.2-.2.25-.33.52-.99.79-2.1.78-3.23,0-.6-.11-1.23-.72-1.42-.7-.14-1.42-.18-2.13-.11Z"></path><path class="cls-12" d="M273.39,370.48c-.07-.02-.14-.02-.2,0-.05.05-.09.11-.11.17-.49,1.45-.49,3.01,0,4.46.04.16.12.3.24.41.12.08.25.13.39.15.37.05.75.05,1.12,0,.13,0,.26-.04.37-.11.11-.09.2-.2.25-.33.52-.99.79-2.1.78-3.23,0-.6-.11-1.23-.72-1.42-.7-.14-1.42-.18-2.13-.11Z"></path><path class="cls-26" d="M341.2,228.66v.46c.02,6.2-.46,12.38-1.43,18.5-1.6,10.69-5.18,20.98-10.56,30.35-.27.47-.55.94-.83,1.34-3.06,5.04-6.71,9.69-10.87,13.87-16.95,17.12-41.5,25.44-67.78,25.44-23.8,0-44.74-6.69-59.97-20.64-4.04-3.68-7.63-7.81-10.71-12.33-5.55-8.28-9.56-17.5-11.83-27.2-2.28-9.58-3.39-19.4-3.31-29.25v-4.02c.09-3.55.32-7.16.67-10.82.75-7.79,1.97-15.53,3.65-23.17,8.13-37.48,27.02-75.76,51.18-95.24,10.21-8.23,21.42-13.11,33.05-13.11,48.98-.03,88.54,84.9,88.74,145.83Z"></path><path class="cls-9" d="M341.2,228.66v.46c.02,6.2-.46,12.38-1.43,18.5-1.6,10.69-5.18,20.98-10.56,30.35-.27.47-.55.94-.83,1.34-3.06,5.04-6.71,9.69-10.87,13.87-16.95,17.12-41.5,25.44-67.78,25.44-23.8,0-44.74-6.69-59.97-20.64-4.04-3.68-7.63-7.81-10.71-12.33-5.55-8.28-9.56-17.5-11.83-27.2-2.28-9.58-3.39-19.4-3.31-29.25v-4.02c.09-3.55.32-7.16.67-10.82.75-7.79,1.97-15.53,3.65-23.17,8.13-37.48,27.02-75.76,51.18-95.24,10.21-8.23,21.42-13.11,33.05-13.11,48.98-.03,88.54,84.9,88.74,145.83Z"></path><path class="cls-26" d="M341.18,229.11c0,20.31-4.71,37.02-12.81,50.24-16.06,11.85-36.79,17.58-58.76,17.58-48.94,0-85.83-28.43-85.83-89.44,0-36.28,14.04-81.17,35.72-111.58,10.23-8.25,21.42-13.11,33.07-13.11,48.94,0,88.61,85.3,88.61,146.31Z"></path><path class="cls-15" d="M341.18,229.11c0,20.31-4.71,37.02-12.81,50.24-16.06,11.85-36.79,17.58-58.76,17.58-48.94,0-85.83-28.43-85.83-89.44,0-36.28,14.04-81.17,35.72-111.58,10.23-8.25,21.42-13.11,33.07-13.11,48.94,0,88.61,85.3,88.61,146.31Z"></path><polygon class="cls-26" points="177.6 159.82 196.39 166.29 222.25 155.11 243.99 166.29 266.33 155.11 286.91 168.63 308.08 155.11 328.29 161.87 333.36 177.45 311.01 168.34 281.62 181.56 263.05 168.34 241.94 182.74 219.01 166.29 191.67 186.27 172.45 175.1 177.6 159.82"></polygon><polygon class="cls-25" points="177.6 159.82 196.39 166.29 222.25 155.11 243.99 166.29 266.33 155.11 286.91 168.63 308.08 155.11 328.29 161.87 333.36 177.45 311.01 168.34 281.62 181.56 263.05 168.34 241.94 182.74 219.01 166.29 191.67 186.27 172.45 175.1 177.6 159.82"></polygon><path class="cls-24" d="M341.2,228.66v.46c.02,6.2-.46,12.38-1.43,18.5-4.23-2.91-8.1-6.31-11.53-10.12-2.52-2.81-5.06-5.98-8.72-6.92-4.1-1.04-8.38,1.15-11.54,4.02-3.16,2.86-5.68,6.37-9.08,8.9-4.82,3.53-10.93,4.79-16.75,3.45-5.52-1.34-10.2-4.85-15.07-7.76-4.87-2.92-10.58-5.35-16.06-4.02-8.1,1.85-12.45,10.51-19.14,15.4-8.57,5.97-20.06,5.59-28.21-.95-4.57-3.82-8.3-9.76-14.24-10.08-5.53-.32-9.88,4.46-13,9-2.56,3.74-5.27,7.86-9.12,9.91-2.28-9.58-3.39-19.4-3.31-29.25v-4.02c.13.04.25.1.36.17,5.89-6.54,15.47-8.25,23.25-4.15,4.22,2.38,7.34,6.27,11.34,8.98,6.21,4.1,13.97,5.09,21,2.68,8.03-2.77,13.86-9.56,18.89-16.36,3.47-4.7,11.15-3.64,16.76-1.99,5.61,1.65,10.43,5.19,14.73,9.14,5.11,4.7,10.5,10.42,17.4,10.46,7.59,0,13.39-6.87,16.51-13.79,1.26-2.8,2.45-5.92,5.06-7.51,1.79-.91,3.76-1.42,5.77-1.5,5.64-.59,11.98-.99,16.31,2.68,4.32,3.67,5.21,10.82,9.71,14.65l.11.04Z"></path><path class="cls-25" d="M329.2,277.96c-.27.47-.55.94-.83,1.34-3.06,5.04-6.71,9.69-10.87,13.87-4.74.33-9.51-.08-14.12-1.22-7.31-1.9-13.94-6.09-21.42-7.44-16.2-2.95-32.01,8.03-48.46,7.47-5.98-.21-11.78-1.95-17.7-2.82-5.92-.87-12.29-.86-17.4,2.18-3.13,1.83-5.58,4.66-8.65,6.56-4.04-3.68-7.63-7.81-10.71-12.33,6.51-.65,12.8-2.71,18.43-6.05,6.33-3.87,12.84-9.12,20.17-8.03,3.83.52,7.19,2.76,10.71,4.44,5.72,2.76,12.01,4.14,18.35,4.02,3.65.07,7.26-.72,10.55-2.32,2.36-1.24,4.35-3,6.63-4.34,4.81-2.8,10.48-3.48,16-4.1,2.66-.46,5.37-.46,8.03,0,4.38.99,7.78,4.31,11.67,6.57,8.84,5.1,19.36,4.42,29.61,2.2Z"></path><circle class="cls-25" cx="214.08" cy="202.87" r="11.75"></circle><circle class="cls-25" cx="265.91" cy="199.19" r="11.75"></circle><circle class="cls-25" cx="309.17" cy="193.84" r="11.75"></circle><path class="cls-25" d="M179.1,202.87c0,6.49-5.26,11.75-11.75,11.75-.9,0-1.8-.1-2.68-.31.75-7.79,1.97-15.53,3.65-23.17,6.09.52,10.77,5.61,10.78,11.73Z"></path><path class="cls-25" d="M179.1,260.91c-.45.14-.85.42-1.15.79-.22.39-.34.83-.33,1.27l-.16,2.05c-.07.45-.05.9.07,1.34.55,1.08,1.74,1.67,2.93,1.46,1.9-.26,3.76-.77,5.52-1.54,5.21-1.77,10.82-1.74,16.31-1.83,1.14,0,2.49-.16,3.04-1.15,1.95-3.49-7.52-5.35-9.61-5.35-5.69-.28-11.36.74-16.6,2.97Z"></path><path class="cls-25" d="M240.75,255.91c-2.22.71-4.59,1.71-5.74,3.76-.27.39-.37.88-.25,1.34.27.82,1.34.94,2.21.91l24.86-.82c2.41-.08,4.71-1.91,4.02-4.61-.59-2.45-2.8-2.68-4.97-2.95-6.8-.61-13.65.19-20.12,2.36Z"></path><path class="cls-25" d="M301.34,250.87c-3.87-.22-7.76.11-11.54.96-1,.28-2.12.78-2.37,1.79-.1.96.31,1.9,1.1,2.46,1.89,1.49,4.2,2.35,6.6,2.45,2.37.2,4.77,0,7.14.24,5.27.44,10.71,2.68,15.64.58.28-.09.52-.26.71-.48,1.99-2.68-2.85-6.87-5.15-7.58-3.63-1.12-8.37-.4-12.12-.43Z"></path><polygon class="cls-26" points="177.51 266.32 214.08 378.63 218.69 381.18 180.44 267.78 177.51 266.32"></polygon><polygon class="cls-26" points="333.87 266.32 297.3 378.63 292.69 381.18 330.95 267.78 333.87 266.32"></polygon><polygon class="cls-26" points="259.52 270.96 254.25 383.49 250.35 386.04 257 272.41 259.52 270.96"></polygon><path class="cls-26" d="M255.6,381.69c-8.57-1.63-16.06-6.69-24.51-9.06-5.66-1.61-11.59-1.99-17.4-1.12-1.08.1-2.14.43-3.09.95-1.24.89-2.18,2.14-2.68,3.59-2.26,5.5-2.08,11.67-1.86,17.62l1.03,28.41c.12,3.48.33,7.2,2.44,9.99,2.37,3.15,6.53,4.27,10.39,5.03,23.51,4.67,47.78,3.9,70.95-2.25,2.5-.67,5.15-1.5,6.79-3.51,1.21-1.74,1.95-3.77,2.14-5.89,1.37-8.57,2.01-17.25,1.91-25.93,0-5.06,1.93-19.97-2.16-23.45-4.08-3.48-15.3,2.09-19.8,3.31-7.76,2.13-15.96,3.91-24.15,2.33Z"></path><path class="cls-11" d="M301.84,399.51c.1,8.68-.54,17.36-1.91,25.93-.19,2.12-.93,4.15-2.14,5.89-1.63,1.99-4.28,2.84-6.79,3.49-23.17,6.17-47.44,6.94-70.95,2.26-3.86-.76-8.03-1.87-10.39-5.03-2.1-2.77-2.32-6.52-2.44-9.97-.35-9.5-.69-18.97-1.03-28.43-.21-5.93-.4-12.05,1.86-17.59.49-1.45,1.43-2.71,2.68-3.59.95-.53,2.01-.86,3.09-.96,5.82-.86,11.75-.47,17.4,1.14,7.56,2.16,14.43,6.45,21.98,8.46.83.24,1.67.41,2.53.59,8.19,1.57,16.37-.19,24.28-2.34,4.5-1.19,15.53-6.95,19.8-3.29,4.27,3.65,2.01,18.41,2.02,23.45Z"></path><path class="cls-14" d="M250.75,425.36c.23,3.78,1.97,9.52,2.6,14.73-11.2.2-22.38-.8-33.36-3-3.86-.76-8.03-1.87-10.39-5.03-2.1-2.77-2.32-6.52-2.44-9.97-.35-9.5-.69-18.97-1.03-28.43-.21-5.93-.4-12.05,1.86-17.59.49-1.45,1.43-2.71,2.68-3.59.95-.53,2.01-.86,3.09-.96,5.82-.86,11.75-.47,17.4,1.14,7.56,2.16,14.43,6.45,21.98,8.46,1.34,4.69.23,10.2-.66,15.17-1.72,9.59-2.31,19.36-1.74,29.09Z"></path></g></svg>