<svg transform="scale(1)" id="tYwxMPF1iu" xmlns="http://www.w3.org/2000/svg" xmlns:xlink="http://www.w3.org/1999/xlink" viewBox="0 0 500 500" class="pbimage_pbimage__wrapper__image__0LEis false"><title>Flying Kite</title><defs><style> .cls-1{fill:none;stroke:#fff;stroke-miterlimit:10;stroke-width:1.31px;} .cls-2{fill:url(#linear-gradient-tYwxMPF1iu);} .cls-2, .cls-3, .cls-4, .cls-5, .cls-6, .cls-7, .cls-8, .cls-9, .cls-10, .cls-11{stroke-width:0px;} .cls-3{opacity:.18;} .cls-3, .cls-4{isolation:isolate;} .cls-3, .cls-4, .cls-11{fill:#68e1fd;} .cls-4{opacity:.39;} .cls-5{fill:url(#linear-gradient-4-tYwxMPF1iu);} .cls-6{fill:url(#linear-gradient-2-tYwxMPF1iu);} .cls-7{fill:url(#linear-gradient-3-tYwxMPF1iu);} .cls-8{fill:url(#linear-gradient-5-tYwxMPF1iu);} .cls-9{fill:url(#linear-gradient-6-tYwxMPF1iu);} .cls-10{fill:#fff;}
 .cls-3, .cls-4, .cls-11{fill:#FFC727;}
 .cls-10{fill:#FFFFFF;}</style><linearGradient id="linear-gradient-tYwxMPF1iu" x1="-8.33" y1="3109.44" x2="-144.35" y2="3061.31" gradientTransform="translate(-586.15 3102.64) rotate(17.35) scale(1.01 -1.01)" gradientUnits="userSpaceOnUse"><stop offset="0" stop-color="#231f20" style="stop-color: rgb(35, 31, 32);"></stop><stop offset=".13" stop-color="#231f20" stop-opacity=".69" style="stop-color: rgb(35, 31, 32);"></stop><stop offset=".25" stop-color="#231f20" stop-opacity=".32" style="stop-color: rgb(35, 31, 32);"></stop><stop offset="1" stop-color="#231f20" stop-opacity="0" style="stop-color: rgb(35, 31, 32);"></stop></linearGradient><linearGradient id="linear-gradient-2-tYwxMPF1iu" x1="382.48" y1="2840.51" x2="402.78" y2="2781.62" gradientTransform="translate(-62.34 2922.73) scale(1 -1)" xlink:href="#linear-gradient-tYwxMPF1iu"></linearGradient><linearGradient id="linear-gradient-3-tYwxMPF1iu" x1="367.47" y1="2791.48" x2="372.37" y2="2822.32" gradientTransform="translate(-62.34 2922.73) scale(1 -1)" xlink:href="#linear-gradient-tYwxMPF1iu"></linearGradient><linearGradient id="linear-gradient-4-tYwxMPF1iu" x1="142.82" y1="2769.81" x2="430.39" y2="2574.44" gradientTransform="translate(-62.34 2922.73) scale(1 -1)" xlink:href="#linear-gradient-tYwxMPF1iu"></linearGradient><linearGradient id="linear-gradient-5-tYwxMPF1iu" x1="26.58" y1="2821.45" x2="671.3" y2="2383.46" gradientTransform="translate(-62.34 2922.73) scale(1 -1)" xlink:href="#linear-gradient-tYwxMPF1iu"></linearGradient><linearGradient id="linear-gradient-6-tYwxMPF1iu" x1="-92.81" y1="2711.8" x2="722.34" y2="2598.42" gradientTransform="translate(-62.34 2922.73) scale(1 -1)" xlink:href="#linear-gradient-tYwxMPF1iu"></linearGradient></defs><g id="background"><path class="cls-3" d="M476.63,372.98c-20.33,29.62-54.72,47.26-89.89,54.59-35.17,7.32-71.47,5.41-107.38,3.11-35.64-2.31-72.17-5.22-107.67.21-30.63,4.69-60.88,10.12-88.14-9.43-10.21-7.32-18.28-17.23-25.48-27.53-20.01-28.72-35.54-63.87-39.04-98.85-3.41-34.21-.9-69.69,9.8-102.14,5.04-15.55,12.15-30.35,21.15-44,3.9-5.86,8.15-11.48,12.73-16.83.38-.47.78-.94,1.2-1.4,8.29-9.49,17.44-18.2,27.33-26.02,11.02-8.7,22.75-16.46,35.05-23.21,18.84-10.42,38.9-18.46,59.73-23.92,26.03-6.94,53.14-8.84,79.88-5.6,47.95,6.18,94.13,32.14,119.96,73.03,21.23,33.59,29.21,76.57,59.5,102.3,7.56,6.42,16.23,11.48,23.5,18.21,11.87,10.95,19.58,25.97,23.4,41.65,7.08,29.53,1.42,60.67-15.61,85.82Z"></path><path class="cls-10" d="M261.12,162.44c-.54,6.42-9.01,8.19-15.46,8.3-27.41.47-54.77,2.53-81.94,6.19-6.53.87-13.15,1.91-18.67,5.41-3.92,2.48-7.01,6.06-10.71,8.86-14.28,10.85-34.81,8.26-51.27,1.15-4.15,10.6-14.03,17.87-25.38,18.67-11.37.44-21.97-5.71-27.23-15.8-.35-.87-.91-1.65-1.63-2.26,5.04-15.55,12.15-30.35,21.15-44,3.9-5.86,8.15-11.48,12.73-16.83.62,1.22,1.17,2.47,1.66,3.75-.61-1.64-.77-3.42-.46-5.14,8.29-9.53,17.43-18.27,27.33-26.11,10.99-4.91,24.01-7.02,35.15-2.7,9.14,3.54,16.62,12.69,15.76,22.48,5.54-8.6,17.13-10.54,27.34-11.02,2.53-.3,5.1.01,7.48.91,4.05,1.91,5.81,6.74,6.32,11.19s.24,9.14,1.92,13.24c3.85-5.34,12.34-5.68,17.68-1.83,5.34,3.85,7.76,10.76,7.9,17.34,12.42-4.27,25.77-5.07,38.61-2.31,5.61,1.28,12.22,4.78,11.74,10.51Z" fill="#FFFFFF"></path><path class="cls-10" d="M303.52,302.8c-16.71-2.38-33.94,11.44-35.25,28.27-.39,5.04.61,10.44,4.06,14.14,3.71,3.92,9.49,5.22,14.91,5.51,11.48.65,22.92-1.84,33.08-7.21,1.93-1.02,3.92-2.18,6.15-1.98,1.83.35,3.55,1.11,5.03,2.23,12.16,7.34,27.15,8.25,40.11,2.44,6.25-2.89,12.43-7.42,19.27-6.53,3.26.42,6.23,2.05,9.22,3.42,24.64,11.32,56.26,4.8,74.42-15.31,3.69-4.09,7.02-9.44,5.71-14.79-.82-2.71-2.37-5.15-4.48-7.05-9.14-9.14-22.68-13.06-35.64-12.66-1.83.25-3.7.02-5.42-.68-1.76-.95-2.74-2.86-3.75-4.6-11.37-19.58-36.46-23.87-55.8-15.01-6.61-16.66-25.22-5.29-36.15-1.45-15.72,5.51-29.38,15.01-35.46,31.27Z" fill="#FFFFFF"></path></g><g id="birds"><path class="cls-11" d="M289.65,101.46c-2.17-2.04-4.26-4.33-7.05-5.37-2.9-.85-5.98-.78-8.84.18-2.83.98-5.72,1.8-8.64,2.47-2.89.47-5.86.26-8.76.72-.3.01-.58.1-.84.26-.36.3-.56.76-.54,1.23,0,1.75,1.8,2.95,3.45,3.55,2.13.78,4.39,1.14,6.66,1.06-.22,1.49,1.55,2.47,3.04,2.75,1.91.37,3.86.37,5.77,0,.63,1.27,1.89,2.1,3.3,2.18,1.44.05,2.78-.73,3.46-2,.97,1.43,2.64,2.23,4.36,2.09,1.7,0,3.36-.52,5.04-.67,2.42-.09,4.84.24,7.14.98,1.21.34,10.18.95,11.03-.42.85-1.37-7.27-2.02-8.34-2.47-3.79-1.53-7.27-3.75-10.25-6.55Z"></path><path class="cls-2" d="M289.16,102.47c-2.08-2.12-4.07-4.48-6.8-5.6-2.84-.96-5.92-1-8.79-.12-2.84.88-5.73,1.61-8.66,2.17-2.89.38-5.84,0-8.72.43-.3,0-.58.09-.84.25-.37.28-.59.73-.57,1.2,0,1.75,1.66,3,3.28,3.66,2.07.85,4.29,1.29,6.53,1.31-.27,1.49,1.45,2.52,2.92,2.85,1.88.42,3.82.47,5.72.16.72,1.92,2.86,2.88,4.78,2.16.81-.31,1.49-.89,1.92-1.65.91,1.46,2.54,2.31,4.26,2.23,1.68,0,3.34-.4,5.03-.5,2.4-.02,4.79.39,7.05,1.21,1.19.37,3.45,1.31,4.33-.09.89-1.4-.51-2.23-1.55-2.7-3.7-1.68-7.05-4.04-9.88-6.96Z"></path><path class="cls-11" d="M325.88,122.4c-.07.1-.15.2-.23.29-.87.88-2.04,1.38-3.28,1.42-.84.08-1.68.08-2.52,0-7.47-.63-14.81-2.39-21.75-5.22-1.76-.83-3.59-1.53-5.46-2.09-1.91-.46-3.92-.54-5.81-.95-2.74-.61-5.3-1.88-7.44-3.69-.57-.47-1.06-1.03-1.45-1.66-.84-1.02-.94-2.45-.26-3.58,1.08-1.51,3.42-1.2,5.13-.48,1.45.6,2.83,1.37,4.1,2.3,1.75.38,3.42,1.5,5.22,1.98,3.92,1.04,7.92-1.07,11.95-1.59,4.5-.59,9.01.87,13.23,2.61,2.85,1.15,5.76,2.48,7.69,4.86.43.52.78,1.09,1.04,1.71.64,1.31.58,2.85-.16,4.1Z"></path><path class="cls-11" d="M350.24,119.7c-.19,1.36-1.07,2.53-2.32,3.09-1.23.55-2.57.83-3.92.84-2.7.15-5.41.01-8.08-.42,1.49,1.01,2.98,2.01,4.48,3-1.21.6-2.57.85-3.92.73-2.17-.22-4.29-.78-6.28-1.66-.5.85-1.46,1.33-2.44,1.2-.96-.14-1.88-.47-2.7-.98l-2.69-1.4-1.63-.85c-.63-.29-1.21-.69-1.71-1.18-.16-.17-.29-.37-.39-.57-.26-.49-.46-1.01-.61-1.54-.8-2.49-.98-4.47,2.3-3.62,1.91.5,3.77,1.31,5.71,1.87.6.16,1.21.27,1.83.34,2.41.2,4.82.15,7.22-.14,5.09-.33,10.21.1,15.17,1.28Z"></path><path class="cls-11" d="M304.96,108.47c3.34-2.18,5.88-5.31,9.64-6.85,1.78-.64,3.65-1.03,5.54-1.14,2.6-.28,5.22-.36,7.83-.22,6.53.43,12.78,2.83,19.3,2.94,2.08,0,4.15-.17,6.21,0-.15,1.59-1.15,2.96-2.61,3.6-1.42.64-2.97.93-4.52.85.67.26,1,1.02.74,1.69-.19.49-.66.81-1.18.83.95,1,2.26,1.59,3.64,1.63,1.1.2,2.44.9.78,1.49-1.43.37-2.91.55-4.39.54-1.64.12-3.28-.26-4.7-1.1l1.97,1.68c-2.39,1.18-5.21,1.11-7.53-.18.46.76-.25,1.78-1.11,1.97-.9.12-1.82-.07-2.61-.52-2.26-1.16-4.65-2.04-7.13-2.61-4.97-.87-9.97.93-14.95,1.78-3.32.56-12.49.91-13.46-3.64,3.02-.22,5.95-1.16,8.54-2.73Z"></path><path class="cls-10" d="M275.11,107.59c-.33.12-.62.31-.86.56-.91.85-1.2,2.17-.74,3.33.53-.66,1.26-1.12,2.09-1.31,1-.07,2.01.14,2.9.61l1.46.61c-.22-.09-.61-1.54-.76-1.83-.28-.56-.65-1.07-1.1-1.51-.86-.63-1.98-.81-2.99-.47Z"></path><path class="cls-6" d="M308.75,111.89c2.1-.81,4.13-1.8,6.06-2.96,1.76-1.37,3.67-2.55,5.69-3.51,1.14-.37,2.32-.59,3.51-.67,3.79-.34,7.62-.14,11.36.57,4.88.94,9.75.82,14.71,1.04-.7,1.06-1.92,1.66-3.19,1.57.48.68.32,1.62-.35,2.12-.18.12-.38.2-.59.25,1.3.92,2.77,1.57,4.32,1.91-1.14,1.03-2.63,1.58-4.16,1.55-1.52-.04-3.01-.4-4.39-1.06,0,.94,1.44,1.71.93,2.51-.12.17-.3.3-.5.37-1.85.84-4,0-5.85-.9-.09.87-.73,1.58-1.58,1.78-.73.08-1.48-.04-2.14-.37-2.31-.9-4.54-2.01-6.91-2.73-2.35-.83-4.89-.96-7.31-.37-.8.22-1.55.56-2.35.78-2.59.58-5.29-.12-7.27-1.88Z"></path><path class="cls-7" d="M336.48,126.94c-2.17-.22-4.29-.78-6.28-1.66-.5.85-1.46,1.33-2.44,1.2-.96-.14-1.88-.47-2.7-.98l-2.69-1.4c-.84.08-1.68.08-2.52,0-7.47-.63-14.81-2.39-21.75-5.22-1.76-.83-3.59-1.53-5.46-2.09-1.91-.46-3.92-.54-5.81-.95-2.74-.61-5.3-1.88-7.44-3.69-.57-.47-1.06-1.03-1.45-1.66v-.17c-.25-.98.12-2.02.94-2.61,3.51,3.81,8.64,5.63,13.59,7.18,6.87,2.15,13.81,4.09,20.89,5.61,1.79.39,3.58.74,5.37,1.07,2.34.44,4.68.84,7.01,1.18l1.31.2c.43.12.9.08,1.31-.1.27-.16.48-.43.8-.51.39-.03.77.11,1.06.38,1.4,1.01,5.61,2.04,6.33,3.45.11.25.09.55-.05.78Z"></path><path class="cls-11" d="M274.87,133.27c.78-.16,1.52-.44,2.21-.85,2.27-1.08,4.88-1.23,7.26-.4-1.18-.12-2.36.24-3.28,1.01,3.37,0,6.73-.1,10.09-.3l-3.41-1.2c2.72-1.45,5.97-1.5,8.73-.14-.8-1.79-3.04-2.08-4.91-2.1-1.48-.13-2.97.14-4.31.78-.59.35-.91.89-1.61.94s-1.54-.5-2.19-.61c-3.16-.52-6.38.56-8.59,2.89Z"></path><path class="cls-11" d="M303.52,142.05c.62-.15,1.21-.44,1.71-.84,1.68-1.09,3.8-1.25,5.61-.4-.94-.07-1.86.29-2.49.98,2.61,0,5.22-.1,7.83-.3l-2.61-1.19c2.01-1.43,4.7-1.48,6.75-.1-.61-1.79-2.35-2.08-3.79-2.1-1.17-.13-2.34.15-3.33.78-.46.35-.72.87-1.31.94s-1.2-.51-1.7-.61c-2.6-.49-5.24.63-6.68,2.85Z"></path><path class="cls-11" d="M242.33,136.28c.63-.15,1.21-.44,1.71-.85,1.68-1.08,3.8-1.23,5.61-.39-.98-.12-1.96.25-2.61.99,2.61,0,5.22-.1,7.83-.3l-2.61-1.19c2.01-1.43,4.7-1.48,6.76-.12-.63-1.78-2.36-2.06-3.8-2.09-1.17-.13-2.34.15-3.33.78-.46.35-.71.87-1.31.93s-1.2-.5-1.7-.6c-2.56-.45-5.14.67-6.57,2.83Z"></path></g><g id="kite"><path class="cls-11" d="M265.79,185.33l-18.41,167.68-1.98,18.6c-34.4-33.33-141.73-109.45-141.73-109.45l46.87-113.68,4.86,1.55,110.4,35.29Z"></path><path class="cls-5" d="M103.65,262.17s61.62-83.24,162.14-76.86c0,0-97.45,5.56-162.14,76.86Z"></path><polygon class="cls-8" points="150.54 148.5 245.4 371.62 149.09 152.01 150.54 148.5"></polygon><path class="cls-4" d="M301.64,186.54c20.69,7.53,37.51,26.44,59.52,27.16,10.17.34,19.98-3.38,29.47-7.04-15.26,7.68-23.32,27.3-17.83,43.48-6.53-11.99-23.62-11.75-35.49-18.46-10.91-6.19-17.16-18.37-27.42-25.5-6.23-4.3-13.5-6.41-20.89-7.98-5.08-1.07-20.69-.93-23.97-5.41-9.39-12.87,31.87-7.89,36.61-6.25Z"></path><path class="cls-4" d="M291.07,388.42c18.74.95,37.04-4.91,55.13-9.84,18.1-4.94,37.25-9.02,55.46-4.52,18.21,4.5,33.74,17.48,45.7,32.21-15.14-1.82-30.43,1.79-43.16,10.18-11.08-14.62-31.12-19.19-49.47-19.19s-36.8,3.54-54.94.74c-19.94-3.08-42.54-15.14-52.5-33.1,10.24,14.11,26.36,22.77,43.78,23.51Z"></path><path class="cls-4" d="M112.47,327.22c8.75,10.44,20.15,18.38,29.88,27.95,9.74,9.57,18.17,21.8,18.28,35.46,5.61-7.62,14.11-12.61,23.5-13.8-6.96-3.26-9.92-11.35-14.36-17.59-3.92-5.37-9.14-9.56-14.36-13.54-13.68-10.31-28.21-19.94-39.08-33.19-10.6-12.93-16.76-29.47-13.42-46.18-14.18,15.63-1.91,47.11,9.56,60.88Z"></path><polyline class="cls-1" points="149.09 152.01 103.65 343.33 58.06 393.91"></polyline><line class="cls-1" x1="103.65" y1="343.31" x2="245.4" y2="371.62"></line><path class="cls-9" d="M247.38,353l-1.98,18.6c-34.4-33.33-141.73-109.45-141.73-109.45l46.87-113.68,4.86,1.55c-.03,2.35-.32,4.69-.87,6.97-2.1,10.21-5.89,20-8.02,30.25-1.53,7.4-3.03,14.82-4.56,22.19-.73,3.6-1.62,18.54-4.23,20.68,23.36-19.09,51.3-31.76,81.05-36.75-14.57,3.38-27.48,12.25-37.64,23.24-10.16,10.99-17.76,24.11-24.52,37.44,12.93,9.67,18.84,26.19,30.47,37.37,7.32,7.04,16.72,11.75,23.5,19.32,5.51,6.19,8.97,13.93,13.88,20.6,4.32,5.89,9.73,10.9,15.94,14.75,2.4,1.49,5.05,2.92,6.41,5.41.24.48.43.98.57,1.49Z"></path></g></svg>