<svg width="73" height="88" viewBox="0 0 73 88" fill="none" xmlns="http://www.w3.org/2000/svg">
<path d="M67.395 34.7633C62.6068 29.9831 55.5331 28.2373 47.4765 29.8454C43.7622 30.5864 40.0303 32.0158 36.4538 34.0311C36.4538 34.0311 36.4567 34.0311 36.4567 34.034C32.8803 32.0158 29.1454 30.5894 25.4311 29.8483C17.3745 28.2402 10.3008 29.986 5.51266 34.7663C0.721563 39.5436 -1.02705 46.6056 0.583669 54.6489C2.0653 62.0478 6.28721 69.5228 12.469 75.6973C18.9265 82.1443 27.4907 86.9655 36.4509 88.0024C45.4111 86.9626 53.9752 82.1443 60.4328 75.6973C66.6145 69.5257 70.8364 62.0507 72.3181 54.6489C73.9347 46.6056 72.1831 39.5436 67.395 34.7633ZM54.2334 69.5052C48.9171 74.8128 42.4654 78.3159 36.4509 79.1771C30.4363 78.3159 23.9846 74.8128 18.6684 69.5052C9.03043 59.8832 5.84419 46.8077 11.7091 40.9525C13.6778 38.9871 16.5266 38.0234 19.8331 38.0234C22.4649 38.0234 25.3841 38.6356 28.3738 39.8394C27.7019 40.4399 27.0388 41.0667 26.3934 41.7111C23.0399 45.0591 20.2527 48.82 18.1696 52.745C19.1202 55.8674 21.0712 59.1538 23.7206 62.0976C25.2345 57.1386 28.3386 52.1504 32.5957 47.9032C42.2336 38.2812 55.3307 35.1002 61.1956 40.9554C67.0605 46.8077 63.8713 59.8832 54.2334 69.5052Z" fill="#141E57"/>
<path d="M60.8582 0.211799C51.4931 -0.997914 41.8757 3.12917 36.4568 11.4712C31.1816 3.34007 21.6317 -1.04185 12.0465 0.211799C11.8588 1.44202 11.759 2.70152 11.759 3.98154C11.759 17.5959 22.814 28.6327 36.4509 28.6327C50.0878 28.6327 61.1428 17.5959 61.1428 3.98154C61.1457 2.70152 61.0489 1.44202 60.8582 0.211799ZM20.0649 8.42203C25.8682 9.97152 30.454 14.4911 32.0207 20.361C26.2174 18.7881 21.6375 14.2158 20.0649 8.42203ZM40.8899 20.3581C42.4625 14.5058 47.06 9.98324 52.8427 8.42789C51.2672 14.2187 46.6903 18.7881 40.8899 20.3581Z" fill="#141E57"/>
</svg>
