<svg width="100" height="74" viewBox="0 0 100 74" fill="none" xmlns="http://www.w3.org/2000/svg">
<g clip-path="url(#clip0_135_118)">
<path d="M49.8232 63.5006C76.5527 63.5006 98.2212 51.4155 98.2212 36.5079C98.2212 21.6002 76.5527 9.51514 49.8232 9.51514C23.0938 9.51514 1.42529 21.6002 1.42529 36.5079C1.42529 51.4155 23.0938 63.5006 49.8232 63.5006Z" fill="#68E1FD"/>
<path opacity="0.29" d="M49.8232 63.5006C76.5527 63.5006 98.2212 51.4155 98.2212 36.5079C98.2212 21.6002 76.5527 9.51514 49.8232 9.51514C23.0938 9.51514 1.42529 21.6002 1.42529 36.5079C1.42529 51.4155 23.0938 63.5006 49.8232 63.5006Z" fill="#093E3E"/>
<path d="M49.8232 60.5568C76.5527 60.5568 98.2212 48.4717 98.2212 33.564C98.2212 18.6563 76.5527 6.57129 49.8232 6.57129C23.0938 6.57129 1.42529 18.6563 1.42529 33.564C1.42529 48.4717 23.0938 60.5568 49.8232 60.5568Z" fill="#68E1FD"/>
<path opacity="0.29" d="M49.8233 50.6545C68.3976 50.6545 83.4551 42.9002 83.4551 33.3348C83.4551 23.7694 68.3976 16.0151 49.8233 16.0151C31.2489 16.0151 16.1914 23.7694 16.1914 33.3348C16.1914 42.9002 31.2489 50.6545 49.8233 50.6545Z" fill="#093E3E"/>
<path d="M38.2457 43.887L39.3086 44.0782L39.0429 41.7842C37.5624 41.5166 36.158 41.0577 34.7914 40.4842C31.6029 39.5666 28.5282 38.3049 25.6053 36.7374C24.96 36.4315 24.3147 36.0874 23.7073 35.7051C21.0882 35.0169 18.6967 32.2258 19.1902 35.6286C19.4939 37.8461 20.6706 38.9931 21.24 39.796C23.6694 40.4842 26.0988 41.1342 28.5661 41.746C31.7926 42.3577 35.0571 43.1224 38.2457 43.887Z" fill="#B7E63E"/>
<path d="M39.5743 46.1046L39.4604 45.0723L38.3216 44.8047L20.291 41.5166C18.3551 42.0901 14.9008 41.7842 16.7228 43.6577C18.2412 45.2635 20.5947 44.9576 21.24 45.5693C22.9102 45.7605 24.5804 45.9134 26.2506 45.9899C30.6918 45.7605 35.1331 45.9134 39.5743 46.1046Z" fill="#B7E63E"/>
<path d="M39.1188 48.0543C39.3465 48.016 39.5743 47.9778 39.84 47.9778L39.7261 47.022C39.6502 47.1749 39.5363 47.2514 39.3845 47.2514L20.4428 47.7102C19.0004 49.163 17.2543 49.2013 19.9873 49.7748C21.9232 50.1571 23.1759 50.1189 23.7453 50.5394L38.8151 47.9778C38.891 47.9396 39.0049 47.9778 39.1188 48.0543Z" fill="#B7E63E"/>
<path d="M38.929 40.6374L38.891 40.2551C38.7392 40.408 38.5114 40.4462 38.3596 40.2933L38.3216 40.2551C36.12 37.6552 33.311 35.5906 31.451 32.7613C31.1853 32.7231 30.9196 32.6466 30.6918 32.5319C27.9967 31.4232 27.1616 30.3144 26.0608 32.1114C25.3016 33.2966 26.1367 34.7112 25.909 35.3994C29.7808 37.5787 33.9563 39.0698 38.1698 40.4845C38.3975 40.5227 38.6632 40.5609 38.929 40.6374Z" fill="#B7E63E"/>
<path d="M38.5873 37.9991C38.5873 37.9991 38.1318 30.9259 34.8294 30.6583C33.2351 30.5054 32.8555 31.1935 32.5518 31.8435C34.6016 34.4051 36.6894 36.9286 38.7771 39.452L38.5873 37.9991Z" fill="#B7E63E"/>
<path d="M39.802 49.5837L39.9918 49.469L39.9539 49.2778C39.8779 49.3543 39.7641 49.4308 39.6502 49.469C39.7261 49.5072 39.7641 49.5455 39.802 49.5837Z" fill="#B7E63E"/>
<path d="M38.9669 48.9336C38.6253 48.9718 38.3216 49.0101 37.98 49.0483C32.9314 50.31 28.1106 52.2217 23.5555 54.7451C23.6694 55.3186 24.2008 55.395 25.3396 55.2421C27.3894 54.9362 29.8188 52.2217 30.54 53.8275C31.9445 52.8334 33.5767 52.2217 35.0571 51.3805C36.4237 50.6159 37.7143 49.813 38.9669 48.9336Z" fill="#B7E63E"/>
<path d="M24.011 53.1393C23.9351 53.1775 23.8212 53.1775 23.7073 53.1393C23.6694 53.254 23.6694 53.3687 23.6314 53.5216C23.8592 53.3687 24.0869 53.2158 24.3147 53.1011L24.011 53.1393Z" fill="#B7E63E"/>
<path d="M38.2837 40.2165C38.4355 40.3694 38.6632 40.4077 38.8151 40.2547L38.853 40.2165L38.7392 39.4136C36.6514 36.8902 34.5637 34.3668 32.5139 31.8052C32.2861 32.3022 32.0963 32.761 31.413 32.6845C33.273 35.552 36.12 37.6166 38.2837 40.2165Z" fill="#88B72C"/>
<path d="M34.7914 40.5227C36.1579 41.0962 37.6004 41.555 39.0428 41.8226L38.891 40.6374C38.6253 40.5992 38.3596 40.5227 38.1318 40.4844C33.9184 39.0698 29.7428 37.5787 25.871 35.3994C25.7571 35.7435 25.3775 35.9347 24.4286 35.8582C24.1628 35.82 23.9351 35.7817 23.6694 35.7053C24.2767 36.0876 24.922 36.4317 25.5673 36.7376C28.5281 38.3051 31.6028 39.5668 34.7914 40.5227Z" fill="#88B72C"/>
<path d="M39.4604 45.0721L39.3465 44.078L38.2837 43.8869C35.0571 43.1222 31.8306 42.3575 28.5661 41.7458C26.0988 41.1341 23.6694 40.4841 21.24 39.7959C21.6196 40.3312 21.7335 40.7135 21.1261 41.1723C20.8984 41.3635 20.5947 41.4782 20.329 41.5546L38.3596 44.8427L39.4604 45.0721Z" fill="#88B72C"/>
<path d="M39.6881 47.022L39.5743 46.1427C35.133 45.9515 30.6539 45.7986 26.2506 46.028C24.5804 45.9515 22.9102 45.7986 21.24 45.6074C21.4677 45.8368 21.4677 46.1809 21.0882 46.8309C20.8984 47.175 20.6706 47.4426 20.3669 47.7485L39.3086 47.2897C39.4984 47.2515 39.6502 47.1367 39.6881 47.022Z" fill="#88B72C"/>
<path d="M40.0298 49.7368L39.9918 49.4692L39.802 49.5839C39.7641 49.5457 39.7261 49.5074 39.6881 49.5074C39.802 49.431 39.8779 49.3545 39.9918 49.3163L39.84 47.9781C39.6122 48.0163 39.3845 48.0546 39.1188 48.0546C39.0049 47.9781 38.891 47.9016 38.7392 47.9399L23.6694 50.5015C24.049 50.8074 24.1249 51.3044 23.8971 52.3749C23.8212 52.6426 23.7832 52.872 23.7453 53.1014C23.8212 53.1396 23.9351 53.1396 24.049 53.1014L24.3526 53.0249C24.1249 53.1778 23.8971 53.3308 23.6694 53.4455C23.5555 53.866 23.5175 54.2866 23.5935 54.7072C28.1486 52.1838 32.9694 50.2721 38.0179 49.0104C38.3596 48.9722 38.6632 48.9339 39.0049 48.8957C37.7522 49.7751 36.4237 50.578 35.0951 51.3426C33.6147 52.1838 31.9824 52.8337 30.5779 53.7896C30.5779 53.8278 30.6159 53.8278 30.6159 53.866C31.2612 55.6248 40.0298 49.7368 40.0298 49.7368Z" fill="#88B72C"/>
<path d="M25.9849 44.728C30.3664 44.728 33.9184 43.0847 33.9184 41.0576C33.9184 39.0305 30.3664 37.3872 25.9849 37.3872C21.6034 37.3872 18.0514 39.0305 18.0514 41.0576C18.0514 43.0847 21.6034 44.728 25.9849 44.728Z" fill="#E91837"/>
<path opacity="0.3" d="M25.9849 44.728C30.3664 44.728 33.9184 43.0847 33.9184 41.0576C33.9184 39.0305 30.3664 37.3872 25.9849 37.3872C21.6034 37.3872 18.0514 39.0305 18.0514 41.0576C18.0514 43.0847 21.6034 44.728 25.9849 44.728Z" fill="#093E3E"/>
<path d="M25.9849 43.6577C30.3664 43.6577 33.9184 42.0144 33.9184 39.9873C33.9184 37.9602 30.3664 36.3169 25.9849 36.3169C21.6034 36.3169 18.0514 37.9602 18.0514 39.9873C18.0514 42.0144 21.6034 43.6577 25.9849 43.6577Z" fill="#E91837"/>
<path opacity="0.3" d="M20.4808 40.2928C20.4808 40.2928 22.5306 42.4339 26.782 42.3575C31.0335 42.281 32.2482 39.1841 32.2482 39.1841L20.4808 40.2928Z" fill="#093E3E"/>
<path opacity="0.3" d="M19.9873 39.6811L31.7547 38.3812C31.7547 38.3812 27.6551 37.2342 24.7702 37.3489C21.8853 37.4636 19.9873 39.6811 19.9873 39.6811Z" fill="#093E3E"/>
<path d="M21.0122 40.2168C20.8984 40.2168 20.8224 40.3315 20.8224 40.4462C20.8224 40.5609 20.8984 40.6374 21.0122 40.6374C21.1261 40.6374 21.202 40.5227 21.202 40.408C21.202 40.3315 21.1261 40.255 21.0122 40.2168Z" fill="#EDE6CA"/>
<path d="M24.1249 41.7075C24.011 41.7075 23.8971 41.8222 23.8971 41.9369C23.8971 42.0516 24.011 42.1663 24.1249 42.1663C24.2388 42.1663 24.3526 42.0516 24.3526 41.9369C24.3526 41.8222 24.2388 41.7075 24.1249 41.7075Z" fill="#EDE6CA"/>
<path d="M26.3645 41.6313C26.2506 41.6313 26.1747 41.746 26.1747 41.8607C26.1747 41.9754 26.2506 42.0519 26.3645 42.0519C26.4784 42.0519 26.5543 41.9372 26.5543 41.8225C26.5163 41.7078 26.4404 41.6313 26.3645 41.6313Z" fill="#EDE6CA"/>
<path d="M24.5045 40.1021C24.3906 40.1021 24.3147 40.2168 24.3147 40.3315C24.3147 40.4462 24.3906 40.5226 24.5045 40.5226C24.6184 40.5226 24.6943 40.4079 24.6943 40.2932C24.6563 40.1785 24.5804 40.1021 24.5045 40.1021Z" fill="#EDE6CA"/>
<path d="M22.3408 38.7256C22.2269 38.7256 22.113 38.8403 22.113 38.955C22.113 39.0697 22.2269 39.1844 22.3408 39.1844C22.4547 39.1844 22.5686 39.0697 22.5686 38.955C22.5686 38.8403 22.4926 38.7256 22.3408 38.7256Z" fill="#EDE6CA"/>
<path d="M24.922 37.4639C24.8082 37.4639 24.7322 37.5786 24.7322 37.6933C24.7322 37.808 24.8082 37.8844 24.922 37.8844C25.0359 37.8844 25.1118 37.7697 25.1118 37.655C25.1118 37.5403 25.0359 37.4639 24.922 37.4639Z" fill="#EDE6CA"/>
<path d="M24.6184 38.0371C24.5045 38.0371 24.4286 38.1518 24.4286 38.2665C24.4286 38.3812 24.5045 38.4577 24.6184 38.4577C24.7322 38.4577 24.8082 38.343 24.8082 38.2283C24.8082 38.1518 24.7322 38.0753 24.6184 38.0371Z" fill="#EDE6CA"/>
<path d="M22.2269 37.6934C22.1131 37.6934 21.9992 37.8081 21.9992 37.9228C21.9992 38.0375 22.1131 38.1522 22.2269 38.1522C22.3408 38.1522 22.4547 38.0375 22.4547 37.9228C22.4547 37.7698 22.3408 37.6934 22.2269 37.6934Z" fill="#EDE6CA"/>
<path d="M19.8735 39.3374C19.7596 39.3374 19.6837 39.4521 19.6837 39.5668C19.6837 39.6815 19.7596 39.758 19.8735 39.758C19.9873 39.758 20.0632 39.6433 20.0632 39.5286C20.0632 39.4139 19.9873 39.3374 19.8735 39.3374Z" fill="#EDE6CA"/>
<path d="M28.4143 41.6313C28.3004 41.6313 28.1865 41.746 28.1865 41.8607C28.1865 41.9755 28.3004 42.0902 28.4143 42.0902C28.5281 42.0902 28.642 41.9755 28.642 41.8607C28.642 41.746 28.5281 41.6313 28.4143 41.6313Z" fill="#EDE6CA"/>
<path d="M30.2743 39.9873C30.1604 39.9873 30.0465 40.102 30.0465 40.2167C30.0465 40.3314 30.1604 40.4461 30.2743 40.4461C30.3882 40.4461 30.502 40.3314 30.502 40.2167C30.502 40.102 30.3882 39.9873 30.2743 39.9873Z" fill="#EDE6CA"/>
<path d="M27.1237 40.4458C27.0098 40.4458 26.8959 40.5605 26.8959 40.6752C26.8959 40.7899 27.0098 40.9046 27.1237 40.9046C27.2375 40.9046 27.3514 40.7899 27.3514 40.6752C27.3514 40.5605 27.2375 40.4458 27.1237 40.4458Z" fill="#EDE6CA"/>
<path d="M27.9208 37.9229C27.8069 37.9229 27.6931 38.0375 27.6931 38.1522C27.6931 38.2669 27.8069 38.3816 27.9208 38.3816C28.0347 38.3816 28.1486 38.2669 28.1486 38.1522C28.1486 38.0375 28.0347 37.9229 27.9208 37.9229Z" fill="#EDE6CA"/>
<path d="M30.2363 38.458C30.1224 38.458 30.0465 38.5727 30.0465 38.6874C30.0465 38.8021 30.1224 38.8786 30.2363 38.8786C30.3502 38.8786 30.4261 38.7639 30.4261 38.6492C30.3882 38.5345 30.3122 38.458 30.2363 38.458Z" fill="#EDE6CA"/>
<path d="M14.1416 42.0519V43.7342L18.0514 42.0519V40.5608C18.0514 40.5608 16.571 35.0935 20.329 33.6788C24.0869 32.2642 29.0975 36.1258 29.0975 36.1258L33.1592 34.6729L33.311 33.0671C33.311 33.0671 27.4653 31.5378 24.8461 31.7289C22.2269 31.9201 18.5828 33.22 18.5828 33.22" fill="#88B72C"/>
<path d="M14.1416 42.0517L18.0514 40.5606C18.0514 40.5606 16.571 35.0932 20.9363 33.3727C25.3016 31.6522 29.2873 33.7933 29.4392 34.6727L33.273 33.0669C33.273 33.0669 27.8828 27.7524 20.329 30.7729C14.0657 33.258 13.1167 39.2224 14.1416 42.0517Z" fill="#B7E63E"/>
<path d="M14.711 37.5783V39.2606L18.6208 37.5783V36.0872C18.6208 36.0872 17.1404 30.6198 20.8984 29.2052C24.6563 27.7906 29.6669 31.6521 29.6669 31.6521L33.6906 30.1993L33.8424 28.5935C33.8424 28.5935 27.9967 27.0641 25.3775 27.2553C22.7584 27.4465 19.1143 28.7082 19.1143 28.7082" fill="#88B72C"/>
<path d="M14.711 37.5786L18.6208 36.0875C18.6208 36.0875 17.1404 30.6201 21.5057 28.8996C25.871 27.1791 29.8567 29.3202 30.0086 30.1995L33.8424 28.5937C33.8424 28.5937 28.4522 23.2793 20.8984 26.2997C14.673 28.7849 13.6861 34.7875 14.711 37.5786Z" fill="#B7E63E"/>
<path d="M15.6979 31.4995L15.4322 33.1818L19.5698 32.1113L19.7975 30.6202C19.7975 30.6202 19.1522 24.9616 23.1 24.1587C27.0477 23.3558 31.413 27.9056 31.413 27.9056L35.5886 27.1027L36.0061 25.5351C36.0061 25.5351 30.4641 23.1647 27.8449 22.9353C25.2257 22.7059 21.3918 23.3558 21.3918 23.3558" fill="#88B72C"/>
<path d="M15.6979 31.4995L19.7975 30.6201C19.7975 30.6201 19.1522 24.9998 23.7453 23.9675C28.3383 22.9352 31.9445 25.6116 31.9824 26.5292L36.0061 25.4969C36.0061 25.4969 31.451 19.4178 23.5555 21.253C16.9126 22.7823 15.0906 28.5555 15.6979 31.4995Z" fill="#B7E63E"/>
<path d="M16.9506 25.4966L16.571 27.1406L20.7845 26.4142L21.1261 24.9613C21.1261 24.9613 20.9743 19.2645 24.96 18.8057C28.9457 18.3469 32.8935 23.279 32.8935 23.279L37.1449 22.8202L37.6763 21.2909C37.6763 21.2909 32.362 18.4234 29.7808 17.9646C27.1996 17.5058 23.3278 17.8881 23.3278 17.8881" fill="#88B72C"/>
<path d="M16.9506 25.4967L21.1261 24.9615C21.1261 24.9615 20.9743 19.3029 25.6432 18.6912C30.3122 18.0795 33.6526 21.0617 33.6147 21.9793L37.7143 21.3293C37.7143 21.3293 33.7286 14.8679 25.6812 16.0149C18.9624 16.9325 16.609 22.5528 16.9506 25.4967Z" fill="#B7E63E"/>
<path d="M21.9992 38.0757C26.3807 38.0757 29.9326 36.4324 29.9326 34.4053C29.9326 32.3782 26.3807 30.7349 21.9992 30.7349C17.6176 30.7349 14.0657 32.3782 14.0657 34.4053C14.0657 36.4324 17.6176 38.0757 21.9992 38.0757Z" fill="#E91837"/>
<path opacity="0.3" d="M21.9992 38.0757C26.3807 38.0757 29.9326 36.4324 29.9326 34.4053C29.9326 32.3782 26.3807 30.7349 21.9992 30.7349C17.6176 30.7349 14.0657 32.3782 14.0657 34.4053C14.0657 36.4324 17.6176 38.0757 21.9992 38.0757Z" fill="#093E3E"/>
<path d="M21.9992 37.0434C26.3807 37.0434 29.9326 35.4001 29.9326 33.373C29.9326 31.3459 26.3807 29.7026 21.9992 29.7026C17.6176 29.7026 14.0657 31.3459 14.0657 33.373C14.0657 35.4001 17.6176 37.0434 21.9992 37.0434Z" fill="#E91837"/>
<path opacity="0.3" d="M16.5331 33.6787C16.5331 33.6787 18.5828 35.8198 22.8343 35.7433C27.0857 35.6669 28.2624 32.5317 28.2624 32.5317L16.5331 33.6787Z" fill="#093E3E"/>
<path opacity="0.3" d="M16.0016 33.0669L27.769 31.7669C27.769 31.7669 23.6694 30.6199 20.7845 30.7346C17.8996 30.8493 16.0016 33.0669 16.0016 33.0669Z" fill="#093E3E"/>
<path d="M17.0645 33.6021C16.9506 33.6021 16.8747 33.7167 16.8747 33.8314C16.8747 33.9461 16.9506 34.0226 17.0645 34.0226C17.1784 34.0226 17.2543 33.9079 17.2543 33.7932C17.2163 33.7168 17.1404 33.6403 17.0645 33.6021Z" fill="#EDE6CA"/>
<path d="M20.1771 35.0933C20.0633 35.0933 19.9873 35.208 19.9873 35.3227C19.9873 35.4374 20.0633 35.5138 20.1771 35.5138C20.291 35.5138 20.3669 35.3991 20.3669 35.2844C20.329 35.1697 20.253 35.0933 20.1771 35.0933Z" fill="#EDE6CA"/>
<path d="M22.3788 35.0171C22.2649 35.0171 22.151 35.1318 22.151 35.2465C22.151 35.3612 22.2649 35.4759 22.3788 35.4759C22.4926 35.4759 22.6065 35.3612 22.6065 35.2465C22.6065 35.0936 22.4926 35.0171 22.3788 35.0171Z" fill="#EDE6CA"/>
<path d="M20.5188 33.4878C20.4049 33.4878 20.329 33.6025 20.329 33.7172C20.329 33.8319 20.4049 33.9084 20.5188 33.9084C20.6326 33.9084 20.7086 33.7937 20.7086 33.679C20.6706 33.5643 20.5947 33.4878 20.5188 33.4878Z" fill="#EDE6CA"/>
<path d="M18.393 32.1113C18.2792 32.1113 18.2032 32.226 18.2032 32.3407C18.2032 32.4554 18.2792 32.5319 18.393 32.5319C18.5069 32.5319 18.5828 32.4172 18.5828 32.3025C18.5449 32.1878 18.469 32.1113 18.393 32.1113Z" fill="#EDE6CA"/>
<path d="M20.9743 30.8496C20.8604 30.8496 20.7465 30.9643 20.7465 31.079C20.7465 31.1937 20.8604 31.3084 20.9743 31.3084C21.0882 31.3084 21.202 31.1937 21.202 31.079C21.1641 30.9261 21.0882 30.8496 20.9743 30.8496Z" fill="#EDE6CA"/>
<path d="M20.6326 31.4229C20.5188 31.4229 20.4428 31.5375 20.4428 31.6522C20.4428 31.7669 20.5188 31.8434 20.6326 31.8434C20.7465 31.8434 20.8224 31.7287 20.8224 31.614C20.8224 31.4993 20.7465 31.4229 20.6326 31.4229Z" fill="#EDE6CA"/>
<path d="M18.2412 31.0786C18.1273 31.0786 18.0514 31.1933 18.0514 31.308C18.0514 31.4227 18.1273 31.4992 18.2412 31.4992C18.3551 31.4992 18.431 31.3845 18.431 31.2698C18.431 31.1551 18.3551 31.0786 18.2412 31.0786Z" fill="#EDE6CA"/>
<path d="M15.8877 32.7227C15.7739 32.7227 15.6979 32.8374 15.6979 32.9521C15.6979 33.0668 15.7739 33.1432 15.8877 33.1432C16.0016 33.1432 16.0775 33.0285 16.0775 32.9138C16.0775 32.7991 16.0016 32.7227 15.8877 32.7227Z" fill="#EDE6CA"/>
<path d="M24.4286 35.0171C24.3147 35.0171 24.2388 35.1318 24.2388 35.2465C24.2388 35.3612 24.3147 35.4377 24.4286 35.4377C24.5424 35.4377 24.6184 35.323 24.6184 35.2083C24.6184 35.0936 24.5424 35.0171 24.4286 35.0171Z" fill="#EDE6CA"/>
<path d="M26.2886 33.3345C26.1747 33.3345 26.0608 33.4492 26.0608 33.5639C26.0608 33.6786 26.1747 33.7933 26.2886 33.7933C26.4024 33.7933 26.5163 33.6786 26.5163 33.5639C26.5163 33.4492 26.4024 33.3345 26.2886 33.3345Z" fill="#EDE6CA"/>
<path d="M23.1379 33.8315C23.0241 33.8315 22.9482 33.9462 22.9482 34.0609C22.9482 34.1756 23.0241 34.2521 23.1379 34.2521C23.2518 34.2521 23.3277 34.1374 23.3277 34.0227C23.3277 33.9462 23.2518 33.8698 23.1379 33.8315Z" fill="#EDE6CA"/>
<path d="M23.9351 31.3081C23.8212 31.3081 23.7453 31.4228 23.7453 31.5375C23.7453 31.6522 23.8212 31.7287 23.9351 31.7287C24.049 31.7287 24.1249 31.614 24.1249 31.4993C24.1249 31.3846 24.049 31.3081 23.9351 31.3081Z" fill="#EDE6CA"/>
<path d="M26.2506 31.8438C26.1367 31.8438 26.0228 31.9585 26.0228 32.0732C26.0228 32.1879 26.1367 32.3025 26.2506 32.3025C26.3645 32.3025 26.4784 32.1879 26.4784 32.0732C26.4784 31.9202 26.3645 31.8438 26.2506 31.8438Z" fill="#EDE6CA"/>
<path d="M27.4979 29.6392C27.7231 27.9439 24.9408 26.1701 21.2836 25.6773C17.6263 25.1845 14.479 26.1594 14.2538 27.8547C14.0287 29.55 16.8109 31.3238 20.4682 31.8166C24.1254 32.3094 27.2727 31.3345 27.4979 29.6392Z" fill="#E91837"/>
<path opacity="0.3" d="M27.4979 29.6392C27.7231 27.9439 24.9408 26.1701 21.2836 25.6773C17.6263 25.1845 14.479 26.1594 14.2538 27.8547C14.0287 29.55 16.8109 31.3238 20.4682 31.8166C24.1254 32.3094 27.2727 31.3345 27.4979 29.6392Z" fill="#093E3E"/>
<path d="M27.6179 28.7554C27.843 27.0601 25.0608 25.2863 21.4036 24.7935C17.7463 24.3007 14.599 25.2756 14.3738 26.9709C14.1487 28.6662 16.9309 30.44 20.5882 30.9328C24.2454 31.4256 27.3927 30.4507 27.6179 28.7554Z" fill="#E91837"/>
<path opacity="0.3" d="M16.3812 27.5229C16.3812 27.5229 17.8616 29.5493 21.4298 29.9317C24.9979 30.314 26.3265 27.8671 26.3265 27.8671L16.3812 27.5229Z" fill="#093E3E"/>
<path opacity="0.3" d="M16.0016 26.9498L25.9849 27.1792C25.9849 27.1792 22.6824 25.7645 20.291 25.5351C17.8996 25.3057 16.0016 26.9498 16.0016 26.9498Z" fill="#093E3E"/>
<path d="M16.8367 27.5229C16.7228 27.5229 16.6469 27.5994 16.6469 27.7141C16.6469 27.7906 16.7228 27.867 16.7988 27.9053C16.9126 27.9053 16.9886 27.8288 16.9886 27.7141C16.9886 27.6376 16.9126 27.5612 16.8367 27.5229Z" fill="#EDE6CA"/>
<path d="M19.2661 29.1294C19.1522 29.1294 19.0763 29.2059 19.0384 29.2823C19.0004 29.3588 19.1143 29.4735 19.1902 29.5117C19.2661 29.55 19.38 29.4353 19.418 29.3588C19.4559 29.2823 19.38 29.1294 19.2661 29.1294Z" fill="#EDE6CA"/>
<path d="M21.1261 29.2817C21.0122 29.2817 20.9363 29.32 20.9363 29.4347C20.9363 29.5494 20.9743 29.6258 21.0881 29.6258C21.202 29.6258 21.2779 29.5876 21.2779 29.4729C21.2779 29.3582 21.24 29.32 21.1261 29.2817Z" fill="#EDE6CA"/>
<path d="M19.7596 27.8291C19.6457 27.8291 19.5698 27.8673 19.5698 27.982C19.5698 28.0967 19.6077 28.1732 19.7216 28.1732C19.8355 28.1732 19.9114 28.135 19.9114 28.0203C19.9114 27.9056 19.8355 27.8291 19.7596 27.8291Z" fill="#EDE6CA"/>
<path d="M18.1273 26.4146C18.0134 26.4146 17.9375 26.491 17.9375 26.5675C17.9375 26.6439 17.9755 26.7586 18.0894 26.7586C18.2032 26.7586 18.2792 26.6822 18.2792 26.6057C18.2792 26.5293 18.2032 26.4146 18.1273 26.4146Z" fill="#EDE6CA"/>
<path d="M20.4049 25.6499C20.291 25.6499 20.2151 25.6881 20.2151 25.8028C20.2151 25.9175 20.2531 25.994 20.3669 25.994C20.4808 25.994 20.5567 25.9558 20.5567 25.8411C20.5567 25.7264 20.5188 25.6499 20.4049 25.6499Z" fill="#EDE6CA"/>
<path d="M20.1012 26.1084C19.9873 26.1084 19.9114 26.1849 19.8734 26.2613C19.8355 26.3378 19.9494 26.4525 20.0253 26.4907C20.1392 26.4907 20.2151 26.4143 20.253 26.3378C20.291 26.2613 20.1771 26.1084 20.1012 26.1084Z" fill="#EDE6CA"/>
<path d="M18.1273 25.5352C18.0134 25.5352 17.9375 25.6116 17.9375 25.6881C17.9375 25.7646 18.0134 25.8793 18.0894 25.8793C18.2032 25.8793 18.2792 25.8028 18.2792 25.7263C18.2792 25.6499 18.2032 25.5734 18.1273 25.5352Z" fill="#EDE6CA"/>
<path d="M15.9637 26.6436C15.8498 26.6436 15.7739 26.72 15.7739 26.7965C15.7739 26.9112 15.8498 26.9877 15.9257 26.9877C16.0396 26.9877 16.1155 26.9112 16.1155 26.8347C16.1535 26.7583 16.0775 26.6818 15.9637 26.6436Z" fill="#EDE6CA"/>
<path d="M22.8343 29.5112C22.7204 29.5112 22.6445 29.5495 22.6445 29.6642C22.6445 29.7789 22.6824 29.8553 22.7963 29.8553C22.9102 29.8553 22.9861 29.8171 22.9861 29.7024C22.9861 29.5877 22.9481 29.5495 22.8343 29.5112Z" fill="#EDE6CA"/>
<path d="M24.5804 28.3643C24.4665 28.3643 24.3906 28.4407 24.3526 28.5172C24.3147 28.5937 24.4286 28.7084 24.5045 28.7466C24.6184 28.7466 24.6943 28.6701 24.7322 28.5937C24.7702 28.5172 24.6943 28.3643 24.5804 28.3643Z" fill="#EDE6CA"/>
<path d="M21.8853 28.4023C21.7714 28.4023 21.6955 28.4788 21.6955 28.5935C21.6955 28.67 21.7714 28.7464 21.8473 28.7847C21.9612 28.7847 22.0371 28.7082 22.0371 28.5935C22.0371 28.517 21.9992 28.4406 21.8853 28.4023Z" fill="#EDE6CA"/>
<path d="M22.8722 26.376C22.7584 26.376 22.6824 26.4142 22.6824 26.5289C22.6824 26.6436 22.7204 26.7201 22.8343 26.7201C22.9482 26.7201 23.0241 26.6818 23.0241 26.5671C23.0241 26.4524 22.9481 26.376 22.8722 26.376Z" fill="#EDE6CA"/>
<path d="M24.7322 27.0645C24.6184 27.0645 24.5424 27.1409 24.5424 27.2174C24.5424 27.2939 24.5804 27.4086 24.6943 27.4086C24.8081 27.4086 24.8841 27.3321 24.8841 27.2556C24.8841 27.1792 24.8081 27.1027 24.7322 27.0645Z" fill="#EDE6CA"/>
<path d="M78.0529 39.6106C81.8351 38.8468 84.3967 35.6932 83.7743 32.5669C83.152 29.4406 79.5814 27.5254 75.7992 28.2893C72.0169 29.0531 69.4554 32.2067 70.0777 35.333C70.7001 38.4593 74.2707 40.3744 78.0529 39.6106Z" fill="#88B72C"/>
<path d="M70.2073 35.7814L69.7518 33.5257L83.3033 30.5435L83.8347 33.0669" fill="#88B72C"/>
<path d="M77.7137 38.0476C81.4959 37.2838 84.0575 34.1302 83.4352 31.0039C82.8128 27.8776 79.2422 25.9625 75.46 26.7263C71.6778 27.4902 69.1162 30.6437 69.7386 33.77C70.3609 36.8963 73.9315 38.8115 77.7137 38.0476Z" fill="#B7E63E"/>
<path d="M77.8556 36.8996C81.1421 36.2239 83.3577 33.4623 82.8043 30.7313C82.2508 28.0004 79.1379 26.3342 75.8514 27.0099C72.5648 27.6856 70.3493 30.4473 70.9027 33.1783C71.4562 35.9092 74.5691 37.5753 77.8556 36.8996Z" fill="#ECFFCF"/>
<path opacity="0.5" d="M72.333 32.5318L71.7257 32.6465C71.4979 32.723 71.3841 32.9524 71.46 33.1818C71.5359 33.4112 71.7636 33.5259 71.9914 33.4494L72.5988 33.3347C72.8265 33.2583 72.9404 33.0289 72.8645 32.7995C72.7886 32.6083 72.5608 32.4554 72.333 32.5318Z" fill="#B7E63E"/>
<path opacity="0.5" d="M73.6616 34.367C73.6237 34.4435 73.5477 34.5199 73.4718 34.5582C73.2441 34.6346 73.1302 34.864 73.2061 35.0934C73.282 35.3228 73.5098 35.4375 73.7375 35.3993C74.0412 35.2846 74.269 35.0552 74.4587 34.7875C74.5726 34.5964 74.4967 34.3287 74.269 34.214C74.0412 34.0993 73.7755 34.1758 73.6616 34.367Z" fill="#B7E63E"/>
<path opacity="0.5" d="M75.2179 35.3609C75.18 35.4756 75.18 35.6285 75.18 35.7815C75.218 36.3167 76.091 36.3167 76.053 35.7432C76.053 35.6668 76.0531 35.6285 76.091 35.5903C76.129 35.3609 76.0151 35.1315 75.7494 35.055C75.5216 34.9786 75.2939 35.1315 75.2179 35.3609Z" fill="#B7E63E"/>
<path opacity="0.5" d="M78.2926 34.8638C78.0649 34.8638 77.8751 35.0932 77.8751 35.3226C77.9131 35.552 78.0269 35.7814 78.1788 35.9343C78.5963 36.3166 79.1657 35.6667 78.7482 35.3226C78.7102 35.2843 78.7102 35.2843 78.7102 35.2843C78.7102 35.0549 78.5204 34.8638 78.2926 34.8638Z" fill="#B7E63E"/>
<path opacity="0.5" d="M79.1657 34.4818C79.3555 34.6347 79.5453 34.7494 79.773 34.8641C80.2665 35.0935 80.6841 34.3288 80.1906 34.0994C80.0387 34.023 79.8869 33.9465 79.773 33.8318C79.3175 33.4877 78.7102 34.0994 79.1657 34.4818Z" fill="#B7E63E"/>
<path opacity="0.5" d="M80.9877 32.2257C80.8739 32.2257 80.722 32.2257 80.6082 32.1874C80.0767 32.0345 79.8869 32.8756 80.4184 33.0286C80.6082 33.105 80.8359 33.105 81.0257 33.0668C81.2535 33.0286 81.4433 32.7992 81.4053 32.5698C81.3673 32.4168 81.2155 32.2639 80.9877 32.2257Z" fill="#B7E63E"/>
<path opacity="0.5" d="M81.0257 30.2377C80.9118 30.276 80.798 30.276 80.6841 30.276C80.4563 30.3142 80.2665 30.5436 80.3045 30.773C80.3424 31.0024 80.4943 31.1553 80.722 31.1553C80.9118 31.1553 81.1016 31.1171 81.2914 31.0789C81.8228 30.9259 81.5571 30.0848 81.0257 30.2377Z" fill="#B7E63E"/>
<path opacity="0.5" d="M79.5832 28.5557C79.3555 28.5557 79.1657 28.7851 79.1657 29.0145C79.1657 29.0527 79.1277 29.0909 79.1277 29.1292C78.862 29.6262 79.6212 30.0085 79.8869 29.5497C80.0008 29.3586 80.0388 29.1674 80.0388 28.9762C80.0388 28.7468 79.849 28.5557 79.5832 28.5557Z" fill="#B7E63E"/>
<path opacity="0.5" d="M76.8122 27.9056C76.7743 28.135 76.7743 28.3262 76.7363 28.5556C76.6984 28.785 76.8502 29.0144 77.078 29.0909C77.3057 29.1291 77.5335 29.0144 77.6094 28.7468C77.6473 28.5174 77.6473 28.3262 77.6853 28.0968C77.7233 27.8674 77.5714 27.638 77.3437 27.5615C77.0779 27.5233 76.8502 27.6762 76.8122 27.9056Z" fill="#B7E63E"/>
<path opacity="0.5" d="M74.7245 28.3643C74.4967 28.4407 74.3828 28.6701 74.4588 28.8995L74.6486 29.3201C74.7245 29.5495 74.9522 29.6642 75.18 29.5877C75.4077 29.5113 75.5216 29.2819 75.4457 29.0525L75.2559 28.6319C75.18 28.4407 74.9522 28.326 74.7245 28.3643Z" fill="#B7E63E"/>
<path opacity="0.5" d="M72.7886 30.2759L73.1302 30.5817C73.5477 30.9258 74.1551 30.3141 73.6996 29.9318L73.3579 29.6259C72.9404 29.2818 72.333 29.9318 72.7886 30.2759Z" fill="#B7E63E"/>
<path d="M75.4837 30.6583C74.9143 30.7348 74.1931 31.0024 74.0033 31.6524C73.9273 31.9582 73.9653 32.2641 74.1551 32.4935C74.1551 32.5317 74.1551 32.5317 74.1551 32.57C74.1931 32.6847 74.269 32.8376 74.3828 32.9141C74.6486 33.4876 75.4837 33.7934 76.0531 33.8316C76.7363 33.8699 77.5714 33.6023 77.913 32.9523C77.951 32.8758 77.989 32.7611 77.989 32.6846C78.0269 32.6082 78.0649 32.5699 78.1028 32.4935C78.7482 30.8494 76.6224 30.4671 75.4837 30.6583Z" fill="#FEFFFD"/>
<path d="M77.5242 31.239C81.3064 30.4752 83.8679 27.3216 83.2456 24.1953C82.6232 21.069 79.0526 19.1539 75.2704 19.9177C71.4882 20.6816 68.9266 23.8351 69.549 26.9614C70.1713 30.0877 73.7419 32.0029 77.5242 31.239Z" fill="#88B72C"/>
<path d="M69.6759 27.4084L69.2204 25.1526L82.8098 22.1704L83.3033 24.6938" fill="#88B72C"/>
<path d="M77.215 29.6316C80.9972 28.8678 83.5587 25.7142 82.9364 22.5879C82.314 19.4616 78.7434 17.5464 74.9612 18.3103C71.179 19.0741 68.6174 22.2277 69.2398 25.354C69.8622 28.4803 73.4328 30.3954 77.215 29.6316Z" fill="#B7E63E"/>
<path d="M77.0732 28.9197C80.3621 28.2555 82.5872 25.5016 82.0431 22.7686C81.4991 20.0357 78.3919 18.3587 75.103 19.0229C71.8141 19.6871 69.589 22.4411 70.1331 25.174C70.6771 27.9069 73.7843 29.5839 77.0732 28.9197Z" fill="#ECFFCF"/>
<path opacity="0.5" d="M71.8016 24.1205L71.1943 24.2352C70.9665 24.3116 70.8526 24.541 70.9286 24.7704C71.0045 24.9998 71.2322 25.1145 71.46 25.0763L72.0673 24.9616C72.2951 24.8851 72.409 24.6557 72.371 24.4263C72.2951 24.1969 72.0294 24.044 71.8016 24.1205Z" fill="#B7E63E"/>
<path opacity="0.5" d="M73.1682 25.994C73.1302 26.0705 73.0543 26.147 72.9784 26.1852C72.7506 26.2617 72.6367 26.4911 72.7126 26.7205C72.7886 26.9499 73.0163 27.0646 73.2441 26.9881C73.5477 26.8734 73.7755 26.644 73.9653 26.3764C74.0792 26.147 73.9653 25.9176 73.7375 25.8029C73.5098 25.7646 73.282 25.8029 73.1682 25.994Z" fill="#B7E63E"/>
<path opacity="0.5" d="M74.7245 26.9879C74.6865 27.1026 74.6486 27.2555 74.6865 27.4084C74.7245 27.9437 75.5976 27.9437 75.5596 27.3702C75.5596 27.2937 75.5596 27.2555 75.5975 27.2173C75.6355 26.9879 75.5216 26.7585 75.2559 26.682C74.9902 26.6055 74.7625 26.7585 74.7245 26.9879Z" fill="#B7E63E"/>
<path opacity="0.5" d="M77.7612 26.4907C77.5335 26.4907 77.3437 26.7201 77.3437 26.9495C77.3816 27.1789 77.4955 27.4083 77.6473 27.5613C78.0649 27.9436 78.6343 27.2936 78.2547 26.9495C78.2167 26.9113 78.2167 26.9113 78.2167 26.9113C78.1788 26.6819 77.989 26.4907 77.7612 26.4907Z" fill="#B7E63E"/>
<path opacity="0.5" d="M78.6343 26.0703C78.8241 26.2232 79.0139 26.3379 79.2416 26.4526C79.7351 26.682 80.1526 25.9174 79.6592 25.688C79.5073 25.6115 79.3555 25.535 79.2416 25.4203C78.7861 25.0762 78.2167 25.7262 78.6343 26.0703Z" fill="#B7E63E"/>
<path opacity="0.5" d="M80.4943 23.8526C80.3804 23.8526 80.2286 23.8526 80.1147 23.8144C79.5833 23.6615 79.3935 24.5026 79.9249 24.6555C80.1147 24.732 80.3424 24.732 80.5322 24.6938C80.76 24.6938 80.9498 24.4644 80.9498 24.235C80.9118 24.0438 80.722 23.8526 80.4943 23.8526Z" fill="#B7E63E"/>
<path opacity="0.5" d="M80.4943 21.8647C80.3804 21.9029 80.2665 21.9029 80.1526 21.9029C79.9249 21.9029 79.7351 22.1323 79.7351 22.3617C79.7351 22.5911 79.9628 22.7823 80.1906 22.7823C80.3804 22.7823 80.5702 22.7441 80.76 22.7058C81.2914 22.5529 81.0257 21.7118 80.4943 21.8647Z" fill="#B7E63E"/>
<path opacity="0.5" d="M79.0898 20.1821C78.862 20.1821 78.6722 20.4115 78.6722 20.6409C78.6722 20.6792 78.6343 20.7174 78.6343 20.7556C78.3306 21.2144 79.0898 21.635 79.3934 21.1762C79.5073 21.0233 79.5453 20.7939 79.5453 20.6027C79.5453 20.3733 79.3175 20.1821 79.0898 20.1821Z" fill="#B7E63E"/>
<path opacity="0.5" d="M76.2808 19.5326C76.2429 19.762 76.2429 19.9531 76.2049 20.1825C76.1669 20.4119 76.2808 20.6413 76.5465 20.7178C76.7743 20.756 77.0021 20.6413 77.078 20.3737C77.1159 20.1443 77.1159 19.9531 77.1539 19.7237C77.1918 19.4943 77.04 19.2649 76.8123 19.1885C76.5845 19.1502 76.3567 19.3032 76.2808 19.5326Z" fill="#B7E63E"/>
<path opacity="0.5" d="M74.193 19.9911C73.9653 20.0676 73.8514 20.297 73.9273 20.5264C73.9653 20.6793 74.0412 20.794 74.0792 20.947C74.1551 21.1764 74.3828 21.2911 74.6106 21.2146C74.8383 21.1381 74.9522 20.9087 74.8763 20.6793L74.6865 20.297C74.6865 20.0676 74.4208 19.9529 74.193 19.9911Z" fill="#B7E63E"/>
<path opacity="0.5" d="M72.2571 21.9027L72.5988 22.2086C73.0163 22.5527 73.6237 21.9409 73.2061 21.5968L72.8645 21.291C72.409 20.9086 71.8396 21.5204 72.2571 21.9027Z" fill="#B7E63E"/>
<path d="M74.9902 22.2852C74.4208 22.3617 73.6996 22.6293 73.5098 23.2793C73.4339 23.5852 73.4718 23.891 73.6616 24.1204C73.6616 24.1587 73.6616 24.1587 73.6616 24.1969C73.6996 24.3116 73.7755 24.4645 73.8894 24.541C74.1551 25.1145 74.9902 25.4204 75.5596 25.4586C76.2428 25.4968 77.0779 25.2292 77.4196 24.5792C77.4575 24.5028 77.4955 24.3881 77.4955 24.3116C77.5334 24.2351 77.5714 24.1969 77.5714 24.1204C78.2167 22.4764 76.091 22.0941 74.9902 22.2852Z" fill="#FEFFFD"/>
<path d="M71.1464 25.1604C74.9286 24.3966 77.4902 21.243 76.8678 18.1167C76.2455 14.9904 72.6749 13.0753 68.8927 13.8391C65.1105 14.6029 62.5489 17.7565 63.1713 20.8828C63.7936 24.0091 67.3642 25.9243 71.1464 25.1604Z" fill="#88B72C"/>
<path d="M63.2988 21.3293L62.8432 19.0735L76.4326 16.0913L76.9261 18.6147" fill="#88B72C"/>
<path d="M70.8371 23.5535C74.6193 22.7896 77.1809 19.636 76.5585 16.5097C75.9362 13.3835 72.3656 11.4683 68.5834 12.2322C64.8012 12.996 62.2396 16.1496 62.862 19.2759C63.4843 22.4022 67.0549 24.3173 70.8371 23.5535Z" fill="#B7E63E"/>
<path d="M70.6953 22.8411C73.9842 22.1769 76.2093 19.4229 75.6653 16.69C75.1212 13.9571 72.014 12.2801 68.7252 12.9443C65.4363 13.6085 63.2112 16.3624 63.7552 19.0954C64.2993 21.8283 67.4065 23.5053 70.6953 22.8411Z" fill="#ECFFCF"/>
<path opacity="0.5" d="M65.4624 18.0415L64.8551 18.1562C64.6273 18.2327 64.5135 18.4621 64.5894 18.6915C64.6653 18.9209 64.893 19.0356 65.1208 18.9591L65.7281 18.8444C65.9559 18.7679 66.0698 18.5385 66.0318 18.3091C65.9179 18.118 65.6522 18.0033 65.4624 18.0415Z" fill="#B7E63E"/>
<path opacity="0.5" d="M66.791 19.9148C66.7531 19.9912 66.6771 20.0677 66.6012 20.1059C66.3735 20.1824 66.2596 20.4118 66.3355 20.6412C66.4114 20.8706 66.6392 20.9853 66.8669 20.9088C67.1706 20.7941 67.3984 20.5647 67.5882 20.2971C67.702 20.0677 67.6261 19.8383 67.3984 19.7236C67.1706 19.6089 66.9049 19.6854 66.791 19.9148Z" fill="#B7E63E"/>
<path opacity="0.5" d="M68.3473 20.9089C68.3094 21.0236 68.3094 21.1765 68.3094 21.2912C68.3473 21.8265 69.2204 21.8265 69.1824 21.253C69.1824 21.1765 69.1824 21.1383 69.2204 21.1001C69.2584 20.8707 69.1445 20.6413 68.8788 20.5648C68.6131 20.5266 68.3853 20.6413 68.3473 20.9089Z" fill="#B7E63E"/>
<path opacity="0.5" d="M71.3841 20.4116C71.1563 20.4116 70.9665 20.641 70.9665 20.8704C71.0045 21.0998 71.1184 21.3292 71.2702 21.4822C71.6877 21.8645 72.2571 21.2145 71.8396 20.8704L71.8016 20.8322C71.8396 20.6028 71.6118 20.4116 71.3841 20.4116Z" fill="#B7E63E"/>
<path opacity="0.5" d="M72.2571 19.9912C72.4469 20.1441 72.6367 20.297 72.8645 20.4117C73.3579 20.6411 73.7755 19.8765 73.282 19.6471C73.1302 19.5706 72.9783 19.4941 72.8645 19.3794C72.409 18.9971 71.8396 19.6471 72.2571 19.9912Z" fill="#B7E63E"/>
<path opacity="0.5" d="M74.1171 17.7735C74.0032 17.7735 73.8514 17.7735 73.7375 17.7353C73.2061 17.5824 73.0163 18.4235 73.5477 18.5764C73.7375 18.6529 73.9653 18.6529 74.1551 18.6147C74.3828 18.6147 74.5726 18.3853 74.5726 18.1559C74.5347 17.9647 74.3449 17.7735 74.1171 17.7735Z" fill="#B7E63E"/>
<path opacity="0.5" d="M74.1551 15.7856C74.0412 15.8238 73.9273 15.8238 73.8135 15.8238C73.5857 15.8238 73.3959 16.0532 73.3959 16.2826C73.3959 16.512 73.6237 16.7032 73.8514 16.7032C74.0412 16.7032 74.231 16.665 74.4208 16.6267C74.9143 16.4738 74.6865 15.6327 74.1551 15.7856Z" fill="#B7E63E"/>
<path opacity="0.5" d="M72.7126 14.103C72.4849 14.103 72.2951 14.3324 72.2951 14.5618C72.2951 14.6001 72.2571 14.6383 72.2571 14.6765C71.9535 15.1736 72.7126 15.5559 73.0163 15.0971C73.1302 14.9059 73.1681 14.7148 73.1681 14.5236C73.1302 14.2942 72.9404 14.103 72.7126 14.103Z" fill="#B7E63E"/>
<path opacity="0.5" d="M69.9037 13.4535C69.8657 13.6829 69.8657 13.874 69.8278 14.1034C69.7898 14.3328 69.9037 14.5622 70.1694 14.6387C70.3972 14.6769 70.6249 14.5622 70.7008 14.2946C70.7388 14.0652 70.7388 13.874 70.7767 13.6446C70.8147 13.4152 70.7008 13.1858 70.4351 13.1094C70.2074 13.0711 69.9796 13.2241 69.9037 13.4535Z" fill="#B7E63E"/>
<path opacity="0.5" d="M67.8539 13.9122C67.6261 13.9887 67.5122 14.2181 67.5882 14.4475L67.7779 14.8298C67.8539 15.0592 68.0816 15.1739 68.3094 15.1357C68.5371 15.0592 68.651 14.8298 68.5751 14.6004L68.3853 14.1798C68.3094 13.9887 68.0437 13.8357 67.8539 13.9122Z" fill="#B7E63E"/>
<path opacity="0.5" d="M65.88 15.8236L66.2216 16.1295C66.6392 16.4736 67.2465 15.8618 66.791 15.5177L66.4494 15.2119C66.0318 14.8295 65.4624 15.4413 65.88 15.8236Z" fill="#B7E63E"/>
<path d="M68.613 16.2061C68.0437 16.2826 67.3224 16.5502 67.1326 17.2002C67.0567 17.5061 67.0947 17.8119 67.2845 18.0413C67.2845 18.0796 67.2845 18.0796 67.2845 18.1178C67.3224 18.2325 67.3984 18.3854 67.5122 18.4619C67.7779 19.0354 68.613 19.3413 69.1824 19.3795C69.8657 19.4177 70.7008 19.1501 71.0424 18.5001C71.0804 18.4237 71.1184 18.309 71.1184 18.2325C71.1563 18.156 71.1943 18.1178 71.2322 18.0413C71.8396 16.3973 69.7139 16.015 68.613 16.2061Z" fill="#FEFFFD"/>
<path d="M32.7796 32.5316C31.9824 32.1111 31.5649 30.9641 31.8306 29.9318C32.9314 25.6114 34.1081 14.7531 46.7106 13.6826C62.4257 12.3444 66.2216 17.2001 69.0306 27.5231C69.2963 28.4024 69.0306 29.3583 68.3853 29.97C66.6012 31.4993 62.0081 34.3286 51.949 35.3609C41.5102 36.4314 35.2849 33.908 32.7796 32.5316Z" fill="#EDE6CA"/>
<path opacity="0.5" d="M43.6359 18.6529C43.3322 18.5765 43.0286 18.3853 42.9147 18.0794C42.649 17.5824 41.8898 18.0412 42.1555 18.5C42.4212 18.997 42.8767 19.3411 43.4082 19.4558C43.9396 19.6088 44.1673 18.7676 43.6359 18.6529Z" fill="#093E3E"/>
<path opacity="0.5" d="M40.751 23.0883C40.5233 23.0118 40.2955 23.1647 40.2196 23.3941C40.1437 23.8147 40.0677 24.197 39.9918 24.6176C39.9539 24.847 40.0677 25.0764 40.2955 25.1528C40.5233 25.2293 40.751 25.0764 40.8269 24.847C40.9028 24.4264 40.9788 24.0441 41.0547 23.6235C41.0926 23.3941 40.9788 23.1647 40.751 23.0883Z" fill="#093E3E"/>
<path opacity="0.5" d="M37.4485 25.4585L37.1069 25.2291C36.6514 24.9232 36.1959 25.6879 36.6894 25.9937L37.031 26.2231C37.4865 26.529 37.9041 25.7643 37.4485 25.4585Z" fill="#093E3E"/>
<path opacity="0.5" d="M47.0522 27.2173L46.9384 27.332C46.7865 27.485 46.7865 27.7908 46.9384 27.9438C47.0902 28.0967 47.3939 28.0967 47.5457 27.9438L47.6596 27.8291C47.8114 27.6761 47.8114 27.3703 47.6596 27.2173C47.5077 27.0644 47.2041 27.0262 47.0522 27.2173Z" fill="#093E3E"/>
<path opacity="0.5" d="M57.1114 23.5086C56.8457 24.0439 56.618 24.5792 56.5041 25.1527C56.4661 25.3821 56.6179 25.6115 56.8457 25.6497C57.0355 25.6879 57.2633 25.5732 57.3392 25.3821C57.4531 24.885 57.6429 24.388 57.8706 23.9292C58.0984 23.4704 57.3771 23.0116 57.1114 23.5086Z" fill="#093E3E"/>
<path opacity="0.5" d="M56.3902 27.8672H55.7449C55.5171 27.8672 55.3273 28.0584 55.3273 28.2878C55.3273 28.5172 55.5171 28.7083 55.7449 28.7083H56.3902C56.6179 28.7083 56.8077 28.5172 56.8077 28.2878C56.8077 28.0584 56.6179 27.8672 56.3902 27.8672Z" fill="#093E3E"/>
<path opacity="0.5" d="M63.109 22.9732L62.9192 23.6614C62.8812 23.8908 63.0331 24.1202 63.2608 24.1585C63.4506 24.1967 63.6784 24.082 63.7543 23.8908L63.9441 23.2026C64.02 22.9732 63.8682 22.7438 63.6404 22.6674C63.4126 22.5909 63.1849 22.7438 63.109 22.9732Z" fill="#093E3E"/>
<path opacity="0.5" d="M51.6453 21.8647H51.5314C51.3037 21.8647 51.1139 22.0559 51.1139 22.2853C51.1139 22.5147 51.3037 22.7059 51.5314 22.7059H51.6453C51.873 22.7059 52.0628 22.5147 52.0628 22.2853C52.0628 22.0559 51.873 21.8647 51.6453 21.8647Z" fill="#093E3E"/>
<path opacity="0.5" d="M52.2906 17.0091L51.7592 16.7797C51.5314 16.7032 51.3037 16.8561 51.2277 17.0855C51.1898 17.3149 51.3037 17.5443 51.5314 17.6208L52.0628 17.8502C52.2906 17.9267 52.5184 17.7737 52.5943 17.5443C52.6702 17.3149 52.5184 17.0855 52.2906 17.0091Z" fill="#093E3E"/>
<path opacity="0.5" d="M47.6596 23.0498C47.5077 22.5145 46.6726 22.7439 46.8245 23.2792C46.9004 23.5468 46.8624 23.8144 46.7486 24.0438C46.6347 24.2732 46.7106 24.5409 46.9004 24.6556C47.0902 24.7703 47.3939 24.6938 47.5077 24.5026C47.7735 24.0821 47.8114 23.5468 47.6596 23.0498Z" fill="#093E3E"/>
<path opacity="0.5" d="M41.5102 30.0081C41.1686 29.8552 40.8649 29.5876 40.5992 29.2817C40.4473 29.1288 40.1437 29.1288 39.9918 29.2817C39.84 29.4346 39.84 29.7405 39.9918 29.8934C40.2955 30.2375 40.6371 30.5434 41.0547 30.7346C41.2445 30.8493 41.5102 30.7728 41.662 30.5816C41.7759 30.3905 41.7 30.1228 41.5102 30.0081Z" fill="#093E3E"/>
<path opacity="0.5" d="M52.9739 30.3142L52.3285 30.5436C51.7971 30.7348 52.0249 31.5377 52.5563 31.3847L53.2016 31.1553C53.6951 30.9642 53.5053 30.123 52.9739 30.3142Z" fill="#093E3E"/>
<path opacity="0.5" d="M63.7543 28.0202L62.9951 28.479C62.7673 28.5937 62.7294 28.8613 62.8432 29.0907C62.9571 29.3201 63.2228 29.3584 63.4506 29.2437L64.2098 28.7849C64.3996 28.6702 64.4755 28.4025 64.3616 28.1731C64.2098 27.982 63.9441 27.9055 63.7543 28.0202Z" fill="#093E3E"/>
<path opacity="0.5" d="M58.1363 18.2327L57.6049 18.0033C57.3771 17.9268 57.1494 18.0798 57.0735 18.3092C57.0355 18.5386 57.1494 18.768 57.3771 18.8444L57.9086 19.0738C58.1363 19.1503 58.3641 18.9974 58.44 18.768C58.5159 18.5386 58.3641 18.2709 58.1363 18.2327Z" fill="#093E3E"/>
<path d="M46.9384 14.0267C47.2041 13.912 51.1139 13.2621 51.1139 13.2621C51.1139 13.2621 52.7461 9.82107 53.2775 10.5475C53.809 11.2739 50.6204 14.1414 52.1008 13.5297C53.5812 12.918 54.7959 10.5475 54.8339 12.268C54.8718 13.9885 52.7081 13.6826 52.7081 14.6002C52.7081 15.5178 55.0996 15.0973 53.9988 16.1678C52.8979 17.2383 52.1008 14.1032 51.2657 15.0208C50.4306 15.9384 50.3167 19.1118 49.7473 17.4677C49.1779 15.8237 50.6584 14.1032 49.9371 14.2179C49.2159 14.3326 46.9384 14.0267 46.9384 14.0267Z" fill="#88B72C"/>
<path d="M51.1898 15.0974C50.8861 15.1357 46.9384 14.6769 46.9384 14.6769C46.9384 14.6769 44.4331 17.5061 44.1294 16.665C43.8257 15.8239 47.6975 13.9505 46.0653 14.1034C44.4331 14.2563 42.649 16.2062 43.1045 14.5239C43.56 12.8417 45.5339 13.7975 45.7996 12.8799C46.0653 11.9623 43.6359 11.7329 45.0024 11.0065C46.369 10.28 46.2551 13.5299 47.28 12.8799C48.3049 12.23 49.3298 9.20952 49.4057 10.9683C49.4816 12.727 47.5837 13.9505 48.3049 14.0269C49.0261 14.1034 51.1898 15.0974 51.1898 15.0974Z" fill="#88B72C"/>
<path d="M60.6416 42.9311L59.5028 42.8929L60.262 40.6371C61.8183 40.6754 63.3367 40.5224 64.8551 40.2166C68.2714 39.9489 71.6498 39.3372 74.9522 38.3431C75.6735 38.1902 76.3947 37.9608 77.1159 37.6932C79.9249 37.5402 82.9237 35.208 81.709 38.5343C80.9118 40.7136 79.5073 41.6312 78.7861 42.3194C76.1669 42.5106 73.5477 42.6635 70.9665 42.7782C67.5122 42.74 64.0579 42.8164 60.6416 42.9311Z" fill="#B7E63E"/>
<path d="M58.8196 44.8811L59.1612 43.8488L60.3759 43.8105L79.3555 44.2694C81.2155 45.2634 84.7457 45.6457 82.5441 47.2133C80.6841 48.5132 78.3306 47.7103 77.5714 48.2074C75.8253 48.0544 74.1171 47.825 72.409 47.5956C67.9298 46.4104 63.3747 45.6457 58.8196 44.8811Z" fill="#B7E63E"/>
<path d="M58.8955 46.9841C58.6677 46.9076 58.44 46.8311 58.2122 46.7547L58.5159 45.7988C58.5539 45.9518 58.6677 46.0665 58.8196 46.1047L77.951 50.578C79.1277 52.3367 80.8739 52.7955 77.989 52.7573C75.9771 52.7573 74.7245 52.4514 74.0412 52.7573L59.313 46.9841C59.1612 46.9076 59.0094 46.9076 58.8955 46.9841Z" fill="#B7E63E"/>
<path d="M60.6416 39.4519L60.7935 39.0696C60.9073 39.2607 61.1351 39.3372 61.3249 39.2225C61.3628 39.2225 61.3628 39.1843 61.4008 39.1843C64.1718 37.005 67.4363 35.5139 69.9037 33.0287C70.1694 33.0287 70.473 33.0287 70.7388 32.9522C73.6996 32.3787 74.7624 31.4611 75.5216 33.5257C76.0531 34.9021 74.9143 36.1256 74.9902 36.8903C70.6249 38.2667 66.0698 38.9166 61.5147 39.4519H60.6416Z" fill="#B7E63E"/>
<path d="M61.5147 36.8904C61.5147 36.8904 63.4506 29.8172 66.829 30.2378C68.4992 30.4289 68.7269 31.2318 68.9167 31.92C66.2975 34.0611 63.6784 36.2022 61.0212 38.3432L61.5147 36.8904Z" fill="#B7E63E"/>
<path d="M57.8706 48.3988L57.6808 48.2459L57.7567 48.0547C57.8327 48.1312 57.9086 48.2458 58.0224 48.3223C57.9465 48.3223 57.9086 48.3606 57.8706 48.3988Z" fill="#B7E63E"/>
<path d="M58.8575 47.9014C59.1992 48.0161 59.5029 48.0925 59.8445 48.2072C64.6653 50.5395 69.1824 53.5217 73.282 57.0009C73.0163 57.5362 72.4849 57.5362 71.3841 57.1156C69.3722 56.3892 67.4743 53.1011 66.4114 54.5922C65.1967 53.2923 63.6784 52.2982 62.3498 51.1512C61.0971 50.1189 59.9584 49.0101 58.8575 47.9014Z" fill="#B7E63E"/>
<path d="M73.1302 55.2804C73.2061 55.3186 73.32 55.3568 73.4339 55.3186V55.7009C73.2441 55.5098 73.0543 55.3186 72.8645 55.1274L73.1302 55.2804Z" fill="#B7E63E"/>
<path d="M61.3628 39.1845C61.211 39.3375 60.9453 39.2992 60.8314 39.1463C60.8314 39.1463 60.7935 39.1081 60.7935 39.0699L61.0592 38.267C63.6784 36.1259 66.3355 34.0231 68.9547 31.8438C69.1065 32.4173 69.1824 32.9143 69.9037 32.9908C67.3983 35.5141 64.1339 37.0052 61.3628 39.1845Z" fill="#88B72C"/>
<path d="M64.8551 40.2164C63.3367 40.5223 61.8184 40.6752 60.262 40.637L60.6416 39.4518H61.4388C65.9939 38.9165 70.549 38.2665 74.9143 36.8901C74.9522 37.2725 75.2939 37.5401 76.2808 37.693C76.5465 37.7313 76.8122 37.7313 77.0779 37.693C76.3567 37.9607 75.6355 38.1518 74.9143 38.343C71.6498 39.2988 68.2714 39.9488 64.8551 40.2164Z" fill="#88B72C"/>
<path d="M59.1612 43.849L59.5028 42.8932L60.6416 42.9314C64.0959 42.8167 67.5122 42.7402 70.9286 42.8167C73.5477 42.702 76.1669 42.5873 78.7481 42.3579C78.2547 42.8167 78.0649 43.1608 78.5963 43.7725C78.8241 44.0019 79.0518 44.1931 79.3555 44.3078L60.3759 43.849H59.1612Z" fill="#88B72C"/>
<path d="M58.5159 45.7988L58.8196 44.9194C63.3747 45.6841 67.9298 46.4488 72.371 47.5958C74.0792 47.8634 75.8253 48.0546 77.5334 48.2075C77.2298 48.3987 77.1539 48.7428 77.4196 49.4692C77.5334 49.8515 77.7232 50.1956 77.951 50.5397L58.8196 46.1047C58.6677 46.0664 58.5539 45.9517 58.5159 45.7988Z" fill="#88B72C"/>
<path d="M57.6049 48.475L57.6808 48.2074L57.8706 48.3603C57.9086 48.3221 57.9465 48.3221 57.9845 48.2839C57.9086 48.2074 57.8326 48.0927 57.7188 48.0162L58.1743 46.7163C58.402 46.7928 58.6298 46.8692 58.8575 46.9457C58.9714 46.8692 59.1233 46.8692 59.2371 46.9075L73.9653 52.6807C73.5098 52.9101 73.32 53.4071 73.3579 54.5159C73.3579 54.7835 73.3579 55.0512 73.3579 55.2806C73.2441 55.3188 73.1682 55.2806 73.0543 55.2423L72.7506 55.0894C72.9404 55.2806 73.1302 55.4717 73.32 55.6629C73.3579 56.1217 73.282 56.5423 73.1302 56.9628C69.0686 53.4454 64.5514 50.5014 59.6926 48.1692C59.351 48.0927 59.0473 47.978 58.7057 47.8633C59.8065 49.0103 60.9453 50.1191 62.16 51.1514C63.4886 52.2984 65.0069 53.2924 66.2216 54.5924L66.1837 54.6688C65.2726 56.3129 57.6049 48.475 57.6049 48.475Z" fill="#88B72C"/>
<path d="M66.5632 43.9252C66.829 43.734 67.0188 43.5429 67.1706 43.3899C68.4233 42.1665 68.4992 40.1401 67.2845 38.8402C67.2086 38.7637 67.0947 38.6872 67.0188 38.5725C65.6143 37.3108 64.02 37.3491 62.16 37.1961H61.9702C61.8563 36.8138 61.8563 36.2785 61.7424 35.9727C61.3628 35.1698 60.7555 34.4816 59.9963 34.0228C58.3261 32.9522 56.2004 32.7993 54.2265 33.2199C53.5053 33.3728 52.1767 34.1375 51.4555 33.9081C50.6963 33.6404 49.8992 32.1493 49.1779 31.6523C45.9135 29.473 41.2065 30.62 39.3086 33.6404C38.7392 34.558 38.5873 35.4374 38.3596 36.4315C38.0939 37.7314 37.6004 37.7696 36.2718 38.3431C34.222 39.1843 32.7796 40.5989 32.7416 42.6253C32.7037 45.1487 34.2979 46.7162 36.4616 47.6338C36.6514 47.7485 36.8412 47.8632 37.069 47.9397C37.8281 49.0485 38.7771 50.0425 39.8779 50.8072C42.3453 52.5277 45.3441 52.8718 48.3808 53.1394C53.2016 53.6365 60.8694 54.6688 64.3616 50.9219C67.5502 49.6984 69.8657 46.5251 66.791 43.9252H66.5632Z" fill="#FEFFFD"/>
<path d="M50.962 45.9134C55.8677 45.9134 59.8445 43.825 59.8445 41.2489C59.8445 38.6728 55.8677 36.5845 50.962 36.5845C46.0564 36.5845 42.0796 38.6728 42.0796 41.2489C42.0796 43.825 46.0564 45.9134 50.962 45.9134Z" fill="#FEA94E"/>
<path d="M53.733 37.8462C51.9869 37.8462 51.949 40.599 53.733 40.599C55.5171 40.599 55.5171 37.8462 53.733 37.8462Z" fill="#FEFFFD"/>
<path opacity="0.1" d="M50.6204 44.6516C47.4698 44.384 42.9906 42.8164 42.649 39.6431C42.3073 40.1019 42.1175 40.6754 42.0796 41.2489C42.0796 43.8487 46.0653 45.9133 50.962 45.9133C54.9477 45.9133 58.3261 44.5369 59.4269 42.6253C57.1114 44.4605 53.733 44.881 50.6204 44.6516Z" fill="#093E3E"/>
</g>
<defs>
<clipPath id="clip0_135_118">
<rect width="100" height="74" fill="white"/>
</clipPath>
</defs>
</svg>
