<svg width="102" height="75" viewBox="0 0 102 75" fill="none" xmlns="http://www.w3.org/2000/svg">
<g clip-path="url(#clip0_135_72)">
<path d="M51.354 68.2849C77.5263 68.2849 98.7432 56.2453 98.7432 41.3937C98.7432 26.5421 77.5263 14.5024 51.354 14.5024C25.1817 14.5024 3.96478 26.5421 3.96478 41.3937C3.96478 56.2453 25.1817 68.2849 51.354 68.2849Z" fill="#68E1FD"/>
<path opacity="0.29" d="M51.354 68.2849C77.5263 68.2849 98.7432 56.2453 98.7432 41.3937C98.7432 26.5421 77.5263 14.5024 51.354 14.5024C25.1817 14.5024 3.96478 26.5421 3.96478 41.3937C3.96478 56.2453 25.1817 68.2849 51.354 68.2849Z" fill="#093E3E"/>
<path d="M51.354 65.1604C77.5263 65.1604 98.7432 53.1208 98.7432 38.2692C98.7432 23.4176 77.5263 11.3779 51.354 11.3779C25.1817 11.3779 3.96478 23.4176 3.96478 38.2692C3.96478 53.1208 25.1817 65.1604 51.354 65.1604Z" fill="#68E1FD"/>
<path opacity="0.29" d="M52.0837 54.934C69.7927 54.934 84.1487 47.4728 84.1487 38.269C84.1487 29.0652 69.7927 21.604 52.0837 21.604C34.3747 21.604 20.0187 29.0652 20.0187 38.269C20.0187 47.4728 34.3747 54.934 52.0837 54.934Z" fill="#093E3E"/>
<path d="M69.5971 27.1907C69.4254 26.7173 69.2537 26.1965 69.082 25.6757L72.0868 25.5337C72.7736 27.5695 73.675 29.5579 74.7481 31.357C76.6797 35.7126 78.9977 39.8789 81.702 43.7137C82.26 44.6132 82.818 45.4181 83.4619 46.2229C84.9643 49.821 89.128 52.567 84.578 52.709C81.6161 52.8037 79.8562 51.3834 78.7402 50.7679C77.2807 47.4065 75.8642 44.0451 74.5335 40.6837C73.0311 36.1387 71.3141 31.6884 69.5971 27.1907Z" fill="#99CE45"/>
<path d="M66.4207 25.8652L67.7943 25.8179L68.3952 27.3802C71.1424 35.7601 73.9325 44.1872 76.6797 52.6144C76.3793 55.5497 77.5382 60.4261 74.7052 58.2957C72.3014 56.4966 72.1297 52.9932 71.1853 52.2357C70.5415 49.8685 69.9834 47.5013 69.5113 45.0868C68.8245 38.6007 67.6226 32.2093 66.4207 25.8652Z" fill="#99CE45"/>
<path d="M63.9739 27.0015C63.9739 26.6701 63.931 26.2914 63.931 25.9599L65.2188 25.9126C65.0471 26.0546 64.9612 26.244 65.0041 26.4807L68.6528 53.9401C67.1075 56.3546 67.4079 58.9112 66.0773 55.0763C65.1329 52.4251 64.9183 50.5787 64.2315 49.8685L64.1886 27.5223C64.1886 27.3329 64.1027 27.1435 63.9739 27.0015Z" fill="#99CE45"/>
<path d="M73.675 25.4863L74.1901 25.439C74.0184 25.6757 74.0613 26.0071 74.233 26.1965C74.2759 26.2438 74.2759 26.2438 74.3189 26.2438C78.1821 28.753 81.4873 32.3512 85.6081 34.2922C85.7369 34.671 85.8657 35.0024 86.0803 35.3338C88.1407 38.9319 89.7289 39.8788 87.6256 41.9619C86.252 43.3349 84.2345 42.4827 83.376 43.0035C79.6845 37.9377 76.7656 32.3038 74.0184 26.5279C73.9325 26.1965 73.8038 25.8177 73.675 25.4863Z" fill="#99CE45"/>
<path d="M77.1948 25.2968C77.1948 25.2968 86.4666 24.2552 87.5827 28.8949C88.1407 31.1674 87.3251 31.9249 86.5525 32.493C82.7751 30.1732 79.0406 27.806 75.2632 25.3915L77.1948 25.2968Z" fill="#99CE45"/>
<path d="M61.8277 26.3861L61.9565 26.0547H62.1711C62.1282 26.1967 62.0423 26.3861 61.9565 26.5281C61.9565 26.4808 61.8706 26.4334 61.8277 26.3861Z" fill="#99CE45"/>
<path d="M62.8579 27.4272C62.9008 27.9007 62.9008 28.3741 62.9437 28.8476C62.4286 36.4226 61.0121 43.9029 58.78 51.0518C58.0503 51.0044 57.7928 50.2943 57.7498 48.5899C57.664 45.5599 60.6687 41.3936 58.4366 40.7308C59.381 38.4583 59.8531 35.9491 60.6258 33.6293C61.2697 31.5462 62.0423 29.463 62.8579 27.4272Z" fill="#99CE45"/>
<path d="M60.7546 50.0105C60.7546 50.1526 60.7546 50.2946 60.8404 50.4366L60.3682 50.626C60.497 50.2473 60.6687 49.9159 60.7975 49.5371L60.7546 50.0105Z" fill="#99CE45"/>
<path d="M74.3618 26.2438C74.1472 26.1018 74.0184 25.7704 74.1472 25.5336C74.1472 25.4863 74.1901 25.4863 74.1901 25.4389L75.2632 25.3916C79.0406 27.7588 82.7751 30.1733 86.5525 32.4932C85.9515 32.9666 85.3935 33.3454 85.6511 34.3396C81.5303 32.3511 78.225 28.8004 74.3618 26.2438Z" fill="#99CE45"/>
<path d="M74.7481 31.4043C73.675 29.5579 72.7735 27.6168 72.0867 25.581L73.675 25.4863C73.8037 25.8651 73.9325 26.1965 74.0613 26.5279C76.8085 32.2565 79.7274 37.9377 83.4189 43.0035C82.9897 43.2402 82.818 43.8557 83.1185 45.1813C83.2043 45.5601 83.3331 45.8915 83.4619 46.2702C82.818 45.4654 82.26 44.6132 81.7019 43.761C78.9977 39.9262 76.6797 35.7599 74.7481 31.4043Z" fill="#99CE45"/>
<path d="M67.7943 25.7705L69.082 25.7231C69.2537 26.2439 69.4254 26.7174 69.5971 27.2381C71.3141 31.6885 73.0311 36.1861 74.5764 40.7311C75.9071 44.1399 77.3236 47.5013 78.7831 50.8153C78.0104 50.3892 77.4953 50.3419 77.0231 51.3361C76.8514 51.7149 76.7656 52.1409 76.7227 52.567C73.9755 44.1399 71.1853 35.76 68.3952 27.3328L67.7943 25.7705Z" fill="#99CE45"/>
<path d="M65.2188 25.9126L66.4207 25.8652C67.6655 32.2566 68.8674 38.6481 69.5542 45.0868C70.0264 47.5013 70.5844 49.8685 71.2283 52.2357C70.8849 51.9516 70.4127 52.0463 69.683 52.7091C69.2966 53.0879 68.9532 53.4667 68.6528 53.9401L65.0041 26.4807C64.9612 26.244 65.0471 26.0546 65.2188 25.9126Z" fill="#99CE45"/>
<path d="M61.5701 26.102H61.9565L61.8277 26.4334C61.8706 26.4808 61.9135 26.5281 61.9565 26.5754C61.9994 26.4334 62.0852 26.244 62.1711 26.102L63.931 26.0073C63.931 26.3387 63.931 26.7175 63.9739 27.0489C64.1027 27.1909 64.1886 27.3803 64.1886 27.5697L64.2315 49.9159C63.7593 49.4425 63.0725 49.4425 61.7848 50.058C61.4414 50.2 61.1409 50.342 60.8833 50.484C60.7975 50.342 60.7975 50.2 60.7975 50.058L60.8404 49.5845C60.7116 49.9633 60.5829 50.2947 60.4112 50.6734C59.8961 50.9101 59.338 51.0522 58.78 51.0995C61.0121 43.9033 62.4286 36.4703 62.9437 28.8953C62.9008 28.4219 62.9008 27.9484 62.8579 27.475C61.9994 29.5108 61.2267 31.5939 60.5829 33.7244C59.8531 36.0915 59.381 38.6008 58.3937 40.8259L58.3078 40.7786C55.904 40.2104 61.5701 26.102 61.5701 26.102Z" fill="#99CE45"/>
<path opacity="0.29" d="M74.3618 26.2438C74.1472 26.1018 74.0184 25.7704 74.1472 25.5336C74.1472 25.4863 74.1901 25.4863 74.1901 25.4389L75.2632 25.3916C79.0406 27.7588 82.7751 30.1733 86.5525 32.4932C85.9515 32.9666 85.3935 33.3454 85.6511 34.3396C81.5303 32.3511 78.225 28.8004 74.3618 26.2438Z" fill="#093E3E"/>
<path opacity="0.29" d="M74.7481 31.4043C73.675 29.5579 72.7735 27.6168 72.0867 25.581L73.675 25.4863C73.8037 25.8651 73.9325 26.1965 74.0613 26.5279C76.8085 32.2565 79.7274 37.9377 83.4189 43.0035C82.9897 43.2402 82.818 43.8557 83.1185 45.1813C83.2043 45.5601 83.3331 45.8915 83.4619 46.2702C82.818 45.4654 82.26 44.6132 81.7019 43.761C78.9977 39.9262 76.6797 35.7599 74.7481 31.4043Z" fill="#093E3E"/>
<path opacity="0.29" d="M67.7943 25.7705L69.082 25.7231C69.2537 26.2439 69.4254 26.7174 69.5971 27.2381C71.3141 31.6885 73.0311 36.1861 74.5764 40.7311C75.9071 44.1399 77.3236 47.5013 78.7831 50.8153C78.0104 50.3892 77.4953 50.3419 77.0231 51.3361C76.8514 51.7149 76.7656 52.1409 76.7227 52.567C73.9755 44.1399 71.1853 35.76 68.3952 27.3328L67.7943 25.7705Z" fill="#093E3E"/>
<path opacity="0.29" d="M65.2188 25.9126L66.4207 25.8652C67.6655 32.2566 68.8674 38.6481 69.5542 45.0868C70.0264 47.5013 70.5844 49.8685 71.2283 52.2357C70.8849 51.9516 70.4127 52.0463 69.683 52.7091C69.2966 53.0879 68.9532 53.4667 68.6528 53.9401L65.0041 26.4807C64.9612 26.244 65.0471 26.0546 65.2188 25.9126Z" fill="#093E3E"/>
<path opacity="0.29" d="M61.5701 26.102H61.9565L61.8277 26.4334C61.8706 26.4808 61.9135 26.5281 61.9565 26.5754C61.9994 26.4334 62.0852 26.244 62.1711 26.102L63.931 26.0073C63.931 26.3387 63.931 26.7175 63.9739 27.0489C64.1027 27.1909 64.1886 27.3803 64.1886 27.5697L64.2315 49.9159C63.7593 49.4425 63.0725 49.4425 61.7848 50.058C61.4414 50.2 61.1409 50.342 60.8833 50.484C60.7975 50.342 60.7975 50.2 60.7975 50.058L60.8404 49.5845C60.7116 49.9633 60.5829 50.2947 60.4112 50.6734C59.8961 50.9101 59.338 51.0522 58.78 51.0995C61.0121 43.9033 62.4286 36.4703 62.9437 28.8953C62.9008 28.4219 62.9008 27.9484 62.8579 27.475C61.9994 29.5108 61.2267 31.5939 60.5829 33.7244C59.8531 36.0915 59.381 38.6008 58.3937 40.8259L58.3078 40.7786C55.904 40.2104 61.5701 26.102 61.5701 26.102Z" fill="#093E3E"/>
<path d="M27.4877 30.4573C29.4316 30.4573 31.0075 28.7191 31.0075 26.5751C31.0075 24.431 29.4316 22.6929 27.4877 22.6929C25.5437 22.6929 23.9678 24.431 23.9678 26.5751C23.9678 28.7191 25.5437 30.4573 27.4877 30.4573Z" fill="#E91837"/>
<path d="M29.6769 25.6284C29.5052 24.7762 29.033 24.0661 28.3033 23.6873C28.0457 23.5453 27.7023 23.64 27.5306 23.924C27.4018 24.2081 27.4877 24.5869 27.7452 24.7762C28.2174 24.9656 28.5179 25.439 28.6037 25.9598C28.6896 26.2912 28.9901 26.4806 29.2905 26.3859C29.591 26.2912 29.7627 25.9598 29.6769 25.6284Z" fill="white"/>
<path d="M28.9901 27.0488C28.6896 27.0962 28.475 27.3802 28.475 27.7116C28.5179 27.9957 28.6896 28.2324 28.9901 28.2798C29.2905 28.2324 29.5052 27.9484 29.5052 27.617C29.4622 27.2856 29.2476 27.0962 28.9901 27.0488Z" fill="white"/>
<path d="M24.9551 34.6237C26.8991 34.6237 28.475 32.8856 28.475 30.7416C28.475 28.5975 26.8991 26.8594 24.9551 26.8594C23.0112 26.8594 21.4353 28.5975 21.4353 30.7416C21.4353 32.8856 23.0112 34.6237 24.9551 34.6237Z" fill="#E91837"/>
<path d="M27.1443 29.7944C26.9726 28.9422 26.5004 28.2321 25.7707 27.8533C25.5131 27.7113 25.1697 27.806 24.998 28.0901C24.8263 28.3741 24.9122 28.7529 25.1697 28.9422C25.6419 29.1316 25.9424 29.6051 26.0282 30.1258C26.0712 30.4572 26.3716 30.694 26.6721 30.5993C26.9726 30.5519 27.1872 30.2205 27.1014 29.8891C27.1443 29.8418 27.1443 29.8418 27.1443 29.7944Z" fill="white"/>
<path d="M26.4575 31.2148C26.157 31.2622 25.9424 31.5463 25.9424 31.8777C25.9853 32.1617 26.157 32.3984 26.4575 32.4458C26.758 32.3984 26.9726 32.1144 26.9726 31.783C26.9297 31.4516 26.715 31.2148 26.4575 31.2148Z" fill="white"/>
<path d="M23.9678 42.625V37.3225L67.7084 30.7417L71.2712 32.02L79.7703 34.1978V38.8375L76.2934 38.4587L68.8674 37.8906L42.3827 38.8848L23.9678 42.625Z" fill="#934715"/>
<path d="M56.8484 44.9921C58.5225 44.8027 60.2395 44.7554 61.9565 44.85C66.9358 45.1815 72.3443 46.9332 76.8514 43.5244C85.694 36.8016 72.0009 28.8005 67.0645 27.0015C60.1107 24.4922 52.7705 23.7347 45.5162 24.6816C43.327 24.9657 41.1378 25.4865 38.9916 26.1493C22.1221 31.7358 20.1904 45.5602 29.591 49.3004C35.0854 51.4782 40.7944 49.6318 46.1171 47.6907C49.5941 46.365 53.1998 45.4655 56.8484 44.9921Z" fill="#934715"/>
<path opacity="0.29" d="M56.8484 44.9921C58.5225 44.8027 60.2395 44.7554 61.9565 44.85C66.9358 45.1815 72.3443 46.9332 76.8514 43.5244C85.694 36.8016 72.0009 28.8005 67.0645 27.0015C60.1107 24.4922 52.7705 23.7347 45.5162 24.6816C43.327 24.9657 41.1378 25.4865 38.9916 26.1493C22.1221 31.7358 20.1904 45.5602 29.591 49.3004C35.0854 51.4782 40.7944 49.6318 46.1171 47.6907C49.5941 46.365 53.1998 45.4655 56.8484 44.9921Z" fill="#093E3E"/>
<path d="M56.8484 41.015C58.5225 40.8256 60.2395 40.7783 61.9565 40.873C66.9358 41.2044 72.3443 42.9561 76.8514 39.5474C85.694 32.8246 72.0009 24.8235 67.0645 23.0244C60.1107 20.5152 52.7705 19.7577 45.5162 20.7046C43.327 20.9886 41.1378 21.5094 38.9916 22.1722C22.1221 27.7588 20.1904 41.5832 29.591 45.3233C35.0854 47.5011 40.7944 45.6547 46.1171 43.7136C49.5941 42.388 53.1998 41.4885 56.8484 41.015Z" fill="#934715"/>
<path opacity="0.29" d="M72.4731 36.5648L69.5113 27.1908C69.1249 25.9598 67.3221 26.4806 67.7513 27.7115C68.7386 30.8362 69.7259 33.9609 70.7131 37.0856C71.0565 38.3639 72.8594 37.7958 72.4731 36.5648Z" fill="#093E3E"/>
<path opacity="0.29" d="M65.0471 36.6124C63.8452 32.7775 62.4716 29.0374 61.0121 25.3445C60.5399 24.1609 58.9517 25.2025 59.4239 26.3861C60.8404 29.9369 62.1282 33.535 63.2871 37.1805C63.6735 38.3641 65.4763 37.8433 65.0471 36.6124Z" fill="#093E3E"/>
<path opacity="0.29" d="M57.5352 37.038C55.8611 32.0196 54.3158 27.0012 52.8993 21.9354C52.5559 20.7045 50.753 21.2252 51.1394 22.4562C52.5559 27.5219 54.1012 32.5877 55.7753 37.5588C56.1616 38.7898 57.9215 38.269 57.5352 37.038Z" fill="#093E3E"/>
<path opacity="0.29" d="M50.1092 37.7483C48.3492 33.1086 46.9327 28.3742 45.8596 23.4978C45.602 22.2195 43.7992 22.7403 44.0997 24.0186C45.1728 28.895 46.5893 33.6767 48.3492 38.2691C48.8214 39.4527 50.5813 38.9319 50.1092 37.7483Z" fill="#093E3E"/>
<path opacity="0.29" d="M44.3143 37.1801C42.8978 33.3926 41.6959 29.5104 40.7086 25.5335C40.4081 24.2552 38.6053 24.8234 38.9057 26.0543C39.893 30.0312 41.0949 33.9134 42.5114 37.7009C42.9836 38.9318 44.7435 38.411 44.3143 37.1801Z" fill="#093E3E"/>
<path opacity="0.29" d="M39.2491 40.4469C37.618 36.5647 36.1156 32.6351 34.6991 28.6109C34.2698 27.38 32.5099 27.9481 32.9391 29.1317C34.3557 33.2979 35.9439 37.4168 37.6609 41.4411C38.176 42.672 39.7642 41.6305 39.2491 40.4469Z" fill="#093E3E"/>
<path opacity="0.29" d="M32.8104 39.1686C32.0807 37.4642 31.4368 35.6651 30.9217 33.8661C30.5783 32.6351 28.7754 33.1559 29.1618 34.3868C29.7198 36.3753 30.4066 38.3164 31.2222 40.1628C31.6943 41.3937 33.2826 40.3521 32.8104 39.1686Z" fill="#093E3E"/>
</g>
<defs>
<clipPath id="clip0_135_72">
<rect width="102" height="75" fill="white"/>
</clipPath>
</defs>
</svg>
