<svg width="104" height="71" viewBox="0 0 104 71" fill="none" xmlns="http://www.w3.org/2000/svg">
<path d="M52.916 63.5748C79.8601 63.5748 101.703 51.4251 101.703 36.4378C101.703 21.4504 79.8601 9.30078 52.916 9.30078C25.9719 9.30078 4.12939 21.4504 4.12939 36.4378C4.12939 51.4251 25.9719 63.5748 52.916 63.5748Z" fill="#68E1FD"/>
<path opacity="0.29" d="M52.916 63.5748C79.8601 63.5748 101.703 51.4251 101.703 36.4378C101.703 21.4504 79.8601 9.30078 52.916 9.30078C25.9719 9.30078 4.12939 21.4504 4.12939 36.4378C4.12939 51.4251 25.9719 63.5748 52.916 63.5748Z" fill="#631919"/>
<path d="M52.916 60.5992C79.8601 60.5992 101.703 48.4495 101.703 33.4622C101.703 18.4748 79.8601 6.3252 52.916 6.3252C25.9719 6.3252 4.12939 18.4748 4.12939 33.4622C4.12939 48.4495 25.9719 60.5992 52.916 60.5992Z" fill="#68E1FD"/>
<path opacity="0.29" d="M52.916 50.6371C71.6489 50.6371 86.8349 42.8463 86.8349 33.2358C86.8349 23.6253 71.6489 15.8345 52.916 15.8345C34.1831 15.8345 18.9971 23.6253 18.9971 33.2358C18.9971 42.8463 34.1831 50.6371 52.916 50.6371Z" fill="#631919"/>
<path d="M29.4238 30.2915L29.1663 33.623L72.4499 39.0245L86.1591 40.1889L86.4809 36.0812" fill="#F6B034"/>
<path d="M29.9065 34.8517L46.5763 46.7544C46.5763 46.7544 46.6728 54.3554 56.5846 55.1963C71.7419 56.4901 87.8325 43.5523 86.0626 38.9271C83.9064 33.2991 76.2473 33.4932 76.2473 33.4932L58.3224 20.6524C57.5179 20.0702 56.4881 19.9732 55.587 20.3937L30.1961 31.9083C29.3272 32.2965 28.9732 33.3315 29.3594 34.2048C29.4881 34.4312 29.649 34.6899 29.9065 34.8517Z" fill="#F68E2B"/>
<path d="M30.1961 31.3585L46.8659 43.2613C46.8659 43.2613 46.9625 50.8622 56.8421 51.7032C71.9994 52.9969 88.09 40.0592 86.32 35.4339C84.1639 29.806 76.5048 30 76.5048 30L58.5799 17.1593C57.7753 16.5771 56.7456 16.4801 55.8445 16.9005L30.4857 28.3505C29.6169 28.7386 29.2307 29.7736 29.6169 30.6469C29.7456 30.938 29.9387 31.1644 30.1961 31.3585Z" fill="#FBE8AE"/>
<path d="M24.9828 30.2266V33.558L68.5882 35.24H82.3295V31.0999" fill="#F6B034"/>
<path d="M25.8195 34.7223L43.4547 45.1372C43.4547 45.1372 44.1949 52.7058 54.1389 52.7058C69.3284 52.7058 84.2926 38.4095 82.1365 33.9784C79.4976 28.5445 71.9029 29.3854 71.9029 29.3854L52.9482 18.1296C52.1115 17.6121 51.0495 17.6121 50.1806 18.0972L25.8517 31.7466C25.015 32.1994 24.7253 33.2668 25.1759 34.1077C25.3368 34.3665 25.562 34.5929 25.8195 34.7223Z" fill="#F6B034"/>
<path d="M25.8195 31.2292L43.4547 41.6441C43.4547 41.6441 44.1949 49.1804 54.1389 49.1804C69.3284 49.1804 84.2926 34.8842 82.1365 30.453C79.4976 25.0191 71.9029 25.8601 71.9029 25.8601L52.9482 14.6042C52.1115 14.0867 51.0495 14.0867 50.1806 14.5718L25.8517 28.2212C25.015 28.674 24.7253 29.7414 25.1759 30.5823C25.3368 30.8411 25.562 31.0675 25.8195 31.2292Z" fill="#FBE8AE"/>
<path d="M23.0519 26.2808V29.6122L66.6573 31.2941H80.3987V27.1541" fill="#F6B034"/>
<path d="M23.8886 30.8088L41.5239 41.2237C41.5239 41.2237 42.264 48.7923 52.1758 48.7923C67.3653 48.7923 82.3295 34.4961 80.1734 30.0649C77.5345 24.631 69.9398 25.472 69.9398 25.472L51.0173 14.1838C50.1806 13.6663 49.1186 13.6663 48.2497 14.1514L23.9208 27.8008C23.0841 28.2536 22.7944 29.321 23.245 30.1619C23.4059 30.4207 23.6312 30.6471 23.8886 30.8088Z" fill="#F6B034"/>
<path d="M23.8886 27.2831L41.5239 37.698C41.5239 37.698 42.264 45.2342 52.1758 45.2342C67.3653 45.2342 82.3295 30.938 80.1734 26.5068C77.5346 21.0729 69.9398 21.9139 69.9398 21.9139L50.9851 10.6257C50.1484 10.1082 49.0864 10.1082 48.2175 10.5933L23.8886 24.2427C23.0519 24.6955 22.7623 25.7629 23.245 26.6038C23.4059 26.8949 23.6312 27.1213 23.8886 27.2831Z" fill="#FBE8AE"/>
<path d="M23.0519 21.2349V24.534L66.6573 26.2159H80.3987V22.0758" fill="#F6B034"/>
<path d="M23.8886 25.7306L41.5239 36.1455C41.5239 36.1455 42.264 43.6817 52.1758 43.7141C67.3653 43.7141 82.3295 29.4178 80.1734 24.9867C77.5345 19.5528 69.9398 20.3937 69.9398 20.3937L50.9851 9.13788C50.1484 8.62037 49.0864 8.62037 48.2175 9.10554L23.8886 22.7549C23.0519 23.2077 22.7623 24.2751 23.2128 25.116C23.4059 25.3424 23.6312 25.5689 23.8886 25.7306Z" fill="#F6B034"/>
<path d="M23.8888 22.2052L41.5241 32.6201C41.5241 32.6201 42.2642 40.1564 52.2082 40.1887C67.3977 40.1887 82.3619 25.8925 80.2058 21.4613C77.5669 16.0274 69.9722 16.8684 69.9722 16.8684L51.0175 5.61249C50.1808 5.09498 49.1188 5.09498 48.2499 5.58014L23.921 19.2295C23.0843 19.6823 22.7947 20.7497 23.2452 21.5906C23.4061 21.8171 23.6314 22.0435 23.8888 22.2052Z" fill="#FBE8AE"/>
<path d="M51.7253 13.9575C49.6335 13.9575 49.6335 17.2243 51.7253 17.2243C53.8171 17.2243 53.8171 13.9575 51.7253 13.9575Z" fill="#F6B034"/>
<path d="M74.0268 24.4692C71.935 24.4692 71.935 27.736 74.0268 27.736C76.1186 27.736 76.1186 24.4692 74.0268 24.4692Z" fill="#F6B034"/>
<path d="M56.2628 32.5552C54.1711 32.5552 54.1711 35.822 56.2628 35.822C58.3546 35.822 58.3546 32.5552 56.2628 32.5552Z" fill="#F6B034"/>
<path d="M47.4452 22.1729C45.3534 22.1729 45.3534 25.4396 47.4452 25.4396C49.537 25.4396 49.537 22.1729 47.4452 22.1729Z" fill="#F6B034"/>
<path d="M35.9565 19.0029C33.8648 19.0029 33.8648 22.2697 35.9565 22.2697C38.0483 22.2697 38.0805 19.0029 35.9565 19.0029Z" fill="#F6B034"/>
<path d="M56.6168 25.084C55.8445 25.084 55.8445 26.3131 56.6168 26.3131C57.4214 26.3131 57.4214 25.084 56.6168 25.084Z" fill="#F6B034"/>
<path d="M66.8504 18.5181C66.0781 18.5181 66.0781 19.7472 66.8504 19.7472C67.6228 19.7472 67.6228 18.5181 66.8504 18.5181Z" fill="#F6B034"/>
<path d="M65.9494 30.938C65.6275 30.9703 65.3701 31.2614 65.3701 31.5849C65.4023 31.876 65.6275 32.1347 65.9494 32.1671C66.2712 32.1347 66.5286 31.8436 66.5286 31.5202C66.4964 31.1967 66.2712 30.938 65.9494 30.938Z" fill="#F6B034"/>
<path d="M58.0006 18.6475C57.6788 18.6798 57.4214 18.9709 57.4214 19.2943C57.4535 19.5854 57.6788 19.8442 58.0006 19.8766C58.3224 19.8442 58.5799 19.5531 58.5799 19.2297C58.5477 18.9062 58.3224 18.6475 58.0006 18.6475Z" fill="#F6B034"/>
<path d="M43.7765 16.6094C43.4547 16.6417 43.1973 16.9328 43.1973 17.2563C43.2295 17.5474 43.4547 17.8061 43.7765 17.8385C44.0984 17.8061 44.3558 17.515 44.3558 17.1916C44.3236 16.8681 44.0984 16.6417 43.7765 16.6094Z" fill="#F6B034"/>
<path d="M41.1699 26.5391L41.0411 26.4097C40.8159 26.151 40.4297 26.151 40.1723 26.3774C39.9148 26.6038 39.9148 26.9919 40.1401 27.2507L40.1723 27.283L40.301 27.4124C40.5584 27.6388 40.9446 27.6065 41.1699 27.3477C41.3951 27.1213 41.3951 26.7655 41.1699 26.5391Z" fill="#F6B034"/>
<path opacity="0.47" d="M82.6836 47.2074C82.4583 45.008 76.2151 44.8786 78.1138 41.8706C80.0125 38.8625 77.3093 38.2156 75.5072 38.442C73.705 38.6685 70.0685 44.4905 67.5906 42.6792C65.1127 40.8679 64.2438 31.5203 65.885 30.2266C67.5262 28.9328 70.2616 32.426 71.8707 30.0648C73.4798 27.7037 75.5715 24.4369 74.7992 21.2025C74.0268 17.968 67.2688 15.6716 59.2879 10.4641C59.2879 10.4641 48.9255 8.19999 44.5811 7.58545C43.9697 8.03827 43.2938 8.4264 42.618 8.74985C40.8159 9.55846 40.2045 10.1407 38.8207 10.8199C36.1175 12.146 33.0281 14.2161 30.1318 15.6716C31.1616 17.03 31.9983 18.2268 30.8719 18.7119C28.3296 19.8116 26.4309 22.4639 26.7527 24.1458C27.0746 25.8277 25.6908 29.6767 28.4583 30.3883C31.2259 31.0999 30.3892 28.1889 31.8695 28.4476C33.3499 28.7064 31.1616 34.3666 34.1544 36.2426C37.1472 38.1186 36.4393 30.6147 38.4345 31.0352C40.4297 31.4556 42.9077 31.6821 44.7742 33.5257C46.6407 35.3693 53.1413 32.7818 54.7503 32.4907C56.3594 32.1996 60.382 31.0028 61.6693 33.5257C62.9565 36.0486 62.8922 42.6468 62.152 45.1697C61.4118 47.6926 58.6764 49.4068 55.9732 50.4095C53.27 51.4122 52.4977 55.1641 56.7777 57.0401C61.0578 58.9161 67.8802 51.865 72.0316 53.5469C76.183 55.2288 82.9088 49.4068 82.6836 47.2074Z" fill="#F68E2B"/>
<path d="M49.9875 21.4293C52.9023 21.4293 55.2652 19.0544 55.2652 16.1248C55.2652 13.1952 52.9023 10.8203 49.9875 10.8203C47.0727 10.8203 44.7098 13.1952 44.7098 16.1248C44.7098 19.0544 47.0727 21.4293 49.9875 21.4293Z" fill="#E94139"/>
<path d="M47.7026 16.1575C47.2521 14.2169 47.7348 11.9851 49.2152 10.853C46.3189 11.2735 44.3558 13.9904 44.7742 16.8691C45.1925 19.7801 47.8957 21.7531 50.7599 21.3326C51.854 21.1709 52.8838 20.6534 53.6883 19.8448C50.9851 20.427 48.4428 19.1979 47.7026 16.1575Z" fill="#C42A2A"/>
<path d="M53.7205 14.2168C53.5918 13.5052 53.2378 12.8583 52.7229 12.3732C52.1436 11.8233 51.3069 12.6966 51.854 13.2465C52.208 13.6022 52.4655 14.0551 52.5298 14.5402C52.6264 14.8637 52.9482 15.0577 53.27 14.9607C53.624 14.8637 53.8171 14.5402 53.7205 14.2168Z" fill="white"/>
<path d="M53.3665 15.6074C53.0447 15.6398 52.7873 15.9309 52.7873 16.2543C52.8194 16.5454 53.0447 16.8042 53.3665 16.8365C53.6883 16.8042 53.9458 16.5131 53.9458 16.1896C53.8814 15.8662 53.6562 15.6398 53.3665 15.6074Z" fill="white"/>
<path d="M48.7968 13.3436C49.5077 13.3436 50.0841 13.054 50.0841 12.6967C50.0841 12.3394 49.5077 12.0498 48.7968 12.0498C48.0859 12.0498 47.5096 12.3394 47.5096 12.6967C47.5096 13.054 48.0859 13.3436 48.7968 13.3436Z" fill="#C42A2A"/>
<path d="M48.9577 13.3758C48.7968 11.2734 49.2152 9.20332 50.1484 7.32734C49.9553 7.03624 49.537 6.97155 49.2473 7.16562C49.1508 7.23031 49.0543 7.35968 49.0221 7.45672C48.4106 9.36504 48.0245 11.3381 48.4106 13.3111C48.6037 13.3434 48.7646 13.3758 48.9577 13.3758Z" fill="#631919"/>
<path d="M55.6192 23.4996C58.0897 23.4996 60.0924 21.4867 60.0924 19.0037C60.0924 16.5207 58.0897 14.5078 55.6192 14.5078C53.1487 14.5078 51.146 16.5207 51.146 19.0037C51.146 21.4867 53.1487 23.4996 55.6192 23.4996Z" fill="#E94139"/>
<path d="M54.7181 17.322C56.0054 16.2222 57.8397 15.7371 59.2557 16.384C57.8075 14.3786 55.0399 13.9258 53.0447 15.3813C51.0495 16.8368 50.5989 19.6184 52.0471 21.6238C52.5942 22.4 53.3987 22.9822 54.2998 23.2733C52.7873 21.4297 52.7229 19.0362 54.7181 17.322Z" fill="#C42A2A"/>
<path d="M58.4833 21.1062C58.966 20.7504 59.2879 20.2329 59.4809 19.6507C59.674 19.0038 58.6764 18.6803 58.5155 19.3272C58.3868 19.7477 58.1615 20.1035 57.8075 20.3299C57.6144 20.524 57.5823 20.8474 57.7753 21.0738C57.9684 21.2679 58.2581 21.2679 58.4833 21.1062Z" fill="white"/>
<path d="M57.3248 21.3646C57.1639 21.1059 56.8421 21.0412 56.6168 21.2029C56.3915 21.3323 56.3272 21.6234 56.4237 21.8498C56.5846 22.1086 56.9064 22.1732 57.1317 22.0115C57.3248 21.8498 57.4213 21.591 57.3248 21.3646Z" fill="white"/>
<path d="M58.2095 17.7479C58.4779 17.6083 58.4702 17.0579 58.1924 16.5185C57.9146 15.9791 57.4719 15.655 57.2036 15.7946C56.9352 15.9342 56.9429 16.4846 57.2207 17.024C57.4985 17.5634 57.9412 17.8875 58.2095 17.7479Z" fill="#C42A2A"/>
<path d="M57.2604 17.1601C58.773 16.2221 60.4786 15.7369 62.2485 15.7046C62.4094 15.4458 62.3129 15.1224 62.0554 14.9607C61.9589 14.896 61.8302 14.8636 61.7014 14.896C60.028 15.1871 58.419 15.6399 57.0995 16.7073C57.1639 16.869 57.1961 17.0307 57.2604 17.1601Z" fill="#631919"/>
</svg>
